<svg xmlns="http://www.w3.org/2000/svg" xmlns:xlink="http://www.w3.org/1999/xlink" viewBox="0 0 1024 768"><defs><style>.cls-1,.cls-36,.cls-37,.cls-38{fill:none;}.cls-2{fill:#dbedf3;}.cls-3{fill:#666;}.cls-4{clip-path:url(#clip-path);}.cls-5{fill:#fc9;}.cls-6{fill:#2a1600;}.cls-7{fill:#a9143f;}.cls-8{fill:#ff9f9b;}.cls-9{fill:#fff;}.cls-10{opacity:0.8;}.cls-11{clip-path:url(#clip-path-4);}.cls-12{fill:#ff7b6d;}.cls-13{clip-path:url(#clip-path-5);}.cls-14{opacity:0.9;}.cls-15{clip-path:url(#clip-path-6);}.cls-16{fill:#e7b38f;}.cls-17{clip-path:url(#clip-path-7);}.cls-18{fill:url(#radial-gradient);}.cls-19{clip-path:url(#clip-path-8);}.cls-20{fill:url(#radial-gradient-2);}.cls-21{clip-path:url(#clip-path-9);}.cls-22{fill:url(#radial-gradient-3);}.cls-23{clip-path:url(#clip-path-10);}.cls-24{fill:url(#radial-gradient-4);}.cls-25{clip-path:url(#clip-path-11);}.cls-26{fill:url(#radial-gradient-5);}.cls-27{clip-path:url(#clip-path-12);}.cls-28{fill:url(#radial-gradient-6);}.cls-29{clip-path:url(#clip-path-13);}.cls-30{fill:url(#radial-gradient-7);}.cls-31{fill:#999;}.cls-32{fill:#b3b3b3;}.cls-33{fill:gray;}.cls-34{clip-path:url(#clip-path-15);}.cls-35{fill:#e6e6e6;}.cls-36,.cls-37,.cls-38{stroke:#000;stroke-miterlimit:10;}.cls-36{stroke-width:2.1px;}.cls-37{stroke-width:3.49px;}.cls-38{stroke-width:1.4px;}.cls-39{clip-path:url(#clip-path-17);}.cls-40{fill:#7f4c24;}.cls-41{fill:#cf9c6d;}.cls-42{fill:#75214f;}.cls-43{fill:#2fadd4;}.cls-44{fill:#e7394f;}.cls-45{fill:#7dd94f;}.cls-46{fill:#e76f45;}.cls-47{fill:#e6c129;}.cls-48{fill:#7f3700;}.cls-49{fill:#a75000;}.cls-50{fill:#5fd1b4;}.cls-51{fill:#ffb7b4;}.cls-52{fill:#ffd1b4;}</style><clipPath id="clip-path"><rect class="cls-1" x="664" y="98" width="316.16" height="302"/></clipPath><clipPath id="clip-path-4"><rect class="cls-1" x="790.56" y="157.88" width="7.31" height="4.57"/></clipPath><clipPath id="clip-path-5"><rect class="cls-1" x="848.12" y="157.88" width="7.31" height="4.57"/></clipPath><clipPath id="clip-path-6"><rect class="cls-1" x="804.72" y="193.94" width="37.46" height="14.19"/></clipPath><clipPath id="clip-path-7"><path class="cls-1" d="M773.2,128.64c0,2,1.23,3.65,2.74,3.65s2.74-1.63,2.74-3.65-1.22-3.66-2.74-3.66-2.74,1.64-2.74,3.66"/></clipPath><radialGradient id="radial-gradient" cx="265.85" cy="-403.14" r="0.91" gradientTransform="translate(-164 1553.94) scale(3.54)" gradientUnits="userSpaceOnUse"><stop offset="0" stop-color="#fff"/><stop offset="0.08" stop-color="#ffedd9"/><stop offset="0.21" stop-color="#ffd5a8"/><stop offset="0.33" stop-color="#ffc17d"/><stop offset="0.46" stop-color="#ffb05b"/><stop offset="0.59" stop-color="#ffa340"/><stop offset="0.72" stop-color="#ff9a2d"/><stop offset="0.86" stop-color="#ff9522"/><stop offset="1" stop-color="#ff931e"/></radialGradient><clipPath id="clip-path-8"><path class="cls-1" d="M775,124.07c0,2,1.23,3.66,2.74,3.66s2.74-1.64,2.74-3.66-1.23-3.65-2.74-3.65-2.74,1.63-2.74,3.65"/></clipPath><radialGradient id="radial-gradient-2" cx="265.81" cy="-403.01" r="0.91" gradientTransform="translate(-162 1548.94) scale(3.54)" xlink:href="#radial-gradient"/><clipPath id="clip-path-9"><path class="cls-1" d="M865.94,131.84c0,2,1.22,3.65,2.74,3.65s2.74-1.64,2.74-3.65-1.23-3.66-2.74-3.66-2.74,1.64-2.74,3.66"/></clipPath><radialGradient id="radial-gradient-3" cx="263.38" cy="-403.22" r="0.91" gradientTransform="translate(-62.5 1557.44) scale(3.54)" xlink:href="#radial-gradient"/><clipPath id="clip-path-10"><path class="cls-1" d="M770.46,125c0,2,1.23,3.66,2.74,3.66s2.74-1.64,2.74-3.66-1.23-3.65-2.74-3.65-2.74,1.64-2.74,3.65"/></clipPath><radialGradient id="radial-gradient-4" cx="265.93" cy="-403.04" r="0.91" gradientTransform="translate(-167 1549.94) scale(3.54)" xlink:href="#radial-gradient"/><clipPath id="clip-path-11"><path class="cls-1" d="M863.13,124.16c0,2.32,1.41,4.2,3.15,4.2s3.15-1.88,3.15-4.2S868,120,866.28,120s-3.15,1.88-3.15,4.2"/></clipPath><radialGradient id="radial-gradient-5" cx="-17.82" cy="-1014.33" r="0.91" gradientTransform="translate(793.84 -3999.98) rotate(180) scale(4.07)" xlink:href="#radial-gradient"/><clipPath id="clip-path-12"><path class="cls-1" d="M866.39,127.73a3.66,3.66,0,1,0,3.66-3.66,3.66,3.66,0,0,0-3.66,3.66"/></clipPath><radialGradient id="radial-gradient-6" cx="225.75" cy="-1056.89" r="0.91" gradientTransform="matrix(4.71, 0, 0, -3.54, -194.17, -3608.94)" xlink:href="#radial-gradient"/><clipPath id="clip-path-13"><path class="cls-1" d="M860.62,127.18c0,2.32,1.41,4.2,3.15,4.2s3.15-1.88,3.15-4.2-1.41-4.21-3.15-4.21-3.15,1.89-3.15,4.21"/></clipPath><radialGradient id="radial-gradient-7" cx="-17.88" cy="-1014.26" r="0.91" gradientTransform="translate(791.09 -3996.68) rotate(180) scale(4.07)" xlink:href="#radial-gradient"/><clipPath id="clip-path-15"><rect class="cls-1" x="106.57" y="79.43" width="133.28" height="162.42" transform="matrix(0.06, -1, 1, 0.06, 2.99, 324.44)"/></clipPath><clipPath id="clip-path-17"><rect class="cls-1" x="638.72" y="498.18" width="214.47" height="152.71" transform="translate(-136.06 245.02) rotate(-17.12)"/></clipPath></defs><g id="Layer_2" data-name="Layer 2"><g id="bg"><rect class="cls-2" x="0.5" y="0.5" width="1023" height="767"/><path d="M1023,1V767H1V1H1023m1-1H0V768H1024V0Z"/><path class="cls-3" d="M301.24,200v53.2h-3.42V200Z"/><path class="cls-3" d="M338.56,253.19v-56h3.18v56Z"/><path class="cls-3" d="M382.55,234.12c0,10.56-4.89,20-14.35,20-8.57,0-13.9-8.43-13.9-19.91,0-10.87,5-19.91,14.22-19.91C377,214.28,382.55,222.18,382.55,234.12Zm-24.88.07c0,9.05,4.06,16.34,10.79,16.34s10.72-6.76,10.72-16.34c0-9-3.8-16.34-10.85-16.34C361.09,217.85,357.67,225.07,357.67,234.19Z"/><path class="cls-3" d="M394.67,215.19c5.14,17.41,8.69,29.26,9.9,34.13h.06c.7-2.82,4.26-14.14,10.41-34.13h3.37l-12,38H402.6l-11.3-38Z"/><path class="cls-3" d="M430,234.65c.06,9.8,4.19,15.88,10.28,15.88s8-4,9.14-7.14h3.24c-1.33,5-4.7,10.71-12.5,10.71-9.65,0-13.4-9.95-13.4-19.6,0-10.87,4.51-20.22,13.78-20.22,9.77,0,12.88,10.11,12.88,17.25,0,1.07,0,2.13-.06,3.12Zm20.12-3.35c-.06-7.52-3.49-13.45-9.71-13.45-6.54,0-9.52,5.47-10.22,13.45Z"/><path class="cls-3" d="M508.85,246a52,52,0,0,0,.44,7.22h-3a28.58,28.58,0,0,1-.57-5.85c-1.08,2.81-3.88,6.76-10.41,6.76-7.37,0-10.54-5.7-10.54-11.4,0-8.36,5.4-12.16,14.92-12.16h6v-3.87c0-3.8-1-8.9-8.19-8.9-6.41,0-7.36,4-8.06,7.15h-3.18c.38-4.18,2.54-10.64,11.3-10.64,7.24,0,11.3,3.65,11.3,12Zm-3.11-12.16h-6.22c-7,0-11.43,2.21-11.43,8.74,0,4.79,2.86,8.06,7.3,8.06,9.08,0,10.35-7.22,10.35-15.43Z"/><path class="cls-3" d="M524,225.53c0-6.39-.07-9.12-.07-10.34h3.11c.07,1.22.13,3.65.13,8.51,1.84-5.7,5.9-9.12,11-9.42v4.1c-6.61.54-11,6-11,15.05v19.76H524Z"/><path class="cls-3" d="M546.48,215.19h5.91V203.33h3.17v11.86h7.55v3.57h-7.55v24.7c0,4.26.76,6.69,3.81,6.69a10.13,10.13,0,0,0,3.3-.45V253a9.5,9.5,0,0,1-3.94.68c-4.06,0-6.34-2.43-6.34-8.51V218.76h-5.91Z"/><path class="cls-3" d="M572.06,261.86a55.87,55.87,0,0,0,4.44-18.4h3.18a54.77,54.77,0,0,1-4.76,18.4Z"/><path class="cls-3" d="M233.21,299c0-3.27,0-6.85-.07-9.81h3.11c.07,1.29.19,4.56.13,6.77,1.33-3.81,4.25-7.68,9.52-7.68,4.44,0,7.93,2.66,9.2,7.52,1.59-3.95,4.77-7.52,10.35-7.52,4.89,0,10,3.34,10,13.91v25h-3.18V302.64c0-5.09-1.52-10.64-7.42-10.64-6.16,0-8.95,5.93-8.95,13.3v21.89h-3.11V302.72c0-5.55-1.4-10.72-7.24-10.72-6.16,0-9.14,6.54-9.14,14.29v20.9h-3.17Z"/><path class="cls-3" d="M313.81,316.1c0,3.72.07,9.65.07,11.09h-3.05c-.13-1-.19-3.49-.19-6.61-1.33,4.48-4.57,7.52-10.22,7.52-4.57,0-10.41-2.12-10.41-13.75V289.19h3.11v24.25c0,5.54,1.46,10.94,7.74,10.94,7.11,0,9.78-4.79,9.78-15.66V289.19h3.17Z"/><path class="cls-3" d="M328.54,316.7c1.08,4.94,4,7.91,9,7.91,5.65,0,7.93-3.12,7.93-7.37s-1.52-6.46-8.63-8.52c-8.19-2.35-10.22-5.32-10.22-10.33,0-5.25,3.3-10.11,10.48-10.11s10.6,5.24,11.1,10.64H345c-.57-3.19-2.67-7.15-8.06-7.15s-7.11,3.27-7.11,6.31c0,3.5,1.52,5.25,7.81,7.07,8.95,2.59,11.17,6.08,11.17,11.78,0,6.92-4.7,11.17-11.36,11.17-7.24,0-11.3-4.56-12.19-11.4Z"/><path class="cls-3" d="M361.41,271.18h3.18v7.37h-3.18Zm0,18h3.18v38h-3.18Z"/><path class="cls-3" d="M403.05,316c-1.52,6.69-5.21,12.08-12.31,12.08-7.94,0-13.59-7.06-13.59-19.76,0-10.41,4.64-20.06,14-20.06,8.06,0,11.36,6.84,11.93,12.16h-3.24c-.95-4.41-3.36-8.59-8.76-8.59-6.73,0-10.53,6.84-10.53,16.34,0,9.05,3.55,16.34,10.22,16.34,4.63,0,7.42-2.81,9.07-8.51Z"/><path class="cls-3" d="M411.68,335.86a55.87,55.87,0,0,0,4.44-18.4h3.17a54.3,54.3,0,0,1-4.76,18.4Z"/><path class="cls-3" d="M475.15,320a52,52,0,0,0,.44,7.22h-3a28.58,28.58,0,0,1-.57-5.85c-1.08,2.81-3.88,6.76-10.41,6.76-7.37,0-10.54-5.7-10.54-11.4,0-8.36,5.39-12.16,14.92-12.16h6v-3.87c0-3.8-1-8.9-8.19-8.9-6.41,0-7.37,4-8.06,7.15h-3.18c.38-4.18,2.54-10.64,11.3-10.64,7.24,0,11.3,3.65,11.3,12ZM472,307.81h-6.22c-7.05,0-11.43,2.21-11.43,8.74,0,4.79,2.86,8.06,7.3,8.06,9.08,0,10.35-7.22,10.35-15.43Z"/><path class="cls-3" d="M490.32,298.77c0-3.35,0-6.54-.07-9.58h3.11c.13,1.22.19,6.16.13,7.22,1.4-3.88,4-8.13,10.54-8.13,5.65,0,10.66,3.8,10.66,14.29v24.62h-3.17v-24c0-6.76-2.35-11.17-7.87-11.17-7.56,0-10.16,7.53-10.16,15.81v19.38h-3.17Z"/><path class="cls-3" d="M554.29,271.18v45.07c0,3.65,0,7.14.07,10.94h-3.05c-.13-.91-.19-4.48-.19-6.38-1.59,4.63-5.14,7.29-10.66,7.29-8.25,0-13.21-8.05-13.21-19.45,0-11.71,5.4-20.37,14-20.37,6.35,0,8.89,3.27,9.84,5.7v-22.8ZM530.62,308.5c0,10.41,4.51,16,10,16,8.38,0,10.67-6.91,10.67-17.25,0-9.81-2-15.43-10.09-15.43C534.87,291.85,530.62,297.85,530.62,308.5Z"/><path class="cls-3" d="M236.38,345.18v24.39c1.78-3.95,4.89-7.29,10.47-7.29,4.51,0,10.73,2.73,10.73,14.74v24.17h-3.17V377.78c0-7.52-2.86-11.78-8.13-11.78-6.28,0-9.9,4.64-9.9,14v21.2h-3.17v-56Z"/><path class="cls-3" d="M294.07,394a51.49,51.49,0,0,0,.45,7.22h-3a30.2,30.2,0,0,1-.57-5.85c-1.08,2.81-3.87,6.76-10.41,6.76-7.36,0-10.54-5.7-10.54-11.4,0-8.36,5.4-12.16,14.92-12.16h6v-3.87c0-3.8-.95-8.9-8.19-8.9-6.41,0-7.36,4-8.06,7.15h-3.17c.38-4.18,2.54-10.64,11.3-10.64,7.23,0,11.29,3.65,11.29,12ZM291,381.81h-6.22c-7,0-11.42,2.21-11.42,8.74,0,4.79,2.85,8.06,7.3,8.06,9.07,0,10.34-7.22,10.34-15.43Z"/><path class="cls-3" d="M307.53,363.19c5.14,17.41,8.69,29.26,9.9,34.13h.06c.7-2.82,4.26-14.14,10.41-34.13h3.37l-12,38h-3.81l-11.3-38Z"/><path class="cls-3" d="M342.88,382.65c.06,9.8,4.19,15.88,10.28,15.88s8-4,9.14-7.14h3.24c-1.33,5-4.7,10.71-12.5,10.71-9.65,0-13.4-10-13.4-19.6,0-10.87,4.51-20.22,13.78-20.22,9.77,0,12.88,10.11,12.88,17.25,0,1.07,0,2.13-.06,3.12ZM363,379.3c-.06-7.52-3.49-13.45-9.71-13.45-6.54,0-9.52,5.47-10.22,13.45Z"/><path class="cls-3" d="M399.94,373.53c0-6.39-.07-9.12-.07-10.34H403c.07,1.22.13,3.65.13,8.51,1.84-5.7,5.9-9.12,11.05-9.42v4.1c-6.61.54-11.05,6-11.05,15.05v19.76h-3.17Z"/><path class="cls-3" d="M425.39,382.65c.06,9.8,4.19,15.88,10.28,15.88s8-4,9.14-7.14h3.24c-1.33,5-4.7,10.71-12.51,10.71-9.64,0-13.39-10-13.39-19.6,0-10.87,4.51-20.22,13.78-20.22,9.77,0,12.88,10.11,12.88,17.25,0,1.07,0,2.13-.06,3.12Zm20.12-3.35c-.06-7.52-3.49-13.45-9.71-13.45-6.54,0-9.52,5.47-10.22,13.45Z"/><path class="cls-3" d="M484.92,390c-1.52,6.69-5.2,12.08-12.31,12.08-7.93,0-13.58-7.06-13.58-19.76,0-10.41,4.63-20.06,14-20.06,8.06,0,11.36,6.84,11.93,12.16h-3.23c-.95-4.41-3.37-8.59-8.76-8.59-6.73,0-10.54,6.84-10.54,16.34,0,9.05,3.56,16.34,10.22,16.34,4.63,0,7.43-2.81,9.08-8.51Z"/><path class="cls-3" d="M498,382.65c.06,9.8,4.18,15.88,10.28,15.88s8-4,9.14-7.14h3.24c-1.34,5-4.7,10.71-12.51,10.71-9.65,0-13.39-10-13.39-19.6,0-10.87,4.5-20.22,13.77-20.22,9.78,0,12.89,10.11,12.89,17.25,0,1.07,0,2.13-.07,3.12Zm20.12-3.35c-.07-7.52-3.49-13.45-9.71-13.45-6.54,0-9.53,5.47-10.22,13.45Z"/><path class="cls-3" d="M533.86,372.77c0-3.35,0-6.54-.07-9.58h3.11c.13,1.22.19,6.16.13,7.22,1.4-3.88,4-8.13,10.54-8.13,5.65,0,10.66,3.8,10.66,14.29v24.62h-3.17v-24c0-6.76-2.35-11.17-7.87-11.17-7.56,0-10.16,7.53-10.16,15.81v19.38h-3.17Z"/><path class="cls-3" d="M568.38,363.19h5.91V351.33h3.17v11.86H585v3.57h-7.55v24.7c0,4.26.76,6.69,3.81,6.69a10.13,10.13,0,0,0,3.3-.45V401a9.5,9.5,0,0,1-3.94.68c-4.06,0-6.34-2.43-6.34-8.51V366.76h-5.91Z"/><path class="cls-3" d="M596,401.19v-56h3.18v56Z"/><path class="cls-3" d="M614.08,363.19c6.41,21.74,9.2,30.71,10.28,34.81h.07c1.27-4.64,3.8-13.45,10-34.81h3.3L625.76,403.4c-3.37,11.25-5.65,13.75-11.36,13.75a16.79,16.79,0,0,1-2.92-.23v-3.79a17.69,17.69,0,0,0,2.85.22c4.57,0,6-2.66,8.38-10.49l-12.12-39.67Z"/><path class="cls-3" d="M233.21,419.18h3.17v24.39c1.52-3.8,4.63-7.29,10.85-7.29,7.49,0,13,7.37,13,19.08,0,12-5,20.74-13.84,20.74-5.33,0-8.38-2.58-10-6.91,0,2.43-.06,4.94-.13,6h-3.11c.07-4.33.07-8.66.07-13Zm23.67,36.25c0-9.5-3.93-15.58-10-15.58-7.94,0-10.73,6.46-10.73,16.42,0,9,2.47,16.26,10.35,16.26C253,472.53,256.88,466.15,256.88,455.43Z"/><path class="cls-3" d="M273.89,456.65c.06,9.8,4.19,15.88,10.28,15.88s8-4,9.14-7.14h3.24c-1.33,5-4.7,10.71-12.51,10.71-9.64,0-13.39-10-13.39-19.6,0-10.87,4.51-20.22,13.77-20.22,9.78,0,12.89,10.11,12.89,17.25,0,1.07,0,2.13-.06,3.12ZM294,453.3c-.06-7.52-3.49-13.45-9.71-13.45-6.54,0-9.52,5.47-10.22,13.45Z"/><path class="cls-3" d="M310.76,456.65c.07,9.8,4.19,15.88,10.29,15.88s8-4,9.14-7.14h3.23c-1.33,5-4.69,10.71-12.5,10.71-9.65,0-13.39-10-13.39-19.6,0-10.87,4.5-20.22,13.77-20.22,9.78,0,12.89,10.11,12.89,17.25,0,1.07,0,2.13-.07,3.12Zm20.12-3.35c-.06-7.52-3.49-13.45-9.71-13.45-6.54,0-9.52,5.47-10.22,13.45Z"/><path class="cls-3" d="M346.62,446.77c0-3.35,0-6.54-.06-9.58h3.11c.13,1.22.19,6.16.13,7.22,1.39-3.88,4-8.13,10.53-8.13,5.65,0,10.67,3.8,10.67,14.29v24.62h-3.18v-24c0-6.76-2.34-11.17-7.87-11.17-7.55,0-10.15,7.53-10.15,15.81v19.38h-3.18Z"/><path class="cls-3" d="M402.54,437.19h5.9V425.33h3.17v11.86h7.56v3.57h-7.56v24.7c0,4.26.77,6.69,3.81,6.69a10.06,10.06,0,0,0,3.3-.45V475a9.49,9.49,0,0,1-3.93.68c-4.06,0-6.35-2.43-6.35-8.51V440.76h-5.9Z"/><path class="cls-3" d="M452.11,468a52,52,0,0,0,.44,7.22h-3a28.58,28.58,0,0,1-.57-5.85c-1.08,2.81-3.88,6.76-10.41,6.76-7.37,0-10.54-5.7-10.54-11.4,0-8.36,5.39-12.16,14.91-12.16h6v-3.87c0-3.8-1-8.9-8.19-8.9-6.41,0-7.37,4-8.06,7.15h-3.18c.38-4.18,2.54-10.64,11.3-10.64,7.24,0,11.3,3.65,11.3,12ZM449,455.81h-6.22c-7,0-11.43,2.21-11.43,8.74,0,4.79,2.86,8.06,7.3,8.06,9.08,0,10.35-7.22,10.35-15.43Z"/><path class="cls-3" d="M470.45,456.8c2.92-3.72,11.81-14.52,16.06-19.61h4.06L478,452.32l14.16,22.87h-3.94l-12.5-20.44-5.27,6.08v14.36h-3.17v-56h3.17Z"/><path class="cls-3" d="M502.18,419.18h3.18v7.37h-3.18Zm0,18h3.18v38h-3.18Z"/><path class="cls-3" d="M520.46,446.77c0-3.35,0-6.54-.06-9.58h3.11c.12,1.22.19,6.16.12,7.22,1.4-3.88,4-8.13,10.54-8.13,5.65,0,10.66,3.8,10.66,14.29v24.62h-3.17v-24c0-6.76-2.35-11.17-7.87-11.17-7.55,0-10.16,7.53-10.16,15.81v19.38h-3.17Z"/><path class="cls-3" d="M584.19,472.61c0,12.16-4.51,18.54-13.72,18.54-8.25,0-11.68-5.55-12.44-11.32h3.24c1.14,5.24,4.76,7.75,9.33,7.75,8.25,0,10.54-6.38,10.54-16v-4c-1.72,4.94-4.83,7.6-10.6,7.6-7.43,0-13.14-7.22-13.14-19,0-12.77,6.09-19.91,13.58-19.91,6.48,0,9.27,3.65,10.16,6.69.06-2.21.13-4.87.19-5.78h3c0,1.37-.12,7.37-.12,11ZM560.76,456c0,9,4,15.58,10.1,15.58,7.93,0,10.34-6.31,10.34-16.19,0-10-2.54-15.58-10.15-15.58C563.75,439.85,560.76,447.38,560.76,456Z"/><path class="cls-3" d="M644.23,464.1c0,3.72.06,9.65.06,11.09h-3c-.12-1-.19-3.49-.19-6.61-1.33,4.48-4.57,7.52-10.22,7.52-4.57,0-10.41-2.12-10.41-13.75V437.19h3.11v24.25c0,5.54,1.46,10.94,7.75,10.94,7.11,0,9.77-4.79,9.77-15.66V437.19h3.18Z"/><path class="cls-3" d="M662.5,469.57v20.82h-3.17V446.54c0-3.12,0-6.46-.06-9.35h3.11c.12,1.44.12,3.73.12,6.84,2-4.56,5.46-7.75,11.17-7.75,7.5,0,12.7,7.52,12.7,18.92,0,13.68-6.09,20.9-13.77,20.9A10.24,10.24,0,0,1,662.5,469.57ZM683,455.36c0-8.82-3.56-15.43-9.84-15.43-7.68,0-10.86,5.77-10.86,16.11,0,10.18,2.48,16.49,10.41,16.49C679.32,472.53,683,465.84,683,455.36Z"/><path class="cls-3" d="M256.56,538c-1.52,6.69-5.2,12.08-12.31,12.08-7.93,0-13.58-7.06-13.58-19.76,0-10.41,4.63-20.06,14-20.06,8.06,0,11.36,6.84,11.93,12.16h-3.23c-1-4.41-3.37-8.59-8.76-8.59-6.73,0-10.54,6.84-10.54,16.34,0,9,3.55,16.34,10.22,16.34,4.63,0,7.43-2.81,9.08-8.51Z"/><path class="cls-3" d="M294.65,530.12c0,10.56-4.89,20-14.35,20-8.57,0-13.9-8.43-13.9-19.91,0-10.87,5-19.91,14.22-19.91C289.06,510.28,294.65,518.18,294.65,530.12Zm-24.89.07c0,9,4.06,16.34,10.79,16.34s10.73-6.76,10.73-16.34c0-9-3.81-16.34-10.85-16.34C273.19,513.85,269.76,521.07,269.76,530.19Z"/><path class="cls-3" d="M332.09,493.18v45.07c0,3.65,0,7.14.06,10.94h-3c-.13-.91-.19-4.48-.19-6.38-1.59,4.63-5.14,7.29-10.67,7.29-8.25,0-13.2-8.05-13.2-19.45,0-11.71,5.4-20.37,14-20.37,6.35,0,8.88,3.27,9.84,5.7v-22.8ZM308.41,530.5c0,10.41,4.51,16,10,16,8.38,0,10.66-6.91,10.66-17.25,0-9.81-2-15.43-10.09-15.43C312.67,513.85,308.41,519.85,308.41,530.5Z"/><path class="cls-3" d="M347.19,493.18h3.18v7.37h-3.18Zm0,18h3.18v38h-3.18Z"/><path class="cls-3" d="M365.47,520.77c0-3.35,0-6.54-.06-9.58h3.11c.13,1.22.19,6.16.13,7.22,1.39-3.88,4-8.13,10.53-8.13,5.65,0,10.67,3.8,10.67,14.29v24.62h-3.18v-24c0-6.76-2.35-11.17-7.87-11.17-7.55,0-10.15,7.53-10.15,15.81v19.38h-3.18Z"/><path class="cls-3" d="M429.2,546.61c0,12.16-4.51,18.54-13.71,18.54-8.26,0-11.68-5.55-12.45-11.32h3.24c1.14,5.24,4.76,7.75,9.33,7.75,8.25,0,10.54-6.38,10.54-16v-3.95c-1.71,4.94-4.82,7.6-10.6,7.6-7.43,0-13.14-7.22-13.14-19,0-12.77,6.09-19.91,13.58-19.91,6.48,0,9.27,3.65,10.16,6.69.06-2.21.13-4.87.19-5.78h3c0,1.37-.12,7.37-.12,11ZM405.77,530c0,9,4,15.58,10.1,15.58,7.93,0,10.34-6.31,10.34-16.19s-2.54-15.58-10.15-15.58C408.76,513.85,405.77,521.38,405.77,530Z"/><path class="cls-3" d="M448.74,532.17l-.32-26.76V496h3.5v9.42l-.32,26.76Zm-.25,17.1v-9h3.24v9Z"/></g><g id="text"><g id="bang_pan" data-name="bang pan"><g class="cls-4"><g class="cls-4"><g class="cls-4"><path class="cls-5" d="M868,146.59a47.36,47.36,0,0,0-1.64-7.9,42.48,42.48,0,0,1-11-1.83c-5-1.54-8.39-3.62-12.79-6.39-7.78-4.92-11.7-7.34-14.62-11.88-2.3-3.59-2.62-6.1-4.57-6.4-2.52-.38-4,3.55-8.22,8.23-8.9,9.74-20.55,12.3-22.84,12.79a42.94,42.94,0,0,1-9.14.91,38.83,38.83,0,0,0-2.74,5.48,45.8,45.8,0,0,0-2.75,11.12,46.88,46.88,0,0,0-.37,5.76,45.49,45.49,0,0,0,.35,5.6,38.69,38.69,0,0,0,4.6,14.07c5.66,10.1,14.65,15.31,22.38,18a57.23,57.23,0,0,0,14.16,3,48.18,48.18,0,0,0,23.3-3.22,40.92,40.92,0,0,0,8.68-5c12.47-9.36,15.6-22.63,16.45-26.5.07-.32.14-.64.2-1"/><path class="cls-6" d="M868.68,154.68a2.05,2.05,0,0,0-.34-.07,48.38,48.38,0,0,0-2-15.92,42.48,42.48,0,0,1-11-1.83c-5-1.54-8.39-3.62-12.79-6.39-7.78-4.92-11.7-7.34-14.62-11.88-2.3-3.59-2.62-6.1-4.57-6.4-2.52-.38-4,3.55-8.22,8.23-8.9,9.74-20.55,12.3-22.84,12.79a42.94,42.94,0,0,1-9.14.91,38.83,38.83,0,0,0-2.74,5.48,47.62,47.62,0,0,0-3.12,16.88c-4.45-5.23-5.32-9.82-5.56-11.85-1.94-16.68,19.23-30.32,21.09-31.47.36-.23.65-.39.84-.51,12.12-7.33,24.46-7.68,31.06-7.31A24.16,24.16,0,0,1,834,102.6c4.27-.38,21.8,3.33,31.06,19.19A41.27,41.27,0,0,1,870.11,137a42.3,42.3,0,0,1-1.43,17.72"/><path class="cls-7" d="M900.66,284.72V399.54H742.59V282.87a3.16,3.16,0,0,1,.09-.76l10-44.18a3.34,3.34,0,0,1,3.18-2.53,7.92,7.92,0,0,0,2.59-.56l15.26-6.13a7.48,7.48,0,0,0,1.83-1,3.74,3.74,0,0,1,2.26-.81,36.87,36.87,0,0,0,10.35-1.46,31.73,31.73,0,0,0,8.68-4l.76-.53a29.72,29.72,0,0,0,51.79,0c.24.18.5.35.75.53a34.35,34.35,0,0,0,19,5.48l1.35,0a3.27,3.27,0,0,1,2.47.93,7.57,7.57,0,0,0,1.62,1.24l14.24,8.23a7.79,7.79,0,0,0,3.88,1c.08,0,.15.72.24.88a.33.33,0,0,1,0,.06l7.64,44.93a3.77,3.77,0,0,1,0,.57"/><path class="cls-5" d="M849.35,220.85a29.72,29.72,0,0,1-51.79,0,23.1,23.1,0,0,0,6.77-7.46,3.34,3.34,0,0,0,.39-1.62V194.18a57.23,57.23,0,0,0,14.16,3,48.18,48.18,0,0,0,23.3-3.22v18.15a2.11,2.11,0,0,0,.25,1,22.66,22.66,0,0,0,6.92,7.74"/><path class="cls-6" d="M777.74,162.08c-1.29,2.37-3.23,3.77-5.11,3.43-2.73-.5-4.28-4.53-3.46-9s3.69-7.68,6.42-7.18a3.61,3.61,0,0,1,2.17,1.39Z"/><path class="cls-6" d="M772.68,235.08l-2.15,0a5,5,0,0,1-4.34-7.63l5.64-9.27a.26.26,0,0,1,.44,0l4.85,9.57a5,5,0,0,1-4.44,7.29"/><path class="cls-6" d="M772.68,248.79h-2.15a5,5,0,0,1-4.34-7.62l5.64-9.27a.25.25,0,0,1,.44,0l4.85,9.57a5,5,0,0,1-4.44,7.29"/><path class="cls-6" d="M772.68,261.58l-2.15,0a5,5,0,0,1-4.34-7.63l5.64-9.27a.25.25,0,0,1,.44,0l4.85,9.57a5,5,0,0,1-4.44,7.29"/><path class="cls-6" d="M773.6,222.29l-2.16,0a5,5,0,0,1-4.33-7.63l5.64-9.27a.25.25,0,0,1,.44,0L778,215a5,5,0,0,1-4.43,7.29"/><path class="cls-6" d="M773.6,207.67l-2.16,0a5,5,0,0,1-4.33-7.63l5.64-9.27a.26.26,0,0,1,.44,0l4.84,9.57a5,5,0,0,1-4.43,7.29"/><path class="cls-6" d="M774.51,180.26l-2.15,0a5,5,0,0,1-4.34-7.63l5.64-9.27a.26.26,0,0,1,.44,0l4.84,9.57a5,5,0,0,1-4.43,7.29"/><path class="cls-6" d="M773.6,193.05l-2.16,0a5,5,0,0,1-4.33-7.63l5.64-9.26a.25.25,0,0,1,.44,0l4.84,9.57a5,5,0,0,1-4.43,7.29"/><path class="cls-6" d="M871,162.76a4.05,4.05,0,0,1-3.48-1.27,47.46,47.46,0,0,0,.83-6.88,46.56,46.56,0,0,0-.31-8c2.72-.5,5.6,2.72,6.42,7.18s-.73,8.5-3.46,9"/><path class="cls-6" d="M870.94,232.34l2.15,0a5,5,0,0,0,4.34-7.63l-5.64-9.27a.25.25,0,0,0-.44,0l-4.84,9.57a5,5,0,0,0,4.43,7.29"/><path class="cls-6" d="M870,245.59l2.15,0a5,5,0,0,0,4.33-7.63l-5.63-9.27a.25.25,0,0,0-.44,0l-4.85,9.57a5,5,0,0,0,4.44,7.29"/><path class="cls-6" d="M870,258.38l2.15,0a5,5,0,0,0,4.33-7.63l-5.63-9.27a.25.25,0,0,0-.44,0l-4.85,9.57a5,5,0,0,0,4.44,7.29"/><path class="cls-6" d="M870,219.55l2.15,0a5,5,0,0,0,4.33-7.63l-5.63-9.27a.25.25,0,0,0-.44,0l-4.85,9.57a5,5,0,0,0,4.44,7.29"/><path class="cls-6" d="M870,204.93l2.15,0a5,5,0,0,0,4.33-7.63l-5.63-9.27a.25.25,0,0,0-.44,0l-4.85,9.57a5,5,0,0,0,4.44,7.29"/><path class="cls-6" d="M869.11,177.52l2.15,0a5,5,0,0,0,4.34-7.63L870,160.64a.25.25,0,0,0-.44,0l-4.84,9.57a5,5,0,0,0,4.43,7.29"/><path class="cls-6" d="M870,190.31l2.15,0a5,5,0,0,0,4.33-7.63l-5.63-9.27a.26.26,0,0,0-.44,0L865.59,183a5,5,0,0,0,4.44,7.29"/><path d="M823.91,111.74a35.93,35.93,0,0,0,1.82,7.1,31.17,31.17,0,0,0,3.31,6.48,32.08,32.08,0,0,0,4.66,5.61,39.64,39.64,0,0,0,5.74,4.56,28.71,28.71,0,0,1-6.1-4.18,29.66,29.66,0,0,1-4.87-5.61,29.32,29.32,0,0,1-3.24-6.69,27,27,0,0,1-1.32-7.27"/><path d="M823,110.82a23.27,23.27,0,0,1-1.5,7.26,24.87,24.87,0,0,1-3.66,6.51,23.33,23.33,0,0,1-5.46,5.08,27.44,27.44,0,0,1-3.26,1.83,22.93,22.93,0,0,1-3.48,1.25A31.77,31.77,0,0,0,812,129.1a27.23,27.23,0,0,0,5.15-5.08,29.34,29.34,0,0,0,3.73-6.21,25.43,25.43,0,0,0,1.26-3.42,30.53,30.53,0,0,0,.89-3.57"/><path d="M822.12,98a9.65,9.65,0,0,1,2.4,3.29,6.26,6.26,0,0,1,.62,2,4.56,4.56,0,0,1-.27,2.07h-.09c-.24-.67-.38-1.3-.54-1.92s-.22-1.26-.41-1.88a11,11,0,0,0-1.78-3.48Z"/><path d="M831.15,102.14a4.65,4.65,0,0,0-3.25.51,4.77,4.77,0,0,0-2.16,2.69,5,5,0,0,1,1.91-3.07,5.34,5.34,0,0,1,3.63-1Z"/><path class="cls-6" d="M849,153.08c0,3.15-2.13,5.71-4.76,5.71s-4.76-2.56-4.76-5.71,2.13-5.71,4.76-5.71,4.76,2.56,4.76,5.71"/><path class="cls-6" d="M806.93,153.08c0,3.15-2.13,5.71-4.76,5.71s-4.76-2.56-4.76-5.71,2.13-5.71,4.76-5.71,4.76,2.56,4.76,5.71"/><path class="cls-6" d="M831.68,164.73a10.18,10.18,0,0,1-2,6.17,8.17,8.17,0,0,1-13.29,0,10.17,10.17,0,0,1-2-6.17Z"/><path class="cls-8" d="M829.64,170.9a8.17,8.17,0,0,1-13.29,0,8.15,8.15,0,0,1,13.29,0"/><path class="cls-9" d="M847.21,150.57a.92.92,0,1,1-.92-.92.92.92,0,0,1,.92.92"/><path class="cls-9" d="M805.18,150.57a.92.92,0,1,1-.91-.92.91.91,0,0,1,.91.92"/><g class="cls-10"><g class="cls-11"><path class="cls-12" d="M797.87,160.16c0,1.26-1.64,2.28-3.65,2.28s-3.66-1-3.66-2.28,1.64-2.28,3.66-2.28,3.65,1,3.65,2.28"/></g></g><g class="cls-10"><g class="cls-13"><path class="cls-12" d="M855.43,160.16c0,1.26-1.64,2.28-3.65,2.28s-3.66-1-3.66-2.28,1.64-2.28,3.66-2.28,3.65,1,3.65,2.28"/></g></g><g class="cls-14"><g class="cls-15"><path class="cls-16" d="M842.18,193.94v2.41c-2.89,6.9-10.13,11.78-18.58,11.78-8.75,0-16.19-5.23-18.88-12.5v-1.45a57.23,57.23,0,0,0,14.16,3,48.31,48.31,0,0,0,23.3-3.22"/></g></g></g><g class="cls-17"><rect class="cls-18" x="773.2" y="124.98" width="5.48" height="7.31"/></g><g class="cls-19"><rect class="cls-20" x="775.03" y="120.42" width="5.48" height="7.31"/></g><g class="cls-21"><rect class="cls-22" x="865.94" y="128.18" width="5.48" height="7.31"/></g><g class="cls-23"><rect class="cls-24" x="770.46" y="121.33" width="5.48" height="7.31"/></g><g class="cls-25"><rect class="cls-26" x="863.13" y="119.96" width="6.3" height="8.41"/></g><g class="cls-27"><rect class="cls-28" x="866.39" y="124.07" width="7.31" height="7.31"/></g><g class="cls-29"><rect class="cls-30" x="860.62" y="122.97" width="6.3" height="8.41"/></g><g class="cls-4"><path class="cls-31" d="M784.26,400a21.49,21.49,0,0,0,.35-27h74a21.49,21.49,0,0,0,.35,27Z"/><path class="cls-32" d="M912.53,267.25V361A12.07,12.07,0,0,1,900.47,373H745.53A12.08,12.08,0,0,1,733.46,361V267.25a12.08,12.08,0,0,1,12.07-12.07H900.47a12.07,12.07,0,0,1,12.06,12.07"/><path class="cls-32" d="M870.51,399.54H774.57a11,11,0,0,1,11-11h74a11,11,0,0,1,11,11"/><path class="cls-33" d="M823,303.61a9.24,9.24,0,0,0-7.31-9.14c-4.84-.87-8.89,2.93-10.05,6.39-1.48,4.4,1.57,8.63,4.56,12.8a36.64,36.64,0,0,0,12.8,11"/><path class="cls-33" d="M822.61,303.61a9.24,9.24,0,0,1,7.31-9.14c4.83-.87,8.89,2.93,10.05,6.39,1.48,4.4-1.57,8.63-4.57,12.8a36.49,36.49,0,0,1-12.79,11"/><path class="cls-31" d="M703.5,399.66l-30.16-.24c-.32-8.77,6-15.95,13.33-16.75a12.4,12.4,0,0,1,2-.05c7.74.36,15.11,7.6,14.81,17"/></g></g></g></g></g><g id="illustrations"><g id="Artwork_2" data-name="Artwork 2"><g class="cls-34"><g class="cls-34"><path class="cls-35" d="M135.19,113.35c12-16.31,28.53-18.52,42.81-13,8.91,3.43,14,8.67,16.23,12.65,2.35-2.41,8.06-5.54,16.39-6.25,14.62-1.24,30.54,12,30.26,27.31-.22,12.2-10.6,20-12.18,21.15,2.36.08,10.68.64,17.18,7.1,7.3,7.24,10.34,20,4.24,29.61-6.47,10.22-21.29,13.87-33.23,6.87a28.25,28.25,0,0,1-1.18,10.45c-.25.78-4.73,14.4-17,18.13-10.76,3.29-23.84-2.22-30.87-14a25.48,25.48,0,0,1-8.8,8.7c-11.17,6.44-29.83,4.77-37.45-8-4.85-8.15-4.15-19,1.29-27.95-2,1.08-8.12,4.1-14.81,2.12-9.84-2.92-14.71-14.85-13.58-24.44,1.43-12.13,12.24-19,13.51-19.69a26,26,0,0,1-5.23-7.95c-1.49-3.72-5.11-12.81-.44-21,3-5.31,10.3-11.62,18.66-9.64,5.71,1.35,12.42,1.65,14.15,7.93"/><path class="cls-9" d="M132.64,109c12-16.31,28.53-18.52,42.81-13,8.9,3.43,14,8.68,16.22,12.65,2.36-2.41,8.07-5.54,16.4-6.25,14.61-1.24,30.54,12,30.26,27.31-.23,12.2-10.6,20-12.18,21.15,2.35.08,10.68.65,17.18,7.1,7.3,7.25,10.34,20,4.24,29.61-6.48,10.22-21.3,13.87-33.24,6.87a28.25,28.25,0,0,1-1.18,10.45c-.24.78-4.73,14.4-16.94,18.13-10.77,3.29-23.85-2.22-30.87-14a25.52,25.52,0,0,1-8.81,8.7c-11.17,6.44-29.83,4.77-37.45-8-4.85-8.15-4.14-19,1.29-28-2,1.08-8.12,4.1-14.81,2.12C95.72,180.9,90.85,169,92,159.38c1.44-12.13,12.24-19,13.52-19.69a26.23,26.23,0,0,1-5.24-7.94c-1.48-3.73-5.1-12.82-.43-21,3-5.31,10.29-11.62,18.65-9.64,5.72,1.35,12.42,1.65,14.16,7.93"/><line x1="146.97" y1="173.4" x2="149.76" y2="133.62"/><line class="cls-36" x1="146.97" y1="173.4" x2="149.76" y2="133.62"/><line x1="185.8" y1="174.72" x2="188.17" y2="135.96"/><line class="cls-36" x1="185.8" y1="174.72" x2="188.17" y2="135.96"/><line x1="189.15" y1="137.08" x2="148.67" y2="134.24"/><line class="cls-37" x1="189.15" y1="137.08" x2="148.67" y2="134.24"/><path d="M147.57,173c.75,2-.84,4.43-3.55,5.45s-5.52.24-6.27-1.75.85-4.43,3.56-5.45,5.52-.24,6.26,1.75"/><path class="cls-38" d="M147.57,173c.75,2-.84,4.43-3.55,5.45s-5.52.24-6.27-1.75.85-4.43,3.56-5.45S146.83,171,147.57,173Z"/><path d="M186.66,175.75c.75,2-.85,4.42-3.56,5.44s-5.52.24-6.27-1.75.85-4.43,3.56-5.45,5.52-.23,6.27,1.76"/><path class="cls-38" d="M186.66,175.75c.75,2-.85,4.42-3.56,5.44s-5.52.24-6.27-1.75.85-4.43,3.56-5.45S185.91,173.76,186.66,175.75Z"/></g></g></g><g id="Artwork_4" data-name="Artwork 4"><g class="cls-39"><g class="cls-39"><path class="cls-35" d="M655.49,560.11c-5.39-17.31,3.61-35,18.2-40.06,11.48-4,25.21.22,33.85,10.72,8.46-15.74,25.22-23.75,40-20.15,14.53,3.53,21.26,16.85,22.29,19,6.53-13.36,21.75-19.85,35.16-15.53,12.09,3.89,20.38,15.81,19.93,29.1,9.84-2.79,19.86-.42,24.49,5.77,6.5,8.71,3.12,26-12.16,34.29.5,4,1.61,17.17-6.81,28.72-10,13.68-29.25,19.46-48.14,14-5.77,18.42-23.55,28.82-39.18,25.37-11.43-2.52-20.69-12.24-24.05-24.7-5.41,10.65-15.84,16.88-25,15.53-12.53-1.85-23.49-18.07-18.12-35.93-9.49,3.26-19.79,2.63-26-3-9.43-8.54-9.65-28.93,5.49-43.2"/><path class="cls-9" d="M650.32,558.57c-5.4-17.31,3.61-35,18.2-40.06,11.48-4,25.2.22,33.84,10.72,8.47-15.74,25.23-23.74,40-20.15,14.53,3.54,21.26,16.85,22.29,19,6.52-13.36,21.75-19.85,35.16-15.53,12.09,3.89,20.38,15.81,19.93,29.1,9.84-2.79,19.86-.42,24.48,5.78,6.5,8.7,3.12,26-12.15,34.28.49,4,1.61,17.17-6.81,28.72-10,13.68-29.25,19.46-48.15,14.05-5.77,18.42-23.54,28.82-39.17,25.38-11.43-2.53-20.69-12.25-24.05-24.7-5.41,10.64-15.85,16.87-25,15.52-12.52-1.85-23.49-18.07-18.11-35.93-9.5,3.26-19.79,2.63-26-3-9.43-8.54-9.65-28.93,5.49-43.2"/><path class="cls-40" d="M757,557.56c-17.11-13.64-38.86-10.35-44.47-9.28-8.61,1.63-24.13,4.56-30.06,17.33-5,10.79-.23,22.26.75,24.61,4.13,9.92,11.73,14.87,15.19,17.06a42.08,42.08,0,0,0,26.14,6.23c7-.74,17.19-3.76,17.84-8.6.35-2.6-2.23-4.47-1.31-8.29A9,9,0,0,1,744,592c3.08-2.56,6.67-1.71,10.55-2,6.39-.5,14-4.17,16-8.64,3.09-7-6.43-18.12-13.53-23.78m-64.05,21.9c-.54-1.73,1.58-3.9,4.71-4.87s6.1-.35,6.63,1.38-1.58,3.9-4.71,4.86-6.1.35-6.63-1.37m12.35,13.9c-2.82.86-5.5.3-6-1.27s1.41-3.54,4.23-4.41,5.5-.3,6,1.27-1.41,3.54-4.23,4.41m13.31,8.94c-2.82.86-5.53.17-6.07-1.55s1.33-3.82,4.15-4.69,5.53-.18,6.07,1.55-1.33,3.82-4.15,4.69m-10.33-36.57c-3.6,1.11-7,.61-7.48-1.11s2-4,5.56-5.13,6.95-.61,7.48,1.11-2,4-5.56,5.13m25.07-.27c-3.13,1-6.14.22-6.72-1.65s1.49-4.19,4.62-5.15,6.15-.23,6.72,1.65-1.49,4.19-4.62,5.15m22.15,4.36c-2.66.82-5.22.21-5.7-1.35s1.29-3.5,4-4.32,5.21-.22,5.7,1.35-1.29,3.5-3.95,4.32"/><path class="cls-41" d="M755.65,557.34c-17.1-13.64-38.86-10.35-44.47-9.28-8.61,1.63-24.13,4.57-30.06,17.33-5,10.79-.23,22.26.75,24.61,4.13,9.92,11.73,14.87,15.19,17.06a42.08,42.08,0,0,0,26.14,6.23c7-.74,17.19-3.75,17.84-8.6.35-2.6-2.23-4.47-1.31-8.29a9,9,0,0,1,2.93-4.63c3.08-2.56,6.67-1.7,10.56-2,6.38-.5,14-4.17,16-8.64,3.1-7-6.43-18.12-13.53-23.78m-64,21.9c-.53-1.72,1.58-3.9,4.71-4.86s6.1-.36,6.63,1.37-1.58,3.9-4.71,4.86-6.1.36-6.63-1.37M704,593.14c-2.82.86-5.5.3-6-1.27s1.41-3.54,4.23-4.41,5.5-.3,6,1.27-1.41,3.54-4.23,4.41m13.31,8.94c-2.82.87-5.53.18-6.06-1.55s1.32-3.82,4.14-4.69,5.53-.18,6.07,1.55-1.33,3.82-4.15,4.69m-10.33-36.57c-3.6,1.11-6.95.62-7.48-1.11s2-4,5.56-5.13,7-.61,7.48,1.11-2,4-5.56,5.13m25.07-.26c-3.13,1-6.14.22-6.72-1.66s1.49-4.19,4.62-5.15,6.15-.22,6.72,1.65-1.49,4.19-4.62,5.16m22.15,4.35c-2.66.82-5.21.22-5.7-1.35s1.29-3.5,3.95-4.32,5.21-.21,5.7,1.35-1.29,3.5-4,4.32"/><path class="cls-42" d="M722.72,597.6c.53,1.73-1.33,3.83-4.15,4.7s-5.53.17-6.07-1.55,1.33-3.82,4.15-4.69,5.53-.18,6.07,1.54"/><path class="cls-43" d="M709.49,589c.48,1.56-1.41,3.54-4.23,4.41s-5.5.3-6-1.27,1.41-3.54,4.23-4.41,5.5-.3,6,1.27"/><path class="cls-44" d="M704.25,576c.53,1.72-1.58,3.9-4.71,4.86s-6.1.35-6.63-1.37,1.58-3.9,4.71-4.87,6.1-.35,6.63,1.38"/><path class="cls-45" d="M713.8,560.6c.53,1.73-2,4-5.56,5.13s-7,.61-7.48-1.11,2-4,5.56-5.13,6.95-.61,7.48,1.11"/><path class="cls-46" d="M737.93,560.31c.58,1.88-1.49,4.19-4.62,5.15s-6.14.22-6.72-1.65,1.49-4.19,4.62-5.15,6.15-.23,6.72,1.65"/><path class="cls-47" d="M759.54,565.92c.55,1.81-1.35,4-4.25,4.88s-5.69.16-6.25-1.64,1.35-4,4.25-4.88,5.69-.16,6.25,1.64"/><path class="cls-48" d="M793.12,552l-9,52.16c-.68,4-4.78,6.57-9.16,5.82l-.58-2.48,11.69-47.61c.77-3.73,2.82-7.91,7-7.89"/><path class="cls-49" d="M792.66,552.18l-12,52.39a7.4,7.4,0,0,1-8.86,5.56l-.36-2.52,14.17-47.7c1-3.75,3.16-7.9,7-7.73"/><path class="cls-50" d="M799.08,536.59c-1.28-1-2-1.06-2.49-.88s-.67.71-1.61,1.13a7.16,7.16,0,0,1-1.13.35c-.74.21-1.33.4-1.7.53a2.13,2.13,0,0,1-.57.17,2.32,2.32,0,0,1-1.81-.72,24.48,24.48,0,0,0,1.46-4.24,27.34,27.34,0,0,0,.72-5.61,18.17,18.17,0,0,1,4.79,4.78,19.23,19.23,0,0,1,2.34,4.49"/><path class="cls-51" d="M800.37,542.33c-.49,4.84-4.26,11-8.84,10.67a7.12,7.12,0,0,1-6.11-5.82c-.29-2.81,2.14-4.21,4.35-8.32.2-.36.39-.76.58-1.17a.36.36,0,0,0,0-.09c1.06.59,1.65.52,2,.35.68-.33.61-1.15,1.28-1.37s.94.47,1.84.37,1-.63,1.69-.81a2.93,2.93,0,0,1,2.5.88h0a12.48,12.48,0,0,1,.67,5.3"/><path class="cls-52" d="M799.75,541.9c-.49,4.84-4.25,11-8.83,10.67a7.12,7.12,0,0,1-6.12-5.82c-.29-2.81,2.14-4.21,4.35-8.32.2-.36.4-.76.58-1.17a.73.73,0,0,1,0-.09c1.05.59,1.65.52,2,.35.67-.33.76-.55,1.27-1.37.35-.57,1,.47,1.84.37s1-.63,1.7-.81a2.92,2.92,0,0,1,2.49.88h0a12.32,12.32,0,0,1,.67,5.3"/><path class="cls-49" d="M779.82,607a16.78,16.78,0,0,0-1.87.18,18.3,18.3,0,0,0-2.58.63,6.91,6.91,0,0,1-2.58.63,3.53,3.53,0,0,1-1.16-.27"/></g></g></g></g></g></svg>