<svg xmlns="http://www.w3.org/2000/svg" xmlns:xlink="http://www.w3.org/1999/xlink" viewBox="0 0 1025.33 3072"><defs><style>.cls-1,.cls-17,.cls-19,.cls-21,.cls-22,.cls-57,.cls-58,.cls-59,.cls-8,.cls-95{fill:none;}.cls-2{fill:#dbedf3;}.cls-3{fill:#666;}.cls-4{clip-path:url(#clip-path);}.cls-5{fill:#e6e6e6;}.cls-6,.cls-88{fill:#fff;}.cls-7{fill:#4baf3f;}.cls-8{stroke:#8cc63f;}.cls-17,.cls-19,.cls-21,.cls-22,.cls-57,.cls-58,.cls-59,.cls-8,.cls-95{stroke-miterlimit:10;}.cls-9{fill:#8cc63f;}.cls-10{fill:#8c6239;}.cls-11{fill:#f43b3d;}.cls-12{fill:#4bbf39;}.cls-13{fill:#4ba139;}.cls-14{fill:#25b939;}.cls-15{clip-path:url(#clip-path-3);}.cls-16{fill:#39b54a;}.cls-17{stroke:#477d1d;}.cls-17,.cls-19,.cls-21,.cls-22{stroke-linecap:round;stroke-width:3px;}.cls-18{fill:#f7931e;}.cls-19{stroke:#db7d1d;}.cls-20{fill:#9e005d;}.cls-21{stroke:#9e005d;}.cls-22{stroke:#dd005d;}.cls-23{fill:#dbe7ff;}.cls-24{fill:#007b79;}.cls-25{fill:#0099af;}.cls-26{font-size:87.11px;fill:#006571;font-family:BistroScript, Bistro Script;}.cls-27{clip-path:url(#clip-path-5);}.cls-28{fill:#fc9;}.cls-29{fill:#2a1600;}.cls-30{fill:#a9143f;}.cls-31{fill:#ff9f9b;}.cls-32{opacity:0.8;}.cls-33{clip-path:url(#clip-path-8);}.cls-34{fill:#ff7b6d;}.cls-35{clip-path:url(#clip-path-9);}.cls-36{opacity:0.9;}.cls-37{clip-path:url(#clip-path-10);}.cls-38{fill:#e7b38f;}.cls-39{clip-path:url(#clip-path-11);}.cls-40{fill:url(#radial-gradient);}.cls-41{clip-path:url(#clip-path-12);}.cls-42{fill:url(#radial-gradient-2);}.cls-43{clip-path:url(#clip-path-13);}.cls-44{fill:url(#radial-gradient-3);}.cls-45{clip-path:url(#clip-path-14);}.cls-46{fill:url(#radial-gradient-4);}.cls-47{clip-path:url(#clip-path-15);}.cls-48{fill:url(#radial-gradient-5);}.cls-49{clip-path:url(#clip-path-16);}.cls-50{fill:url(#radial-gradient-6);}.cls-51{clip-path:url(#clip-path-17);}.cls-52{fill:url(#radial-gradient-7);}.cls-53{fill:#999;}.cls-54{fill:#b3b3b3;}.cls-55{fill:gray;}.cls-56{clip-path:url(#clip-path-19);}.cls-57,.cls-58,.cls-59{stroke:#000;}.cls-57{stroke-width:2.1px;}.cls-58{stroke-width:3.49px;}.cls-59{stroke-width:1.4px;}.cls-60{clip-path:url(#clip-path-21);}.cls-61{fill:#7f4c24;}.cls-62{fill:#cf9c6d;}.cls-63{fill:#75214f;}.cls-64{fill:#2fadd4;}.cls-65{fill:#e7394f;}.cls-66{fill:#7dd94f;}.cls-67{fill:#e76f45;}.cls-68{fill:#e6c129;}.cls-69{fill:#7f3700;}.cls-70{fill:#a75000;}.cls-71{fill:#5fd1b4;}.cls-72{fill:#ffb7b4;}.cls-73{fill:#ffd1b4;}.cls-74{fill:#f40047;}.cls-75{fill:#430094;}.cls-76{fill:#138a00;}.cls-77{fill:#ff603f;}.cls-78{font-size:54.07px;fill:#aaffea;letter-spacing:-0.02em;}.cls-78,.cls-80,.cls-83,.cls-84{font-family:AlibabaSans-Regular, Alibaba Sans;}.cls-79{letter-spacing:0.04em;}.cls-80{font-size:34.99px;fill:#e9ffea;letter-spacing:0.04em;}.cls-81{letter-spacing:0.02em;}.cls-82{letter-spacing:-0.04em;}.cls-83{font-size:40px;fill:#b4ffcf;letter-spacing:0.04em;}.cls-84{font-size:39px;fill:#8affc8;letter-spacing:0.04em;}.cls-85{letter-spacing:0.04em;}.cls-86{letter-spacing:-0.04em;}.cls-87{fill:#4d4d4d;}.cls-88{font-size:47px;font-family:MyriadPro-Regular, Myriad Pro;letter-spacing:0.02em;}.cls-89{letter-spacing:0.04em;}.cls-90{letter-spacing:-0.04em;}.cls-91{letter-spacing:0.02em;}.cls-92{letter-spacing:0.07em;}.cls-93{letter-spacing:0.04em;}.cls-94{clip-path:url(#clip-path-23);}.cls-95{stroke:#fff;stroke-width:1.05px;}</style><clipPath id="clip-path"><rect class="cls-1" x="1" width="1024" height="768"/></clipPath><clipPath id="clip-path-3"><rect class="cls-1" x="50.23" y="73.69" width="126.19" height="69.99" transform="translate(-17.56 21.95) rotate(-10.27)"/></clipPath><clipPath id="clip-path-5"><rect class="cls-1" x="664" y="864" width="316.16" height="302"/></clipPath><clipPath id="clip-path-8"><rect class="cls-1" x="790.56" y="923.88" width="7.31" height="4.57"/></clipPath><clipPath id="clip-path-9"><rect class="cls-1" x="848.12" y="923.88" width="7.31" height="4.57"/></clipPath><clipPath id="clip-path-10"><rect class="cls-1" x="804.72" y="959.94" width="37.46" height="14.19"/></clipPath><clipPath id="clip-path-11"><path class="cls-1" d="M773.2,894.64c0,2,1.23,3.65,2.74,3.65s2.74-1.63,2.74-3.65-1.22-3.66-2.74-3.66-2.74,1.64-2.74,3.66"/></clipPath><radialGradient id="radial-gradient" cx="265.85" cy="397.29" r="0.91" gradientTransform="translate(-164 -509.98) scale(3.54)" gradientUnits="userSpaceOnUse"><stop offset="0" stop-color="#fff"/><stop offset="0.08" stop-color="#ffedd9"/><stop offset="0.21" stop-color="#ffd5a8"/><stop offset="0.33" stop-color="#ffc17d"/><stop offset="0.46" stop-color="#ffb05b"/><stop offset="0.59" stop-color="#ffa340"/><stop offset="0.72" stop-color="#ff9a2d"/><stop offset="0.86" stop-color="#ff9522"/><stop offset="1" stop-color="#ff931e"/></radialGradient><clipPath id="clip-path-12"><path class="cls-1" d="M775,890.07c0,2,1.23,3.66,2.74,3.66s2.74-1.64,2.74-3.66-1.23-3.65-2.74-3.65-2.74,1.63-2.74,3.65"/></clipPath><radialGradient id="radial-gradient-2" cx="265.81" cy="397.41" r="0.91" gradientTransform="translate(-162 -514.98) scale(3.54)" xlink:href="#radial-gradient"/><clipPath id="clip-path-13"><path class="cls-1" d="M865.94,897.84c0,2,1.22,3.65,2.74,3.65s2.74-1.64,2.74-3.65-1.23-3.66-2.74-3.66-2.74,1.64-2.74,3.66"/></clipPath><radialGradient id="radial-gradient-3" cx="263.38" cy="397.2" r="0.91" gradientTransform="translate(-62.5 -506.48) scale(3.54)" xlink:href="#radial-gradient"/><clipPath id="clip-path-14"><path class="cls-1" d="M770.46,891c0,2,1.23,3.66,2.74,3.66s2.74-1.64,2.74-3.66-1.23-3.65-2.74-3.65-2.74,1.64-2.74,3.65"/></clipPath><radialGradient id="radial-gradient-4" cx="265.93" cy="397.39" r="0.91" gradientTransform="translate(-167 -513.98) scale(3.54)" xlink:href="#radial-gradient"/><clipPath id="clip-path-15"><path class="cls-1" d="M863.13,890.16c0,2.32,1.41,4.2,3.15,4.2s3.15-1.88,3.15-4.2S868,886,866.28,886s-3.15,1.88-3.15,4.2"/></clipPath><radialGradient id="radial-gradient-5" cx="-17.82" cy="-188.53" r="0.91" gradientTransform="translate(793.84 123.63) rotate(180) scale(4.07)" xlink:href="#radial-gradient"/><clipPath id="clip-path-16"><path class="cls-1" d="M866.39,893.73a3.66,3.66,0,1,0,3.66-3.66,3.66,3.66,0,0,0-3.66,3.66"/></clipPath><radialGradient id="radial-gradient-6" cx="225.75" cy="-229.31" r="0.91" gradientTransform="matrix(4.71, 0, 0, -3.54, -194.17, 82.98)" xlink:href="#radial-gradient"/><clipPath id="clip-path-17"><path class="cls-1" d="M860.62,893.18c0,2.32,1.41,4.2,3.15,4.2s3.15-1.88,3.15-4.2-1.41-4.21-3.15-4.21-3.15,1.89-3.15,4.21"/></clipPath><radialGradient id="radial-gradient-7" cx="-17.88" cy="-188.46" r="0.91" gradientTransform="translate(791.09 126.93) rotate(180) scale(4.07)" xlink:href="#radial-gradient"/><clipPath id="clip-path-19"><rect class="cls-1" x="106.57" y="845.43" width="133.28" height="162.42" transform="matrix(0.06, -1, 1, 0.06, -761.77, 1046.94)"/></clipPath><clipPath id="clip-path-21"><rect class="cls-1" x="638.72" y="1264.18" width="214.47" height="152.71" transform="translate(-361.53 278.95) rotate(-17.12)"/></clipPath><clipPath id="clip-path-23"><rect class="cls-1" x="687" y="2742" width="64.34" height="37.36"/></clipPath></defs><g id="Layer_2" data-name="Layer 2"><g id="bg"><rect class="cls-2" x="1.5" y="1534.5" width="1023" height="767"/><path d="M1024,1535v766H2V1535H1024m1-1H1v768H1025V1534Z"/><rect class="cls-2" x="0.5" y="766.5" width="1023" height="767"/><path d="M1023,767v766H1V767H1023m1-1H0v768H1024V766Z"/><rect class="cls-2" x="1.83" y="2304.5" width="1023" height="767"/><path d="M1024.33,2305v766H2.33V2305h1022m1-1H1.33v768h1024V2304Z"/><path class="cls-3" d="M301.24,966v53.2h-3.42V966Z"/><path class="cls-3" d="M338.56,1019.19v-56h3.18v56Z"/><path class="cls-3" d="M382.55,1000.12c0,10.56-4.89,20-14.35,20-8.57,0-13.9-8.43-13.9-19.91,0-10.87,5-19.91,14.22-19.91C377,980.28,382.55,988.18,382.55,1000.12Zm-24.88.07c0,9,4.06,16.34,10.79,16.34s10.72-6.76,10.72-16.34c0-9-3.8-16.34-10.85-16.34C361.09,983.85,357.67,991.07,357.67,1000.19Z"/><path class="cls-3" d="M394.67,981.19c5.14,17.41,8.69,29.26,9.9,34.13h.06c.7-2.82,4.26-14.14,10.41-34.13h3.37l-12,38H402.6l-11.3-38Z"/><path class="cls-3" d="M430,1000.65c.06,9.8,4.19,15.88,10.28,15.88s8-4,9.14-7.14h3.24c-1.33,5-4.7,10.71-12.5,10.71-9.65,0-13.4-10-13.4-19.6,0-10.87,4.51-20.22,13.78-20.22,9.77,0,12.88,10.11,12.88,17.25,0,1.07,0,2.13-.06,3.12Zm20.12-3.35c-.06-7.52-3.49-13.45-9.71-13.45-6.54,0-9.52,5.47-10.22,13.45Z"/><path class="cls-3" d="M508.85,1012a52,52,0,0,0,.44,7.22h-3a28.58,28.58,0,0,1-.57-5.85c-1.08,2.81-3.88,6.76-10.41,6.76-7.37,0-10.54-5.7-10.54-11.4,0-8.36,5.4-12.16,14.92-12.16h6v-3.87c0-3.8-1-8.9-8.19-8.9-6.41,0-7.36,4-8.06,7.15h-3.18c.38-4.18,2.54-10.64,11.3-10.64,7.24,0,11.3,3.65,11.3,12Zm-3.11-12.16h-6.22c-7,0-11.43,2.21-11.43,8.74,0,4.79,2.86,8.06,7.3,8.06,9.08,0,10.35-7.22,10.35-15.43Z"/><path class="cls-3" d="M524,991.53c0-6.39-.07-9.12-.07-10.34h3.11c.07,1.22.13,3.65.13,8.51,1.84-5.7,5.9-9.12,11-9.42v4.1c-6.61.54-11,6-11,15v19.76H524Z"/><path class="cls-3" d="M546.48,981.19h5.91V969.33h3.17v11.86h7.55v3.57h-7.55v24.7c0,4.26.76,6.69,3.81,6.69a10.13,10.13,0,0,0,3.3-.45V1019a9.5,9.5,0,0,1-3.94.68c-4.06,0-6.34-2.43-6.34-8.51V984.76h-5.91Z"/><path class="cls-3" d="M572.06,1027.86a55.87,55.87,0,0,0,4.44-18.4h3.18a54.77,54.77,0,0,1-4.76,18.4Z"/><path class="cls-3" d="M233.21,1065c0-3.27,0-6.85-.07-9.81h3.11c.07,1.29.19,4.56.13,6.77,1.33-3.81,4.25-7.68,9.52-7.68,4.44,0,7.93,2.66,9.2,7.52,1.59-4,4.77-7.52,10.35-7.52,4.89,0,10,3.34,10,13.91v25h-3.18v-24.55c0-5.09-1.52-10.64-7.42-10.64-6.16,0-8.95,5.93-8.95,13.3v21.89h-3.11v-24.47c0-5.55-1.4-10.72-7.24-10.72-6.16,0-9.14,6.54-9.14,14.29v20.9h-3.17Z"/><path class="cls-3" d="M313.81,1082.1c0,3.72.07,9.65.07,11.09h-3.05c-.13-1-.19-3.49-.19-6.61-1.33,4.48-4.57,7.52-10.22,7.52-4.57,0-10.41-2.12-10.41-13.75v-25.16h3.11v24.25c0,5.54,1.46,10.94,7.74,10.94,7.11,0,9.78-4.79,9.78-15.66v-19.53h3.17Z"/><path class="cls-3" d="M328.54,1082.7c1.08,4.94,4,7.91,9,7.91,5.65,0,7.93-3.12,7.93-7.37s-1.52-6.46-8.63-8.52c-8.19-2.35-10.22-5.32-10.22-10.33,0-5.25,3.3-10.11,10.48-10.11s10.6,5.24,11.1,10.64H345c-.57-3.19-2.67-7.15-8.06-7.15s-7.11,3.27-7.11,6.31c0,3.5,1.52,5.25,7.81,7.07,8.95,2.59,11.17,6.08,11.17,11.78,0,6.92-4.7,11.17-11.36,11.17-7.24,0-11.3-4.56-12.19-11.4Z"/><path class="cls-3" d="M361.41,1037.18h3.18v7.37h-3.18Zm0,18h3.18v38h-3.18Z"/><path class="cls-3" d="M403.05,1082c-1.52,6.69-5.21,12.08-12.31,12.08-7.94,0-13.59-7.06-13.59-19.76,0-10.41,4.64-20.06,14-20.06,8.06,0,11.36,6.84,11.93,12.16h-3.24c-.95-4.41-3.36-8.59-8.76-8.59-6.73,0-10.53,6.84-10.53,16.34,0,9,3.55,16.34,10.22,16.34,4.63,0,7.42-2.81,9.07-8.51Z"/><path class="cls-3" d="M411.68,1101.86a55.87,55.87,0,0,0,4.44-18.4h3.17a54.3,54.3,0,0,1-4.76,18.4Z"/><path class="cls-3" d="M475.15,1086a52,52,0,0,0,.44,7.22h-3a28.58,28.58,0,0,1-.57-5.85c-1.08,2.81-3.88,6.76-10.41,6.76-7.37,0-10.54-5.7-10.54-11.4,0-8.36,5.39-12.16,14.92-12.16h6v-3.87c0-3.8-1-8.9-8.19-8.9-6.41,0-7.37,4-8.06,7.15h-3.18c.38-4.18,2.54-10.64,11.3-10.64,7.24,0,11.3,3.65,11.3,12ZM472,1073.81h-6.22c-7.05,0-11.43,2.21-11.43,8.74,0,4.79,2.86,8.06,7.3,8.06,9.08,0,10.35-7.22,10.35-15.43Z"/><path class="cls-3" d="M490.32,1064.77c0-3.35,0-6.54-.07-9.58h3.11c.13,1.22.19,6.16.13,7.22,1.4-3.88,4-8.13,10.54-8.13,5.65,0,10.66,3.8,10.66,14.29v24.62h-3.17v-24c0-6.76-2.35-11.17-7.87-11.17-7.56,0-10.16,7.53-10.16,15.81v19.38h-3.17Z"/><path class="cls-3" d="M554.29,1037.18v45.07c0,3.65,0,7.14.07,10.94h-3.05c-.13-.91-.19-4.48-.19-6.38-1.59,4.63-5.14,7.29-10.66,7.29-8.25,0-13.21-8-13.21-19.45,0-11.71,5.4-20.37,14-20.37,6.35,0,8.89,3.27,9.84,5.7v-22.8Zm-23.67,37.32c0,10.41,4.51,16,10,16,8.38,0,10.67-6.91,10.67-17.25,0-9.81-2-15.43-10.09-15.43C534.87,1057.85,530.62,1063.85,530.62,1074.5Z"/><path class="cls-3" d="M236.38,1111.18v24.39c1.78-4,4.89-7.29,10.47-7.29,4.51,0,10.73,2.73,10.73,14.74v24.17h-3.17v-23.41c0-7.52-2.86-11.78-8.13-11.78-6.28,0-9.9,4.64-9.9,14v21.2h-3.17v-56Z"/><path class="cls-3" d="M294.07,1160a51.49,51.49,0,0,0,.45,7.22h-3a30.2,30.2,0,0,1-.57-5.85c-1.08,2.81-3.87,6.76-10.41,6.76-7.36,0-10.54-5.7-10.54-11.4,0-8.36,5.4-12.16,14.92-12.16h6v-3.87c0-3.8-.95-8.9-8.19-8.9-6.41,0-7.36,4-8.06,7.15h-3.17c.38-4.18,2.54-10.64,11.3-10.64,7.23,0,11.29,3.65,11.29,12ZM291,1147.81h-6.22c-7,0-11.42,2.21-11.42,8.74,0,4.79,2.85,8.06,7.3,8.06,9.07,0,10.34-7.22,10.34-15.43Z"/><path class="cls-3" d="M307.53,1129.19c5.14,17.41,8.69,29.26,9.9,34.13h.06c.7-2.82,4.26-14.14,10.41-34.13h3.37l-12,38h-3.81l-11.3-38Z"/><path class="cls-3" d="M342.88,1148.65c.06,9.8,4.19,15.88,10.28,15.88s8-4,9.14-7.14h3.24c-1.33,5-4.7,10.71-12.5,10.71-9.65,0-13.4-9.95-13.4-19.6,0-10.87,4.51-20.22,13.78-20.22,9.77,0,12.88,10.11,12.88,17.25,0,1.07,0,2.13-.06,3.12ZM363,1145.3c-.06-7.52-3.49-13.45-9.71-13.45-6.54,0-9.52,5.47-10.22,13.45Z"/><path class="cls-3" d="M399.94,1139.53c0-6.39-.07-9.12-.07-10.34H403c.07,1.22.13,3.65.13,8.51,1.84-5.7,5.9-9.12,11.05-9.42v4.1c-6.61.54-11.05,6-11.05,15v19.76h-3.17Z"/><path class="cls-3" d="M425.39,1148.65c.06,9.8,4.19,15.88,10.28,15.88s8-4,9.14-7.14h3.24c-1.33,5-4.7,10.71-12.51,10.71-9.64,0-13.39-9.95-13.39-19.6,0-10.87,4.51-20.22,13.78-20.22,9.77,0,12.88,10.11,12.88,17.25,0,1.07,0,2.13-.06,3.12Zm20.12-3.35c-.06-7.52-3.49-13.45-9.71-13.45-6.54,0-9.52,5.47-10.22,13.45Z"/><path class="cls-3" d="M484.92,1156c-1.52,6.69-5.2,12.08-12.31,12.08-7.93,0-13.58-7.06-13.58-19.76,0-10.41,4.63-20.06,14-20.06,8.06,0,11.36,6.84,11.93,12.16h-3.23c-.95-4.41-3.37-8.59-8.76-8.59-6.73,0-10.54,6.84-10.54,16.34,0,9,3.56,16.34,10.22,16.34,4.63,0,7.43-2.81,9.08-8.51Z"/><path class="cls-3" d="M498,1148.65c.06,9.8,4.18,15.88,10.28,15.88s8-4,9.14-7.14h3.24c-1.34,5-4.7,10.71-12.51,10.71-9.65,0-13.39-9.95-13.39-19.6,0-10.87,4.5-20.22,13.77-20.22,9.78,0,12.89,10.11,12.89,17.25,0,1.07,0,2.13-.07,3.12Zm20.12-3.35c-.07-7.52-3.49-13.45-9.71-13.45-6.54,0-9.53,5.47-10.22,13.45Z"/><path class="cls-3" d="M533.86,1138.77c0-3.35,0-6.54-.07-9.58h3.11c.13,1.22.19,6.16.13,7.22,1.4-3.88,4-8.13,10.54-8.13,5.65,0,10.66,3.8,10.66,14.29v24.62h-3.17v-24c0-6.76-2.35-11.17-7.87-11.17-7.56,0-10.16,7.53-10.16,15.81v19.38h-3.17Z"/><path class="cls-3" d="M568.38,1129.19h5.91v-11.86h3.17v11.86H585v3.57h-7.55v24.7c0,4.26.76,6.69,3.81,6.69a10.13,10.13,0,0,0,3.3-.45V1167a9.5,9.5,0,0,1-3.94.68c-4.06,0-6.34-2.43-6.34-8.51v-26.45h-5.91Z"/><path class="cls-3" d="M596,1167.19v-56h3.18v56Z"/><path class="cls-3" d="M614.08,1129.19c6.41,21.74,9.2,30.71,10.28,34.81h.07c1.27-4.64,3.8-13.45,10-34.81h3.3l-11.93,40.21c-3.37,11.25-5.65,13.75-11.36,13.75a16.79,16.79,0,0,1-2.92-.23v-3.79a17.69,17.69,0,0,0,2.85.22c4.57,0,6-2.66,8.38-10.49l-12.12-39.67Z"/><path class="cls-3" d="M233.21,1185.18h3.17v24.39c1.52-3.8,4.63-7.29,10.85-7.29,7.49,0,13,7.37,13,19.08,0,12-5,20.74-13.84,20.74-5.33,0-8.38-2.58-10-6.91,0,2.43-.06,4.94-.13,6h-3.11c.07-4.33.07-8.66.07-13Zm23.67,36.25c0-9.5-3.93-15.58-10-15.58-7.94,0-10.73,6.46-10.73,16.42,0,9,2.47,16.26,10.35,16.26C253,1238.53,256.88,1232.15,256.88,1221.43Z"/><path class="cls-3" d="M273.89,1222.65c.06,9.8,4.19,15.88,10.28,15.88s8-4,9.14-7.14h3.24c-1.33,5-4.7,10.71-12.51,10.71-9.64,0-13.39-9.95-13.39-19.6,0-10.87,4.51-20.22,13.77-20.22,9.78,0,12.89,10.11,12.89,17.25,0,1.07,0,2.13-.06,3.12ZM294,1219.3c-.06-7.52-3.49-13.45-9.71-13.45-6.54,0-9.52,5.47-10.22,13.45Z"/><path class="cls-3" d="M310.76,1222.65c.07,9.8,4.19,15.88,10.29,15.88s8-4,9.14-7.14h3.23c-1.33,5-4.69,10.71-12.5,10.71-9.65,0-13.39-9.95-13.39-19.6,0-10.87,4.5-20.22,13.77-20.22,9.78,0,12.89,10.11,12.89,17.25,0,1.07,0,2.13-.07,3.12Zm20.12-3.35c-.06-7.52-3.49-13.45-9.71-13.45-6.54,0-9.52,5.47-10.22,13.45Z"/><path class="cls-3" d="M346.62,1212.77c0-3.35,0-6.54-.06-9.58h3.11c.13,1.22.19,6.16.13,7.22,1.39-3.88,4-8.13,10.53-8.13,5.65,0,10.67,3.8,10.67,14.29v24.62h-3.18v-24c0-6.76-2.34-11.17-7.87-11.17-7.55,0-10.15,7.53-10.15,15.81v19.38h-3.18Z"/><path class="cls-3" d="M402.54,1203.19h5.9v-11.86h3.17v11.86h7.56v3.57h-7.56v24.7c0,4.26.77,6.69,3.81,6.69a10.06,10.06,0,0,0,3.3-.45V1241a9.49,9.49,0,0,1-3.93.68c-4.06,0-6.35-2.43-6.35-8.51v-26.45h-5.9Z"/><path class="cls-3" d="M452.11,1234a52,52,0,0,0,.44,7.22h-3a28.58,28.58,0,0,1-.57-5.85c-1.08,2.81-3.88,6.76-10.41,6.76-7.37,0-10.54-5.7-10.54-11.4,0-8.36,5.39-12.16,14.91-12.16h6v-3.87c0-3.8-1-8.9-8.19-8.9-6.41,0-7.37,4-8.06,7.15h-3.18c.38-4.18,2.54-10.64,11.3-10.64,7.24,0,11.3,3.65,11.3,12ZM449,1221.81h-6.22c-7,0-11.43,2.21-11.43,8.74,0,4.79,2.86,8.06,7.3,8.06,9.08,0,10.35-7.22,10.35-15.43Z"/><path class="cls-3" d="M470.45,1222.8c2.92-3.72,11.81-14.52,16.06-19.61h4.06L478,1218.32l14.16,22.87h-3.94l-12.5-20.44-5.27,6.08v14.36h-3.17v-56h3.17Z"/><path class="cls-3" d="M502.18,1185.18h3.18v7.37h-3.18Zm0,18h3.18v38h-3.18Z"/><path class="cls-3" d="M520.46,1212.77c0-3.35,0-6.54-.06-9.58h3.11c.12,1.22.19,6.16.12,7.22,1.4-3.88,4-8.13,10.54-8.13,5.65,0,10.66,3.8,10.66,14.29v24.62h-3.17v-24c0-6.76-2.35-11.17-7.87-11.17-7.55,0-10.16,7.53-10.16,15.81v19.38h-3.17Z"/><path class="cls-3" d="M584.19,1238.61c0,12.16-4.51,18.54-13.72,18.54-8.25,0-11.68-5.55-12.44-11.32h3.24c1.14,5.24,4.76,7.75,9.33,7.75,8.25,0,10.54-6.38,10.54-16v-4c-1.72,4.94-4.83,7.6-10.6,7.6-7.43,0-13.14-7.22-13.14-19,0-12.77,6.09-19.91,13.58-19.91,6.48,0,9.27,3.65,10.16,6.69.06-2.21.13-4.87.19-5.78h3c0,1.37-.12,7.37-.12,11ZM560.76,1222c0,9,4,15.58,10.1,15.58,7.93,0,10.34-6.31,10.34-16.19,0-10-2.54-15.58-10.15-15.58C563.75,1205.85,560.76,1213.38,560.76,1222Z"/><path class="cls-3" d="M644.23,1230.1c0,3.72.06,9.65.06,11.09h-3c-.12-1-.19-3.49-.19-6.61-1.33,4.48-4.57,7.52-10.22,7.52-4.57,0-10.41-2.12-10.41-13.75v-25.16h3.11v24.25c0,5.54,1.46,10.94,7.75,10.94,7.11,0,9.77-4.79,9.77-15.66v-19.53h3.18Z"/><path class="cls-3" d="M662.5,1235.57v20.82h-3.17v-43.85c0-3.12,0-6.46-.06-9.35h3.11c.12,1.44.12,3.73.12,6.84,2-4.56,5.46-7.75,11.17-7.75,7.5,0,12.7,7.52,12.7,18.92,0,13.68-6.09,20.9-13.77,20.9A10.24,10.24,0,0,1,662.5,1235.57ZM683,1221.36c0-8.82-3.56-15.43-9.84-15.43-7.68,0-10.86,5.77-10.86,16.11,0,10.18,2.48,16.49,10.41,16.49C679.32,1238.53,683,1231.84,683,1221.36Z"/><path class="cls-3" d="M256.56,1304c-1.52,6.69-5.2,12.08-12.31,12.08-7.93,0-13.58-7.06-13.58-19.76,0-10.41,4.63-20.06,14-20.06,8.06,0,11.36,6.84,11.93,12.16h-3.23c-1-4.41-3.37-8.59-8.76-8.59-6.73,0-10.54,6.84-10.54,16.34,0,9,3.55,16.34,10.22,16.34,4.63,0,7.43-2.81,9.08-8.51Z"/><path class="cls-3" d="M294.65,1296.12c0,10.56-4.89,20-14.35,20-8.57,0-13.9-8.43-13.9-19.91,0-10.87,5-19.91,14.22-19.91C289.06,1276.28,294.65,1284.18,294.65,1296.12Zm-24.89.07c0,9,4.06,16.34,10.79,16.34s10.73-6.76,10.73-16.34c0-9-3.81-16.34-10.85-16.34C273.19,1279.85,269.76,1287.07,269.76,1296.19Z"/><path class="cls-3" d="M332.09,1259.18v45.07c0,3.65,0,7.14.06,10.94h-3c-.13-.91-.19-4.48-.19-6.38-1.59,4.63-5.14,7.29-10.67,7.29-8.25,0-13.2-8-13.2-19.45,0-11.71,5.4-20.37,14-20.37,6.35,0,8.88,3.27,9.84,5.7v-22.8Zm-23.68,37.32c0,10.41,4.51,16,10,16,8.38,0,10.66-6.91,10.66-17.25,0-9.81-2-15.43-10.09-15.43C312.67,1279.85,308.41,1285.85,308.41,1296.5Z"/><path class="cls-3" d="M347.19,1259.18h3.18v7.37h-3.18Zm0,18h3.18v38h-3.18Z"/><path class="cls-3" d="M365.47,1286.77c0-3.35,0-6.54-.06-9.58h3.11c.13,1.22.19,6.16.13,7.22,1.39-3.88,4-8.13,10.53-8.13,5.65,0,10.67,3.8,10.67,14.29v24.62h-3.18v-24c0-6.76-2.35-11.17-7.87-11.17-7.55,0-10.15,7.53-10.15,15.81v19.38h-3.18Z"/><path class="cls-3" d="M429.2,1312.61c0,12.16-4.51,18.54-13.71,18.54-8.26,0-11.68-5.55-12.45-11.32h3.24c1.14,5.24,4.76,7.75,9.33,7.75,8.25,0,10.54-6.38,10.54-16v-4c-1.71,4.94-4.82,7.6-10.6,7.6-7.43,0-13.14-7.22-13.14-19,0-12.77,6.09-19.91,13.58-19.91,6.48,0,9.27,3.65,10.16,6.69.06-2.21.13-4.87.19-5.78h3c0,1.37-.12,7.37-.12,11ZM405.77,1296c0,9,4,15.58,10.1,15.58,7.93,0,10.34-6.31,10.34-16.19,0-10-2.54-15.58-10.15-15.58C408.76,1279.85,405.77,1287.38,405.77,1296Z"/><path class="cls-3" d="M448.74,1298.17l-.32-26.76V1262h3.5v9.42l-.32,26.76Zm-.25,17.1v-9h3.24v9Z"/><path class="cls-3" d="M332.56,1614.81C331,1620,327.15,1624,320.2,1624c-9.45,0-14.43-7.52-14.43-16.78,0-8.88,4.89-17,14.48-17,7.09,0,11.28,4,12.36,9.44h-2.54c-1.51-4.27-4.28-7.09-10-7.09-8.17,0-11.6,7.47-11.6,14.57s3.38,14.47,11.79,14.47c5.36,0,8.09-2.77,9.73-6.81Z"/><path class="cls-3" d="M340.6,1623.6V1589H343v34.64Z"/><path class="cls-3" d="M352.58,1589h2.35v4.56h-2.35Zm0,11.14h2.35v23.5h-2.35Z"/><path class="cls-3" d="M381.86,1616.69c-1.13,4.13-3.85,7.47-9.12,7.47-5.87,0-10.05-4.37-10.05-12.22,0-6.44,3.43-12.41,10.34-12.41a8.4,8.4,0,0,1,8.83,7.52h-2.4c-.7-2.72-2.49-5.31-6.48-5.31-5,0-7.8,4.23-7.8,10.11,0,5.59,2.63,10.1,7.56,10.1,3.43,0,5.5-1.74,6.72-5.26Z"/><path class="cls-3" d="M391.59,1612.22c2.16-2.3,8.74-9,11.89-12.12h3l-9.31,9.35,10.48,14.15h-2.91L395.49,1611l-3.9,3.76v8.89h-2.35V1589h2.35Z"/><path class="cls-3" d="M446.39,1611.8c0,6.53-3.62,12.36-10.62,12.36-6.35,0-10.29-5.22-10.29-12.31,0-6.72,3.71-12.32,10.52-12.32C442.26,1599.53,446.39,1604.42,446.39,1611.8Zm-18.42,0c0,5.59,3,10.1,8,10.1s7.94-4.18,7.94-10.1c0-5.55-2.82-10.11-8-10.11S428,1606.21,428,1611.85Z"/><path class="cls-3" d="M454.15,1606c0-2.07,0-4,0-5.92h2.3c.1.75.14,3.8.1,4.46,1-2.39,3-5,7.8-5,4.18,0,7.89,2.35,7.89,8.84v15.23h-2.35v-14.86c0-4.18-1.74-6.9-5.82-6.9-5.6,0-7.52,4.65-7.52,9.77v12h-2.35Z"/><path class="cls-3" d="M482.35,1612.13c0,6.06,3.1,9.82,7.61,9.82s5.92-2.49,6.77-4.42h2.39c-1,3.1-3.47,6.63-9.25,6.63-7.15,0-9.92-6.16-9.92-12.13,0-6.72,3.34-12.5,10.2-12.5,7.24,0,9.54,6.25,9.54,10.67,0,.66,0,1.32-.05,1.93Zm14.89-2.07c0-4.65-2.58-8.32-7.19-8.32-4.84,0-7.05,3.39-7.56,8.32Z"/><path class="cls-3" d="M540.53,1611.8c0,6.53-3.62,12.36-10.62,12.36-6.35,0-10.29-5.22-10.29-12.31,0-6.72,3.71-12.32,10.52-12.32C536.39,1599.53,540.53,1604.42,540.53,1611.8Zm-18.42,0c0,5.59,3,10.1,8,10.1s7.94-4.18,7.94-10.1c0-5.55-2.82-10.11-8-10.11S522.11,1606.21,522.11,1611.85Z"/><path class="cls-3" d="M549.27,1623.6v-21.29h-4v-2.21h4v-3.34c0-4,1.13-8.27,6.4-8.27a8.74,8.74,0,0,1,2.3.33v2.25a12.27,12.27,0,0,0-2.54-.28c-2.77,0-3.81,2-3.81,6.06v3.25h5.13v2.21h-5.13v21.29Z"/><path class="cls-3" d="M573,1600.1h4.37v-7.33h2.35v7.33h5.59v2.21h-5.59v15.27c0,2.63.56,4.14,2.82,4.14a8.7,8.7,0,0,0,2.44-.29v2.07a8.24,8.24,0,0,1-2.91.42c-3,0-4.7-1.5-4.7-5.26v-16.35H573Z"/><path class="cls-3" d="M594.25,1589V1604a8.21,8.21,0,0,1,7.76-4.51c3.33,0,7.94,1.69,7.94,9.12v14.95H607.6v-14.48c0-4.65-2.12-7.28-6-7.28-4.65,0-7.33,2.86-7.33,8.64v13.12H591.9V1589Z"/><path class="cls-3" d="M620.1,1612.13c0,6.06,3.1,9.82,7.61,9.82s5.93-2.49,6.77-4.42h2.4c-1,3.1-3.48,6.63-9.26,6.63-7.14,0-9.92-6.16-9.92-12.13,0-6.72,3.34-12.5,10.2-12.5,7.24,0,9.54,6.25,9.54,10.67,0,.66,0,1.32,0,1.93Zm14.9-2.07c0-4.65-2.59-8.32-7.19-8.32-4.84,0-7,3.39-7.57,8.32Z"/><path class="cls-3" d="M645.67,1617.11c.8,3.06,3,4.89,6.67,4.89,4.19,0,5.88-1.93,5.88-4.56s-1.13-4-6.39-5.26c-6.07-1.46-7.57-3.29-7.57-6.4s2.44-6.25,7.75-6.25,7.85,3.25,8.23,6.58h-2.35c-.43-2-2-4.41-6-4.41s-5.26,2-5.26,3.9c0,2.16,1.12,3.24,5.78,4.37,6.62,1.59,8.27,3.76,8.27,7.28,0,4.28-3.48,6.91-8.42,6.91-5.35,0-8.36-2.82-9-7.05Z"/><path class="cls-3" d="M669,1612.13c0,6.06,3.1,9.82,7.61,9.82s5.93-2.49,6.77-4.42h2.4c-1,3.1-3.48,6.63-9.26,6.63-7.14,0-9.92-6.16-9.92-12.13,0-6.72,3.34-12.5,10.2-12.5,7.24,0,9.54,6.25,9.54,10.67,0,.66,0,1.32,0,1.93Zm14.9-2.07c0-4.65-2.59-8.32-7.19-8.32-4.84,0-7.05,3.39-7.57,8.32Z"/><path class="cls-3" d="M187.8,1688.69c-1.13,4.13-3.85,7.47-9.11,7.47-5.88,0-10.06-4.37-10.06-12.22,0-6.44,3.43-12.41,10.34-12.41a8.39,8.39,0,0,1,8.83,7.52h-2.39c-.71-2.72-2.49-5.31-6.49-5.31-5,0-7.8,4.23-7.8,10.11,0,5.59,2.63,10.1,7.57,10.1,3.43,0,5.49-1.74,6.72-5.26Z"/><path class="cls-3" d="M211.49,1691.13a27.08,27.08,0,0,0,.33,4.47h-2.26a15.82,15.82,0,0,1-.42-3.62c-.8,1.74-2.87,4.18-7.71,4.18-5.45,0-7.8-3.53-7.8-7.05,0-5.17,4-7.52,11.05-7.52h4.46v-2.4c0-2.35-.7-5.49-6.06-5.49-4.75,0-5.45,2.49-6,4.41h-2.35c.28-2.58,1.88-6.58,8.37-6.58,5.35,0,8.36,2.26,8.36,7.43Zm-2.3-7.52h-4.61c-5.21,0-8.46,1.36-8.46,5.41,0,3,2.12,5,5.41,5,6.72,0,7.66-4.47,7.66-9.54Z"/><path class="cls-3" d="M217.41,1672.1h4.37v-7.33h2.35v7.33h5.6v2.21h-5.6v15.27c0,2.63.57,4.14,2.82,4.14a8.72,8.72,0,0,0,2.45-.29v2.07a8.26,8.26,0,0,1-2.92.42c-3,0-4.7-1.5-4.7-5.26v-16.35h-4.37Z"/><path class="cls-3" d="M236.68,1684.13c0,6.06,3.11,9.82,7.62,9.82s5.92-2.49,6.76-4.42h2.4c-1,3.1-3.48,6.63-9.26,6.63-7.14,0-9.91-6.16-9.91-12.13,0-6.72,3.33-12.5,10.19-12.5,7.24,0,9.55,6.25,9.55,10.67,0,.66,0,1.32-.05,1.93Zm14.9-2.07c-.05-4.65-2.58-8.32-7.19-8.32-4.84,0-7,3.39-7.57,8.32Z"/><path class="cls-3" d="M280.16,1694c0,7.52-3.34,11.46-10.15,11.46-6.11,0-8.65-3.43-9.22-7h2.4c.85,3.25,3.53,4.8,6.91,4.8,6.11,0,7.8-4,7.8-9.92v-2.44c-1.27,3-3.57,4.7-7.85,4.7-5.5,0-9.73-4.47-9.73-11.75,0-7.9,4.52-12.32,10.06-12.32,4.79,0,6.86,2.26,7.52,4.14.05-1.36.1-3,.14-3.57h2.21c0,.84-.09,4.56-.09,6.81Zm-17.35-10.25c0,5.59,3,9.64,7.48,9.64,5.87,0,7.66-3.9,7.66-10s-1.88-9.64-7.52-9.64C265,1673.74,262.81,1678.39,262.81,1683.75Z"/><path class="cls-3" d="M308.83,1683.8c0,6.53-3.62,12.36-10.63,12.36-6.34,0-10.29-5.22-10.29-12.31,0-6.72,3.72-12.32,10.53-12.32C304.69,1671.53,308.83,1676.42,308.83,1683.8Zm-18.43,0c0,5.59,3,10.1,8,10.1s7.94-4.18,7.94-10.1c0-5.55-2.81-10.11-8-10.11S290.4,1678.21,290.4,1683.85Z"/><path class="cls-3" d="M316.58,1678.49c0-4-.05-5.64-.05-6.39h2.31c0,.75.09,2.25.09,5.26a8.91,8.91,0,0,1,8.18-5.83v2.54c-4.89.33-8.18,3.71-8.18,9.31v12.22h-2.35Z"/><path class="cls-3" d="M333.36,1661h2.35v4.56h-2.35Zm0,11.14h2.35v23.5h-2.35Z"/><path class="cls-3" d="M345.86,1684.13c.05,6.06,3.1,9.82,7.62,9.82s5.92-2.49,6.76-4.42h2.4c-1,3.1-3.48,6.63-9.26,6.63-7.14,0-9.92-6.16-9.92-12.13,0-6.72,3.34-12.5,10.2-12.5,7.24,0,9.54,6.25,9.54,10.67,0,.66,0,1.32,0,1.93Zm14.9-2.07c-.05-4.65-2.58-8.32-7.19-8.32-4.84,0-7.05,3.39-7.57,8.32Z"/><path class="cls-3" d="M371.43,1689.11c.8,3.06,3,4.89,6.67,4.89,4.19,0,5.88-1.93,5.88-4.56s-1.13-4-6.39-5.26c-6.07-1.46-7.57-3.29-7.57-6.4s2.44-6.25,7.75-6.25,7.85,3.25,8.23,6.58h-2.35c-.42-2-2-4.41-6-4.41s-5.26,2-5.26,3.9c0,2.16,1.12,3.24,5.78,4.37,6.62,1.59,8.27,3.76,8.27,7.28,0,4.28-3.48,6.91-8.41,6.91-5.36,0-8.37-2.82-9-7.05Z"/><path class="cls-3" d="M404.85,1672.1h4.37v-7.33h2.35v7.33h5.59v2.21h-5.59v15.27c0,2.63.56,4.14,2.82,4.14a8.7,8.7,0,0,0,2.44-.29v2.07a8.24,8.24,0,0,1-2.91.42c-3,0-4.7-1.5-4.7-5.26v-16.35h-4.37Z"/><path class="cls-3" d="M442.63,1683.8c0,6.53-3.62,12.36-10.62,12.36-6.34,0-10.29-5.22-10.29-12.31,0-6.72,3.71-12.32,10.53-12.32C438.5,1671.53,442.63,1676.42,442.63,1683.8Zm-18.42,0c0,5.59,3,10.1,8,10.1s7.94-4.18,7.94-10.1c0-5.55-2.82-10.11-8-10.11S424.21,1678.21,424.21,1683.85Z"/><path class="cls-3" d="M463.92,1672.1c3.81,10.76,6.44,18.09,7.33,21.1h.05c.52-1.74,3.15-8.74,7.71-21.1h2.49l-8.88,23.5H469.8l-8.37-23.5Z"/><path class="cls-3" d="M488.17,1661h2.35v4.56h-2.35Zm0,11.14h2.35v23.5h-2.35Z"/><path class="cls-3" d="M500.68,1684.13c0,6.06,3.1,9.82,7.61,9.82s5.92-2.49,6.77-4.42h2.4c-1,3.1-3.48,6.63-9.26,6.63-7.15,0-9.92-6.16-9.92-12.13,0-6.72,3.34-12.5,10.2-12.5,7.24,0,9.54,6.25,9.54,10.67,0,.66,0,1.32,0,1.93Zm14.9-2.07c-.05-4.65-2.59-8.32-7.2-8.32-4.84,0-7.05,3.39-7.56,8.32Z"/><path class="cls-3" d="M526.1,1672.1c3.48,12.12,5.5,19.08,5.88,21.15h0c.37-1.88,2.72-9.26,6.39-21.15H541c4.37,14.52,5.68,18.7,6.1,20.53h.05c.66-2.58,1.74-6.1,6.06-20.53h2.49l-7.42,23.5h-2.59c-2.53-8.32-5.59-18.52-6.06-20.68h-.05c-.47,2.3-3.14,10.71-6.2,20.68h-2.82l-6.91-23.5Z"/><path class="cls-3" d="M577,1678.16c0-2,0-4.23,0-6.06h2.3c0,.8.14,2.82.09,4.18a7.36,7.36,0,0,1,7-4.75c3.29,0,5.88,1.65,6.82,4.66a8,8,0,0,1,7.66-4.66c3.62,0,7.38,2.07,7.38,8.6v15.47h-2.35v-15.18c0-3.15-1.13-6.58-5.5-6.58-4.56,0-6.63,3.66-6.63,8.22v13.54h-2.3v-15.14c0-3.43-1-6.62-5.36-6.62-4.56,0-6.77,4-6.77,8.83v12.93H577Z"/><path class="cls-3" d="M617.09,1672.1c4.75,13.44,6.82,19,7.62,21.52h0c1-2.87,2.82-8.32,7.38-21.52h2.45L625.74,1697c-2.49,7-4.18,8.5-8.41,8.5a14.7,14.7,0,0,1-2.16-.14V1703a14.46,14.46,0,0,0,2.11.15c3.39,0,4.47-1.65,6.21-6.49l-9-24.53Z"/><path class="cls-3" d="M657.51,1692.12V1705h-2.35v-27.12c0-1.93,0-4,0-5.78h2.3c.09.89.09,2.3.09,4.23a8.65,8.65,0,0,1,8.28-4.8c5.54,0,9.39,4.66,9.39,11.71,0,8.46-4.51,12.92-10.19,12.92C660.85,1696.16,658.69,1694.33,657.51,1692.12Zm15.18-8.79c0-5.45-2.63-9.54-7.28-9.54-5.69,0-8,3.57-8,10s1.84,10.2,7.71,10.2C670,1694,672.69,1689.82,672.69,1683.33Z"/><path class="cls-3" d="M683,1678.49c0-4,0-5.64,0-6.39h2.3c0,.75.1,2.25.1,5.26a8.91,8.91,0,0,1,8.17-5.83v2.54c-4.88.33-8.17,3.71-8.17,9.31v12.22H683Z"/><path class="cls-3" d="M718.8,1683.8c0,6.53-3.62,12.36-10.62,12.36-6.35,0-10.29-5.22-10.29-12.31,0-6.72,3.71-12.32,10.52-12.32C714.66,1671.53,718.8,1676.42,718.8,1683.8Zm-18.42,0c0,5.59,3,10.1,8,10.1s7.94-4.18,7.94-10.1c0-5.55-2.82-10.11-8-10.11S700.38,1678.21,700.38,1683.85Z"/><path class="cls-3" d="M729.33,1672.1v25.14c0,6.34-1.6,8.22-5.74,8.22-.09,0-1,0-1.31-.09v-2.21a8.48,8.48,0,0,0,1.08,0c3.34,0,3.62-1.88,3.62-5.69V1672.1Zm-2.35-6.58V1661h2.35v4.56Z"/><path class="cls-3" d="M739.48,1684.13c0,6.06,3.1,9.82,7.61,9.82s5.92-2.49,6.77-4.42h2.4c-1,3.1-3.48,6.63-9.26,6.63-7.14,0-9.92-6.16-9.92-12.13,0-6.72,3.34-12.5,10.2-12.5,7.24,0,9.54,6.25,9.54,10.67,0,.66,0,1.32-.05,1.93Zm14.9-2.07c0-4.65-2.59-8.32-7.19-8.32-4.84,0-7.05,3.39-7.57,8.32Z"/><path class="cls-3" d="M782,1688.69c-1.13,4.13-3.85,7.47-9.11,7.47-5.88,0-10.06-4.37-10.06-12.22,0-6.44,3.43-12.41,10.34-12.41a8.39,8.39,0,0,1,8.83,7.52h-2.39c-.71-2.72-2.49-5.31-6.49-5.31-5,0-7.8,4.23-7.8,10.11,0,5.59,2.63,10.1,7.57,10.1,3.43,0,5.49-1.74,6.72-5.26Z"/><path class="cls-3" d="M786.43,1672.1h4.37v-7.33h2.35v7.33h5.59v2.21h-5.59v15.27c0,2.63.57,4.14,2.82,4.14a8.77,8.77,0,0,0,2.45-.29v2.07a8.26,8.26,0,0,1-2.92.42c-3,0-4.7-1.5-4.7-5.26v-16.35h-4.37Z"/><path class="cls-3" d="M806.26,1689.11c.8,3.06,3,4.89,6.68,4.89,4.18,0,5.87-1.93,5.87-4.56s-1.12-4-6.39-5.26c-6.06-1.46-7.56-3.29-7.56-6.4s2.44-6.25,7.75-6.25,7.85,3.25,8.22,6.58h-2.35c-.42-2-2-4.41-6-4.41s-5.27,2-5.27,3.9c0,2.16,1.13,3.24,5.78,4.37,6.63,1.59,8.27,3.76,8.27,7.28,0,4.28-3.47,6.91-8.41,6.91-5.36,0-8.36-2.82-9-7.05Z"/><path class="cls-3" d="M832.35,1685.07l-.24-16.54v-5.83h2.59v5.83l-.24,16.54Zm-.19,10.57v-5.59h2.4v5.59Z"/><g id="Artwork_6" data-name="Artwork 6"><g class="cls-4"><rect class="cls-2" x="1" width="1024" height="768"/><g class="cls-4"><path class="cls-5" d="M619,244.86c-.66.71-15.31,15.87-36.21,13.35a35.67,35.67,0,0,1-27.12-18.11c-14.21,12-31.89,14.9-42.25,8.56-7.89-4.82-9.22-13.62-9.33-14.41-1.23-9.09,4-18.8,13.46-25.12-2.34-2.33-8.37-9-7-17.17,2-11.56,18.35-22.86,39.74-22.37,1.12-2.37,5.72-11.4,15.76-15.16,12.41-4.63,28.35.58,36.69,13.87,11.88-6.3,26.17-5.67,35.76,1.47,10.7,8,13.5,22.49,6.43,34.95.66.12,16.23,3.2,19.4,14.88,3.34,12.31-9.26,26.25-23,29.37-11.27,2.55-20.31-2.83-22.34-4.11"/><path class="cls-6" d="M615.94,237.26c-.65.69-15.13,15.58-35.73,13.15a34.87,34.87,0,0,1-26.69-17.67c-14,11.75-31.47,14.68-41.67,8.49-7.76-4.71-9.06-13.32-9.16-14.09-1.19-8.9,4-18.43,13.32-24.65-2.3-2.27-8.22-8.81-6.82-16.8,2-11.33,18.14-22.43,39.23-22,1.11-2.32,5.67-11.18,15.57-14.88,12.24-4.57,27.94.5,36.13,13.49,11.73-6.19,25.81-5.62,35.26,1.36,10.52,7.77,13.25,22,6.25,34.22.65.12,16,3.09,19.09,14.53,3.26,12-9.2,25.73-22.77,28.82-11.11,2.53-20-2.72-22-4"/><path class="cls-7" d="M244.5,448.89c1.56,1.89,20.77,24.39,51.5,21.5,32-3,46.6-30.73,47.5-32.5a156.13,156.13,0,0,0,15.5,9.5c18.37,9.81,54.16,28.93,81.5,15.5,29.1-14.31,32.26-57.44,32.5-61.5,7.07,2.62,22.57,7.24,41,3,20.87-4.81,45.35-20.94,50-45,5.46-28.28-17.42-62.63-57-72a45.52,45.52,0,0,0,22-12c16.1-16.42,14.5-43,7-60-12.24-27.81-43.88-34.39-56-37-27.29-5.89-49.85,1.62-59.5,5.5,1.4-5.9,2.5-14.85-1-24-10.77-28.14-54.53-30.74-59-31-45.51-2.7-77.68,33.77-83,40a73.81,73.81,0,0,0-25-15c-30-10.51-74.18-2.92-95,31-14.51,23.62-14.18,54.32,0,80-5.57-2.79-20-9-35-4-24,8-35.94,40.07-29,66,7.38,27.57,35,43.68,59,43a55.55,55.55,0,0,0,25-7,75.37,75.37,0,0,0-16,33c-1.15,5.68-6.87,33.81,9,51,15.22,16.47,46.45,18.72,74,2"/><path class="cls-8" d="M244.5,448.89c1.56,1.89,20.77,24.39,51.5,21.5,32-3,46.6-30.73,47.5-32.5a156.13,156.13,0,0,0,15.5,9.5c18.37,9.81,54.16,28.93,81.5,15.5,29.1-14.31,32.26-57.44,32.5-61.5,7.07,2.62,22.57,7.24,41,3,20.87-4.81,45.35-20.94,50-45,5.46-28.28-17.42-62.63-57-72a45.52,45.52,0,0,0,22-12c16.1-16.42,14.5-43,7-60-12.24-27.81-43.88-34.39-56-37-27.29-5.89-49.85,1.62-59.5,5.5,1.4-5.9,2.5-14.85-1-24-10.77-28.14-54.53-30.74-59-31-45.51-2.7-77.68,33.77-83,40a73.81,73.81,0,0,0-25-15c-30-10.51-74.18-2.92-95,31-14.51,23.62-14.18,54.32,0,80-5.57-2.79-20-9-35-4-24,8-35.94,40.07-29,66,7.38,27.57,35,43.68,59,43a55.55,55.55,0,0,0,25-7,75.37,75.37,0,0,0-16,33c-1.15,5.68-6.87,33.81,9,51C185.72,463.36,217,465.61,244.5,448.89Z"/><path class="cls-9" d="M248.35,455.43c1.72,1.69,22.77,21.71,50.9,14.75,29.27-7.23,38.92-36.93,39.51-38.83a141.72,141.72,0,0,0,15.75,7.48c18.46,7.41,54.43,21.86,77.92,4.79,25-18.17,21.79-61.82,21.44-65.92,6.94,1.7,22,4.28,38.51-2.4,18.71-7.57,39.16-27,40-51.69,1.05-29.05-25.08-60.46-63.19-64.64A41.69,41.69,0,0,0,488,244c12.62-18.57,7.36-45-2-61-15.32-26.25-45.66-28.67-57.29-29.69-26.18-2.3-46.08,8.19-54.49,13.35.46-6.09.22-15.2-4.34-23.92-14-26.78-55-23.61-59.22-23.28-42.66,3.29-67.36,44.09-71.42,51a68.62,68.62,0,0,0-25.36-11.74c-29.36-6.57-69.32,6.86-83.84,43.59-10.11,25.59-5.45,56.31,11.38,80.17-5.57-2.05-19.85-6.38-33.08.61-21.12,11.16-27.69,44.9-17.56,70,10.78,26.66,38.7,39.16,60.93,35.31a49.33,49.33,0,0,0,22.23-10.31,78.73,78.73,0,0,0-10.17,35.18c-.27,5.84-1.57,34.8,15.61,49.92,16.48,14.51,45.82,12.64,69-7.75"/><path class="cls-8" d="M248.35,455.43c1.72,1.69,22.77,21.71,50.9,14.75,29.27-7.23,38.92-36.93,39.51-38.83a141.72,141.72,0,0,0,15.75,7.48c18.46,7.41,54.43,21.86,77.92,4.79,25-18.17,21.79-61.82,21.44-65.92,6.94,1.7,22,4.28,38.51-2.4,18.71-7.57,39.16-27,40-51.69,1.05-29.05-25.08-60.46-63.19-64.64A41.69,41.69,0,0,0,488,244c12.62-18.57,7.36-45-2-61-15.32-26.25-45.66-28.67-57.29-29.69-26.18-2.3-46.08,8.19-54.49,13.35.46-6.09.22-15.2-4.34-23.92-14-26.78-55-23.61-59.22-23.28-42.66,3.29-67.36,44.09-71.42,51a68.62,68.62,0,0,0-25.36-11.74c-29.36-6.57-69.32,6.86-83.84,43.59-10.11,25.59-5.45,56.31,11.38,80.17-5.57-2.05-19.85-6.38-33.08.61-21.12,11.16-27.69,44.9-17.56,70,10.78,26.66,38.7,39.16,60.93,35.31a49.33,49.33,0,0,0,22.23-10.31,78.73,78.73,0,0,0-10.17,35.18c-.27,5.84-1.57,34.8,15.61,49.92C195.8,477.69,225.14,475.82,248.35,455.43Z"/><polygon class="cls-10" points="359 768 280 768 309 405 343 405 359 768"/><polygon class="cls-10" points="439.4 264.48 339.21 462.28 311.96 444.5 439.4 264.48"/><polygon class="cls-10" points="294.45 210.6 348.21 444.47 305.79 450.3 294.45 210.6"/><polygon class="cls-10" points="193.61 305.24 330.66 420.83 309.21 442.29 193.61 305.24"/><path class="cls-11" d="M203.77,323.51c3-4.37,5-2.66,7.83-1.16,3.72,2,3.45,9.23.84,13.55-3.22,5.32-9.44,5.36-10.65,5.36-6,0-13-4.42-13.23-11.61-.22-5.87,4-13.16,7.47-13,2.58.11,7.28,1,7.74,6.86"/><path class="cls-8" d="M203.77,323.51c3-4.37,5-2.66,7.83-1.16,3.72,2,3.45,9.23.84,13.55-3.22,5.32-9.44,5.36-10.65,5.36-6,0-13-4.42-13.23-11.61-.22-5.87,4-13.16,7.47-13C198.61,316.76,203.31,317.61,203.77,323.51Z"/><path class="cls-11" d="M249.79,373.18c2.33-4.77,4.58-3.39,7.56-2.32,4,1.43,4.79,8.62,2.85,13.28-2.39,5.74-8.54,6.7-9.73,6.89-5.95.93-13.48-2.45-14.81-9.52-1.1-5.77,2-13.61,5.45-14,2.57-.27,7.35-.13,8.68,5.64"/><path class="cls-8" d="M249.79,373.18c2.33-4.77,4.58-3.39,7.56-2.32,4,1.43,4.79,8.62,2.85,13.28-2.39,5.74-8.54,6.7-9.73,6.89-5.95.93-13.48-2.45-14.81-9.52-1.1-5.77,2-13.61,5.45-14C243.68,367.27,248.46,367.41,249.79,373.18Z"/><path class="cls-11" d="M396.22,354c1.19-5.17,3.7-4.33,6.85-4,4.19.49,6.6,7.31,5.76,12.3-1,6.12-6.81,8.45-7.92,8.9-5.59,2.25-13.68.65-16.58-5.94-2.37-5.37-1.12-13.71,2.16-14.83,2.44-.85,7.13-1.79,9.73,3.53"/><path class="cls-8" d="M396.22,354c1.19-5.17,3.7-4.33,6.85-4,4.19.49,6.6,7.31,5.76,12.3-1,6.12-6.81,8.45-7.92,8.9-5.59,2.25-13.68.65-16.58-5.94-2.37-5.37-1.12-13.71,2.16-14.83C388.93,349.58,393.62,348.64,396.22,354Z"/><path class="cls-11" d="M223,257c1.75-5,4.15-3.91,7.24-3.2,4.12,1,5.78,8,4.4,12.85-1.69,6-7.68,7.66-8.84,8-5.8,1.64-13.67-.82-15.84-7.69-1.77-5.6.37-13.75,3.75-14.51,2.52-.58,7.28-1,9.29,4.56"/><path class="cls-8" d="M223,257c1.75-5,4.15-3.91,7.24-3.2,4.12,1,5.78,8,4.4,12.85-1.69,6-7.68,7.66-8.84,8-5.8,1.64-13.67-.82-15.84-7.69-1.77-5.6.37-13.75,3.75-14.51C216.2,251.88,221,251.45,223,257Z"/><path class="cls-11" d="M326.22,289c1.19-5.17,3.7-4.33,6.85-4,4.19.49,6.6,7.31,5.76,12.3-1,6.12-6.81,8.45-7.92,8.9-5.59,2.25-13.68.65-16.58-5.94-2.37-5.37-1.12-13.71,2.16-14.83,2.44-.85,7.13-1.79,9.73,3.53"/><path class="cls-8" d="M326.22,289c1.19-5.17,3.7-4.33,6.85-4,4.19.49,6.6,7.31,5.76,12.3-1,6.12-6.81,8.45-7.92,8.9-5.59,2.25-13.68.65-16.58-5.94-2.37-5.37-1.12-13.71,2.16-14.83C318.93,284.58,323.62,283.64,326.22,289Z"/><path class="cls-11" d="M429.8,293.07c.12-5.3,2.74-5,5.9-5.27,4.21-.36,8,5.82,8.14,10.87.23,6.21-4.95,9.66-5.95,10.33-5,3.34-13.26,3.42-17.44-2.45-3.41-4.78-3.88-13.19-.89-15,2.22-1.32,6.61-3.2,10.24,1.48"/><path class="cls-8" d="M429.8,293.07c.12-5.3,2.74-5,5.9-5.27,4.21-.36,8,5.82,8.14,10.87.23,6.21-4.95,9.66-5.95,10.33-5,3.34-13.26,3.42-17.44-2.45-3.41-4.78-3.88-13.19-.89-15C421.78,290.27,426.17,288.39,429.8,293.07Z"/><path class="cls-11" d="M378.87,232.06c.17-5.3,2.79-5,5.95-5.21,4.21-.33,7.9,5.9,8,11,.17,6.21-5,9.61-6.05,10.27-5.05,3.29-13.29,3.28-17.41-2.62-3.36-4.82-3.75-13.24-.75-15,2.23-1.3,6.65-3.13,10.23,1.59"/><path class="cls-8" d="M378.87,232.06c.17-5.3,2.79-5,5.95-5.21,4.21-.33,7.9,5.9,8,11,.17,6.21-5,9.61-6.05,10.27-5.05,3.29-13.29,3.28-17.41-2.62-3.36-4.82-3.75-13.24-.75-15C370.87,229.17,375.29,227.34,378.87,232.06Z"/><path class="cls-11" d="M293.25,238.31c2.65-4.6,4.8-3.06,7.7-1.79,3.87,1.7,4.19,8.92,1.93,13.44-2.77,5.56-9,6.1-10.18,6.21-6,.52-13.27-3.36-14.12-10.51-.7-5.83,2.93-13.44,6.39-13.57,2.58-.09,7.34.38,8.28,6.22"/><path class="cls-8" d="M293.25,238.31c2.65-4.6,4.8-3.06,7.7-1.79,3.87,1.7,4.19,8.92,1.93,13.44-2.77,5.56-9,6.1-10.18,6.21-6,.52-13.27-3.36-14.12-10.51-.7-5.83,2.93-13.44,6.39-13.57C287.55,232,292.31,232.47,293.25,238.31Z"/><path class="cls-12" d="M1,768a735.29,735.29,0,0,1,142-43c188-36.62,347.12,9.4,434,43Z"/><path class="cls-13" d="M359,768a735.29,735.29,0,0,1,142-43c188-36.62,347.12,9.4,434,43Z"/><path class="cls-14" d="M1025,726.47v41H622.06a571.16,571.16,0,0,1,126.61-46.82c105.51-25.11,200.85-14.54,276.33,5.86"/><path class="cls-5" d="M775.07,90.85c5.85-22.61,25.2-38.47,47.06-38.85,20.58-.35,39.48,13.08,47.06,33.6a39,39,0,0,1,17-8.4c12.63-2.6,30.69.8,38,14.7,1.42,2.67,4,8.66,3,17.85a28.52,28.52,0,0,1,16-3.15c3.46.36,13.46,2.08,19,10.5,6.86,10.39,3.12,25.1-3,33.6-12.54,17.39-37.37,12-39,11.55a41.43,41.43,0,0,1-14-6.3,72.12,72.12,0,0,1-24,12.6c-7.18,2.15-21.89,6.55-38.05,0a51.38,51.38,0,0,1-19-13.65c-1.07,1-18.74,16.53-40,9.45-14.34-4.77-21.32-16.79-23-19.95-20.56,5.52-36.8-6-38-16.8-1-8.42,6.87-18.79,19-24.15-3-11.38,3.87-22.36,13-24.15,7.35-1.44,15.51,3.2,19,11.55"/><path class="cls-6" d="M772,89c5.84-21.53,25.17-36.64,47-37a49.85,49.85,0,0,1,47,32,39.78,39.78,0,0,1,17-8c12.61-2.47,30.64.76,38,14,1.41,2.54,4,8.24,3,17a29.63,29.63,0,0,1,16-3c3.46.34,13.44,2,19,10,6.86,9.89,3.12,23.91-3,32-12.53,16.56-37.33,11.38-39,11a42.31,42.31,0,0,1-14-6,73.4,73.4,0,0,1-24,12c-7.17,2.05-21.86,6.24-38,0a51.26,51.26,0,0,1-19-13c-1.07.93-18.72,15.75-40,9-14.33-4.54-21.29-16-23-19-20.53,5.26-36.75-5.72-38-16-1-8,6.86-17.9,19-23-3-10.84,3.87-21.3,13-23,7.34-1.37,15.48,3,19,11"/></g><g class="cls-15"><path class="cls-5" d="M63.84,97.61A21,21,0,0,1,80.5,80.48c10.55-1.85,18,5.92,18.59,6.51,10-10.25,23.64-13.41,33.3-8.39a23.16,23.16,0,0,1,10,10.9c9.15-7.26,22-4.64,27,3.58,4.16,6.84,2.5,16.91-4.78,23,.57,1.17,4.33,9.25.82,14.91-4,6.51-17,8.76-29.07.56a19.7,19.7,0,0,1-5.47,6.17c-7.62,5.53-20.22,5.75-26-.93a13.61,13.61,0,0,1-3.06-6.5l-8.25,3.84S83.27,137,77,133.81c-2.37-1.21-5.09-3.77-6.91-9.57-8.49,2.75-16.9-1.34-19.21-7.34-2.67-6.94,2.49-17.28,13-19.29"/><path class="cls-6" d="M67.7,95.5A21,21,0,0,1,84.35,78.37c10.55-1.85,18.05,5.93,18.59,6.51,10-10.25,23.64-13.41,33.3-8.39a23.16,23.16,0,0,1,10,10.9c9.15-7.26,22-4.64,27,3.58,4.17,6.84,2.5,16.91-4.77,23,.56,1.18,4.32,9.25.82,14.91-4,6.51-17,8.76-29.08.56a19.7,19.7,0,0,1-5.47,6.17c-7.62,5.53-20.22,5.75-26-.93a13.71,13.71,0,0,1-3.06-6.5L97.36,132s-10.24,2.92-16.52-.3c-2.37-1.21-5.09-3.77-6.91-9.57-8.49,2.76-16.9-1.34-19.21-7.34-2.67-6.94,2.5-17.27,13-19.29"/></g><g class="cls-4"><path class="cls-16" d="M869.39,707.15l-.46-.13c-2.92-.83-4.1-4.51-2.07-6.44l7-6.1-.26,8.61a3.34,3.34,0,0,1-4.26,4.06"/><line class="cls-17" x1="796" y1="677.08" x2="796" y2="711.06"/><line class="cls-17" x1="947.5" y1="672.5" x2="947" y2="711.06"/><line class="cls-17" x1="866.73" y1="680.5" x2="866.5" y2="721.5"/><line class="cls-18" x1="796.51" y1="670.49" x2="798.54" y2="662.43"/><line class="cls-19" x1="796.51" y1="670.49" x2="798.54" y2="662.43"/><line class="cls-18" x1="798.82" y1="683.62" x2="796.54" y2="675.63"/><line class="cls-19" x1="798.82" y1="683.62" x2="796.54" y2="675.63"/><line class="cls-18" x1="795.07" y1="670.46" x2="792.79" y2="662.47"/><line class="cls-19" x1="795.07" y1="670.46" x2="792.79" y2="662.47"/><line class="cls-18" x1="797.99" y1="671.3" x2="803.78" y2="665.33"/><line class="cls-19" x1="797.99" y1="671.3" x2="803.78" y2="665.33"/><line class="cls-18" x1="803.82" y1="681.11" x2="797.85" y2="675.33"/><line class="cls-19" x1="803.82" y1="681.11" x2="797.85" y2="675.33"/><line class="cls-18" x1="787.92" y1="665.45" x2="793.89" y2="671.23"/><line class="cls-19" x1="787.92" y1="665.45" x2="793.89" y2="671.23"/><line class="cls-18" x1="795.27" y1="676.06" x2="793.24" y2="684.13"/><line class="cls-19" x1="795.27" y1="676.06" x2="793.24" y2="684.13"/><line class="cls-18" x1="794.13" y1="675.43" x2="788.34" y2="681.4"/><line class="cls-19" x1="794.13" y1="675.43" x2="788.34" y2="681.4"/><line class="cls-18" x1="806.45" y1="670.27" x2="798.46" y2="672.54"/><line class="cls-19" x1="806.45" y1="670.27" x2="798.46" y2="672.54"/><line class="cls-18" x1="793.35" y1="674.25" x2="785.36" y2="676.53"/><line class="cls-19" x1="793.35" y1="674.25" x2="785.36" y2="676.53"/><line class="cls-18" x1="806.54" y1="676.27" x2="798.48" y2="674.24"/><line class="cls-19" x1="806.54" y1="676.27" x2="798.48" y2="674.24"/><line class="cls-18" x1="785.2" y1="670.35" x2="793.26" y2="672.37"/><line class="cls-19" x1="785.2" y1="670.35" x2="793.26" y2="672.37"/><line class="cls-20" x1="867.6" y1="674.42" x2="869.3" y2="666.28"/><line class="cls-21" x1="867.6" y1="674.42" x2="869.3" y2="666.28"/><line class="cls-20" x1="870.44" y1="687.45" x2="867.84" y2="679.55"/><line class="cls-21" x1="870.44" y1="687.45" x2="867.84" y2="679.55"/><line class="cls-20" x1="866.16" y1="674.45" x2="863.56" y2="666.55"/><line class="cls-21" x1="866.16" y1="674.45" x2="863.56" y2="666.55"/><line class="cls-20" x1="869.12" y1="675.17" x2="874.65" y2="668.97"/><line class="cls-21" x1="869.12" y1="675.17" x2="874.65" y2="668.97"/><line class="cls-20" x1="875.34" y1="684.73" x2="869.14" y2="679.2"/><line class="cls-21" x1="875.34" y1="684.73" x2="869.14" y2="679.2"/><line class="cls-20" x1="858.81" y1="669.73" x2="865.01" y2="675.27"/><line class="cls-21" x1="858.81" y1="669.73" x2="865.01" y2="675.27"/><line class="cls-20" x1="866.59" y1="680.04" x2="864.89" y2="688.18"/><line class="cls-21" x1="866.59" y1="680.04" x2="864.89" y2="688.18"/><line class="cls-20" x1="865.42" y1="679.45" x2="859.88" y2="685.65"/><line class="cls-21" x1="865.42" y1="679.45" x2="859.88" y2="685.65"/><line class="cls-20" x1="877.52" y1="673.79" x2="869.63" y2="676.39"/><line class="cls-21" x1="877.52" y1="673.79" x2="869.63" y2="676.39"/><line class="cls-20" x1="864.6" y1="678.31" x2="856.7" y2="680.91"/><line class="cls-21" x1="864.6" y1="678.31" x2="856.7" y2="680.91"/><line class="cls-20" x1="877.86" y1="679.78" x2="869.72" y2="678.09"/><line class="cls-21" x1="877.86" y1="679.78" x2="869.72" y2="678.09"/><line class="cls-20" x1="856.29" y1="674.74" x2="864.43" y2="676.43"/><line class="cls-21" x1="856.29" y1="674.74" x2="864.43" y2="676.43"/><line class="cls-20" x1="947.72" y1="663.45" x2="949.78" y2="655.4"/><line class="cls-22" x1="947.72" y1="663.45" x2="949.78" y2="655.4"/><line class="cls-20" x1="949.96" y1="676.59" x2="947.72" y2="668.59"/><line class="cls-22" x1="949.96" y1="676.59" x2="947.72" y2="668.59"/><line class="cls-20" x1="946.28" y1="663.41" x2="944.04" y2="655.41"/><line class="cls-22" x1="946.28" y1="663.41" x2="944.04" y2="655.41"/><line class="cls-20" x1="949.2" y1="664.26" x2="955.01" y2="658.32"/><line class="cls-22" x1="949.2" y1="664.26" x2="955.01" y2="658.32"/><line class="cls-20" x1="954.98" y1="674.1" x2="949.04" y2="668.29"/><line class="cls-22" x1="954.98" y1="674.1" x2="949.04" y2="668.29"/><line class="cls-20" x1="939.15" y1="658.37" x2="945.09" y2="664.18"/><line class="cls-22" x1="939.15" y1="658.37" x2="945.09" y2="664.18"/><line class="cls-20" x1="946.45" y1="669.02" x2="944.39" y2="677.07"/><line class="cls-22" x1="946.45" y1="669.02" x2="944.39" y2="677.07"/><line class="cls-20" x1="945.31" y1="668.38" x2="939.5" y2="674.32"/><line class="cls-22" x1="945.31" y1="668.38" x2="939.5" y2="674.32"/><line class="cls-20" x1="957.66" y1="663.27" x2="949.66" y2="665.51"/><line class="cls-22" x1="957.66" y1="663.27" x2="949.66" y2="665.51"/><line class="cls-20" x1="944.54" y1="667.2" x2="936.54" y2="669.43"/><line class="cls-22" x1="944.54" y1="667.2" x2="936.54" y2="669.43"/><line class="cls-20" x1="957.72" y1="669.27" x2="949.67" y2="667.21"/><line class="cls-22" x1="957.72" y1="669.27" x2="949.67" y2="667.21"/><line class="cls-20" x1="936.4" y1="663.25" x2="944.45" y2="665.32"/><line class="cls-22" x1="936.4" y1="663.25" x2="944.45" y2="665.32"/><path class="cls-16" d="M793.34,700.3l.43-.07c2.75-.38,3.39-3.77,1.13-5.93l-7.76-6.87,1.46,8.35a4.38,4.38,0,0,0,4.74,4.52"/><path class="cls-16" d="M798.92,699.9l-.47-.23a4.12,4.12,0,0,1-.22-7.27l9.72-5.12-3,9.13a4.16,4.16,0,0,1-6,3.49"/><path class="cls-16" d="M863.36,705.15l.46-.13c2.92-.83,4.1-4.51,2.07-6.44l-7-6.1.26,8.61a3.34,3.34,0,0,0,4.26,4.06"/><path class="cls-16" d="M949.14,694l-.35-.25c-2.21-1.53-1.17-4.7,1.83-5.54l10-2.45-5.23,6.48a4.49,4.49,0,0,1-6.27,1.76"/><path class="cls-16" d="M947.1,694l.35-.25c2.21-1.53,1.17-4.7-1.83-5.54l-10-2.45,5.22,6.48A4.49,4.49,0,0,0,947.1,694"/></g></g></g></g><g id="text"><rect class="cls-23" x="1.5" y="0.5" width="1023" height="67"/><path d="M1024,1V67H2V1H1024m1-1H1V68H1025V0Z"/><path class="cls-24" d="M633.94,27.42h4.5c2.3,0,3.89,1.28,3.89,3.51s-1.57,3.6-4,3.6h-3.38V40h-1Zm1,6.21h3.47c2,0,2.88-1.08,2.88-2.67a2.51,2.51,0,0,0-2.8-2.64h-3.55Z"/><path class="cls-24" d="M651.49,35.5c0,2.5-1.39,4.74-4.07,4.74-2.43,0-3.94-2-3.94-4.72s1.42-4.72,4-4.72C649.91,30.8,651.49,32.68,651.49,35.5Zm-7.06,0c0,2.14,1.15,3.87,3.06,3.87s3-1.6,3-3.87-1.08-3.87-3.08-3.87S644.43,33.36,644.43,35.52Z"/><path class="cls-24" d="M653.72,33.47c0-1.51,0-2.16,0-2.45h.88c0,.29,0,.86,0,2a3.42,3.42,0,0,1,3.13-2.24v1a3.25,3.25,0,0,0-3.13,3.56V40h-.9Z"/><path class="cls-24" d="M658.76,31h1.67V28.21h.9V31h2.15v.85h-2.15v5.85c0,1,.22,1.58,1.09,1.58a3.42,3.42,0,0,0,.93-.11V40a3.34,3.34,0,0,1-1.12.16c-1.15,0-1.8-.58-1.8-2V31.87h-1.67Z"/><path class="cls-24" d="M665.55,40V31.87H664V31h1.55V29.74c0-1.51.43-3.17,2.44-3.17a3.54,3.54,0,0,1,.89.13v.86a4.67,4.67,0,0,0-1-.11c-1.06,0-1.45.76-1.45,2.33V31h2v.85h-2V40Z"/><path class="cls-24" d="M677.12,35.5c0,2.5-1.38,4.74-4.07,4.74-2.43,0-3.94-2-3.94-4.72s1.42-4.72,4-4.72C675.54,30.8,677.12,32.68,677.12,35.5Zm-7.06,0c0,2.14,1.16,3.87,3.07,3.87s3-1.6,3-3.87-1.08-3.87-3.08-3.87S670.06,33.36,670.06,35.52Z"/><path class="cls-24" d="M679.35,40V26.75h.9V40Z"/><path class="cls-24" d="M683.2,26.75h.9V28.5h-.9Zm0,4.27h.9v9h-.9Z"/><path class="cls-24" d="M694.35,35.5c0,2.5-1.39,4.74-4.07,4.74-2.43,0-3.95-2-3.95-4.72s1.43-4.72,4-4.72C692.76,30.8,694.35,32.68,694.35,35.5Zm-7.06,0c0,2.14,1.15,3.87,3.06,3.87s3-1.6,3-3.87-1.08-3.87-3.08-3.87S687.29,33.36,687.29,35.52Z"/><path class="cls-24" d="M769.84,34.66,768.24,39h-1l4.63-12.6H773L777.86,39h-1.07l-1.64-4.36Zm5-.9c-1.4-3.74-2.12-5.54-2.38-6.39h0c-.31,1-1.12,3.19-2.25,6.39Z"/><path class="cls-24" d="M779.8,25.75h.9v5.78a3.1,3.1,0,0,1,3.08-1.73c2.12,0,3.69,1.75,3.69,4.52s-1.41,4.92-3.93,4.92a2.79,2.79,0,0,1-2.84-1.64c0,.58,0,1.17,0,1.42h-.88c0-1,0-2.05,0-3.08Zm6.71,8.59c0-2.25-1.11-3.69-2.82-3.69-2.25,0-3.05,1.53-3.05,3.89,0,2.12.71,3.85,2.94,3.85C785.4,38.39,786.51,36.88,786.51,34.34Z"/><path class="cls-24" d="M797.1,34.5c0,2.5-1.39,4.74-4.07,4.74-2.43,0-3.95-2-3.95-4.72s1.43-4.72,4-4.72C795.51,29.8,797.1,31.68,797.1,34.5Zm-7.06,0c0,2.14,1.15,3.87,3.06,3.87s3-1.6,3-3.87-1.08-3.87-3.08-3.87S790,32.36,790,34.52Z"/><path class="cls-24" d="M806.06,36.39c0,.89,0,2.29,0,2.63h-.87c0-.23-.05-.83-.05-1.56a2.77,2.77,0,0,1-2.9,1.78c-1.3,0-3-.51-3-3.26V30h.88v5.74c0,1.32.41,2.6,2.2,2.6,2,0,2.77-1.14,2.77-3.71V30h.9Z"/><path class="cls-24" d="M807.88,30h1.67V27.21h.9V30h2.14v.85h-2.14v5.85c0,1,.22,1.58,1.08,1.58a3.44,3.44,0,0,0,.94-.11V39a3.34,3.34,0,0,1-1.12.16c-1.15,0-1.8-.58-1.8-2V30.87h-1.67Z"/><path class="cls-24" d="M894.84,35.65a4.61,4.61,0,0,1-4.74,3.52c-3.62,0-5.53-2.88-5.53-6.43s1.88-6.5,5.55-6.5a4.4,4.4,0,0,1,4.73,3.62h-1a3.64,3.64,0,0,0-3.81-2.72c-3.14,0-4.45,2.86-4.45,5.58s1.29,5.55,4.52,5.55a3.7,3.7,0,0,0,3.72-2.62Z"/><path class="cls-24" d="M904.5,34.5c0,2.5-1.38,4.74-4.07,4.74-2.43,0-3.94-2-3.94-4.72s1.42-4.72,4-4.72C902.92,29.8,904.5,31.68,904.5,34.5Zm-7.06,0c0,2.14,1.16,3.87,3.06,3.87s3-1.6,3-3.87-1.08-3.87-3.08-3.87S897.44,32.36,897.44,34.52Z"/><path class="cls-24" d="M906.73,32.29c0-.79,0-1.55,0-2.27h.89c0,.29,0,1.46,0,1.71a3,3,0,0,1,3-1.93c1.6,0,3,.9,3,3.39V39h-.9V33.33c0-1.6-.67-2.64-2.24-2.64-2.14,0-2.88,1.78-2.88,3.74V39h-.9Z"/><path class="cls-24" d="M915.19,30h1.68V27.21h.9V30h2.14v.85h-2.14v5.85c0,1,.21,1.58,1.08,1.58a3.37,3.37,0,0,0,.93-.11V39a3.28,3.28,0,0,1-1.11.16c-1.16,0-1.8-.58-1.8-2V30.87h-1.68Z"/><path class="cls-24" d="M927.92,37.31A11,11,0,0,0,928,39h-.86a5.65,5.65,0,0,1-.16-1.38,3,3,0,0,1-2.95,1.6,2.68,2.68,0,0,1-3-2.7c0-2,1.53-2.88,4.23-2.88H927v-.92c0-.9-.27-2.11-2.32-2.11-1.82,0-2.09,1-2.29,1.69h-.9c.11-1,.72-2.52,3.2-2.52,2.06,0,3.21.87,3.21,2.85ZM927,34.43h-1.77c-2,0-3.24.52-3.24,2.07a1.88,1.88,0,0,0,2.07,1.91c2.58,0,2.94-1.71,2.94-3.66Z"/><path class="cls-24" d="M937.51,36.38A3.46,3.46,0,0,1,934,39.24c-2.25,0-3.85-1.68-3.85-4.68,0-2.47,1.31-4.76,4-4.76a3.22,3.22,0,0,1,3.38,2.88h-.92a2.43,2.43,0,0,0-2.48-2c-1.91,0-3,1.62-3,3.87s1,3.87,2.9,3.87a2.53,2.53,0,0,0,2.57-2Z"/><path class="cls-24" d="M938.46,30h1.68V27.21h.9V30h2.14v.85H941v5.85c0,1,.21,1.58,1.08,1.58a3.44,3.44,0,0,0,.94-.11V39a3.34,3.34,0,0,1-1.12.16c-1.15,0-1.8-.58-1.8-2V30.87h-1.68Z"/><path class="cls-24" d="M530.85,26.42h1v5.49h7.57V26.42h1V39h-1V32.81h-7.57V39h-1Z"/><path class="cls-24" d="M550.89,34.5c0,2.5-1.39,4.74-4.07,4.74-2.43,0-3.94-2-3.94-4.72s1.42-4.72,4-4.72C549.3,29.8,550.89,31.68,550.89,34.5Zm-7.06,0c0,2.14,1.15,3.87,3.06,3.87s3-1.6,3-3.87-1.08-3.87-3.08-3.87S543.83,32.36,543.83,34.52Z"/><path class="cls-24" d="M553.12,32.34c0-.77,0-1.62,0-2.32H554c0,.31.06,1.08,0,1.6a2.81,2.81,0,0,1,2.7-1.82,2.55,2.55,0,0,1,2.61,1.79,3.06,3.06,0,0,1,2.93-1.79c1.39,0,2.83.79,2.83,3.3V39h-.9V33.21c0-1.21-.43-2.52-2.11-2.52s-2.54,1.4-2.54,3.15V39h-.88v-5.8c0-1.31-.39-2.53-2-2.53S554,32.23,554,34.07v5h-.9Z"/><path class="cls-24" d="M568.24,34.63c0,2.32,1.19,3.76,2.91,3.76a2.54,2.54,0,0,0,2.6-1.69h.92a3.46,3.46,0,0,1-3.55,2.54c-2.74,0-3.8-2.36-3.8-4.65,0-2.57,1.28-4.79,3.91-4.79s3.65,2.4,3.65,4.09c0,.25,0,.5,0,.74Zm5.7-.79c0-1.79-1-3.19-2.75-3.19s-2.7,1.3-2.9,3.19Z"/><path class="cls-25" d="M582.4,255.35h3.18v18h24.76v-18h3.18v41.26h-3.18V276.27H585.58v20.34H582.4Z"/><path class="cls-25" d="M625.25,253.17h3v5.72h-3Zm0,14h3v29.47h-3Z"/><path class="cls-25" d="M643.4,283.41l-.29-20.75v-7.31h3.24v7.31l-.3,20.75Zm-.23,13.26v-7h3v7Z"/><path class="cls-25" d="M711.18,277.63c0-8.07.06-15.8.24-19.92h-.18c-1.65,5.54-10,25.87-15.27,38.9h-3.12c-4-10.08-12.61-32.71-14.5-39h-.12c.3,4.71.42,14.32.42,21.4v17.56h-3.19V255.35h4.78C685.9,269.5,693,288,694.56,292.66h.12c.94-3,9.19-23.58,15-37.31h4.72v41.26h-3.19Z"/><path class="cls-25" d="M725.32,267.14c6,16.86,8.55,23.81,9.55,27h.06c1.18-3.6,3.54-10.44,9.26-27h3.06l-11.08,31.18C733,307,730.92,309,725.62,309a19.26,19.26,0,0,1-2.71-.18v-2.94a20.7,20.7,0,0,0,2.65.17c4.24,0,5.6-2.06,7.78-8.13l-11.26-30.77Z"/><path class="cls-25" d="M771.06,274.57c0-2.6,0-5.07-.06-7.43h2.89c.11.94.17,4.77.11,5.6,1.3-3,3.72-6.31,9.79-6.31,5.25,0,9.9,2.95,9.9,11.08v19.1h-3V278c0-5.24-2.18-8.66-7.3-8.66-7,0-9.44,5.83-9.44,12.26v15h-2.94Z"/><path class="cls-25" d="M824.63,291a33.12,33.12,0,0,0,.42,5.6h-2.83a18.7,18.7,0,0,1-.53-4.54c-1,2.18-3.6,5.25-9.67,5.25-6.84,0-9.79-4.42-9.79-8.84,0-6.49,5-9.43,13.86-9.43h5.6v-3c0-3-.89-6.9-7.61-6.9-6,0-6.83,3.13-7.48,5.54h-3c.35-3.24,2.36-8.25,10.49-8.25,6.72,0,10.49,2.83,10.49,9.31Zm-2.88-9.43H816c-6.54,0-10.61,1.71-10.61,6.78,0,3.71,2.65,6.25,6.78,6.25,8.43,0,9.61-5.6,9.61-12Z"/><path class="cls-25" d="M835.77,274.74c0-2.53,0-5.3-.06-7.6h2.89c.06,1,.18,3.54.12,5.24a9.23,9.23,0,0,1,8.84-5.95c4.13,0,7.37,2.06,8.55,5.84a10,10,0,0,1,9.6-5.84c4.54,0,9.26,2.59,9.26,10.79v19.39h-3v-19c0-3.95-1.41-8.25-6.9-8.25-5.71,0-8.31,4.6-8.31,10.31v17h-2.89v-19c0-4.3-1.29-8.31-6.71-8.31-5.72,0-8.49,5.07-8.49,11.08v16.21h-3Z"/><path class="cls-25" d="M886.69,282.23c.06,7.6,3.89,12.32,9.55,12.32s7.43-3.13,8.49-5.54h3c-1.23,3.89-4.36,8.31-11.61,8.31-9,0-12.44-7.72-12.44-15.21,0-8.43,4.19-15.68,12.8-15.68,9.07,0,12,7.84,12,13.38,0,.83,0,1.65-.06,2.42Zm18.69-2.6c-.06-5.83-3.25-10.43-9-10.43-6.07,0-8.84,4.25-9.49,10.43Z"/><path class="cls-25" d="M933.78,253.17h3v5.72h-3Zm0,14h3v29.47h-3Z"/><path class="cls-25" d="M947.51,288.48c1,3.83,3.72,6.13,8.37,6.13,5.25,0,7.37-2.42,7.37-5.72s-1.41-5-8-6.6c-7.61-1.83-9.49-4.13-9.49-8,0-4.07,3.06-7.84,9.72-7.84s9.84,4.07,10.32,8.25h-2.95c-.53-2.47-2.48-5.54-7.49-5.54s-6.6,2.54-6.6,4.9c0,2.71,1.42,4.06,7.25,5.48,8.31,2,10.38,4.71,10.38,9.13,0,5.37-4.37,8.67-10.56,8.67-6.72,0-10.49-3.54-11.31-8.84Z"/><text class="cls-26" transform="translate(656.49 398.99) scale(1.02 1)">~Aditi ~</text><g id="bang_pan" data-name="bang pan"><g class="cls-27"><g class="cls-27"><g class="cls-27"><path class="cls-28" d="M868,912.59a47.36,47.36,0,0,0-1.64-7.9,42.48,42.48,0,0,1-11-1.83c-5-1.54-8.39-3.62-12.79-6.39-7.78-4.92-11.7-7.34-14.62-11.88-2.3-3.59-2.62-6.1-4.57-6.4-2.52-.38-4,3.55-8.22,8.23-8.9,9.74-20.55,12.3-22.84,12.79a42.94,42.94,0,0,1-9.14.91,38.83,38.83,0,0,0-2.74,5.48,45.8,45.8,0,0,0-2.75,11.12,46.88,46.88,0,0,0-.37,5.76,45.49,45.49,0,0,0,.35,5.6,38.69,38.69,0,0,0,4.6,14.07c5.66,10.1,14.65,15.31,22.38,18a57.23,57.23,0,0,0,14.16,3,48.18,48.18,0,0,0,23.3-3.22,40.92,40.92,0,0,0,8.68-5c12.47-9.36,15.6-22.63,16.45-26.5.07-.32.14-.64.2-1"/><path class="cls-29" d="M868.68,920.68a2.05,2.05,0,0,0-.34-.07,48.38,48.38,0,0,0-2-15.92,42.48,42.48,0,0,1-11-1.83c-5-1.54-8.39-3.62-12.79-6.39-7.78-4.92-11.7-7.34-14.62-11.88-2.3-3.59-2.62-6.1-4.57-6.4-2.52-.38-4,3.55-8.22,8.23-8.9,9.74-20.55,12.3-22.84,12.79a42.94,42.94,0,0,1-9.14.91,38.83,38.83,0,0,0-2.74,5.48,47.62,47.62,0,0,0-3.12,16.88c-4.45-5.23-5.32-9.82-5.56-11.85-1.94-16.68,19.23-30.32,21.09-31.47.36-.23.65-.39.84-.51,12.12-7.33,24.46-7.68,31.06-7.31A24.16,24.16,0,0,1,834,868.6c4.27-.38,21.8,3.33,31.06,19.19A41.27,41.27,0,0,1,870.11,903a42.3,42.3,0,0,1-1.43,17.72"/><path class="cls-30" d="M900.66,1050.72v114.82H742.59V1048.87a3.16,3.16,0,0,1,.09-.76l10-44.18a3.34,3.34,0,0,1,3.18-2.53,7.92,7.92,0,0,0,2.59-.56l15.26-6.13a7.48,7.48,0,0,0,1.83-1,3.74,3.74,0,0,1,2.26-.81,36.87,36.87,0,0,0,10.35-1.46,31.73,31.73,0,0,0,8.68-4l.76-.53a29.72,29.72,0,0,0,51.79,0c.24.18.5.35.75.53a34.35,34.35,0,0,0,19,5.48l1.35,0a3.27,3.27,0,0,1,2.47.93,7.57,7.57,0,0,0,1.62,1.24l14.24,8.23a7.79,7.79,0,0,0,3.88,1c.08,0,.15.72.24.88l0,.06,7.64,44.93a3.77,3.77,0,0,1,0,.57"/><path class="cls-28" d="M849.35,986.85a29.72,29.72,0,0,1-51.79,0,23.1,23.1,0,0,0,6.77-7.46,3.34,3.34,0,0,0,.39-1.62V960.18a57.23,57.23,0,0,0,14.16,3,48.18,48.18,0,0,0,23.3-3.22v18.15a2.11,2.11,0,0,0,.25,1,22.66,22.66,0,0,0,6.92,7.74"/><path class="cls-29" d="M777.74,928.08c-1.29,2.37-3.23,3.77-5.11,3.43-2.73-.5-4.28-4.53-3.46-9s3.69-7.68,6.42-7.18a3.61,3.61,0,0,1,2.17,1.39Z"/><path class="cls-29" d="M772.68,1001.08l-2.15,0a5,5,0,0,1-4.34-7.63l5.64-9.27a.26.26,0,0,1,.44,0l4.85,9.57a5,5,0,0,1-4.44,7.29"/><path class="cls-29" d="M772.68,1014.79h-2.15a5,5,0,0,1-4.34-7.62l5.64-9.27a.25.25,0,0,1,.44,0l4.85,9.57a5,5,0,0,1-4.44,7.29"/><path class="cls-29" d="M772.68,1027.58l-2.15,0a5,5,0,0,1-4.34-7.63l5.64-9.27a.25.25,0,0,1,.44,0l4.85,9.57a5,5,0,0,1-4.44,7.29"/><path class="cls-29" d="M773.6,988.29l-2.16,0a5,5,0,0,1-4.33-7.63l5.64-9.27a.25.25,0,0,1,.44,0L778,981a5,5,0,0,1-4.43,7.29"/><path class="cls-29" d="M773.6,973.67l-2.16,0a5,5,0,0,1-4.33-7.63l5.64-9.27a.26.26,0,0,1,.44,0l4.84,9.57a5,5,0,0,1-4.43,7.29"/><path class="cls-29" d="M774.51,946.26l-2.15,0a5,5,0,0,1-4.34-7.63l5.64-9.27a.26.26,0,0,1,.44,0l4.84,9.57a5,5,0,0,1-4.43,7.29"/><path class="cls-29" d="M773.6,959.05l-2.16,0a5,5,0,0,1-4.33-7.63l5.64-9.26a.25.25,0,0,1,.44,0l4.84,9.57a5,5,0,0,1-4.43,7.29"/><path class="cls-29" d="M871,928.76a4.05,4.05,0,0,1-3.48-1.27,47.46,47.46,0,0,0,.83-6.88,46.56,46.56,0,0,0-.31-8c2.72-.5,5.6,2.72,6.42,7.18s-.73,8.5-3.46,9"/><path class="cls-29" d="M870.94,998.34l2.15,0a5,5,0,0,0,4.34-7.63l-5.64-9.27a.25.25,0,0,0-.44,0l-4.84,9.57a5,5,0,0,0,4.43,7.29"/><path class="cls-29" d="M870,1011.59l2.15,0a5,5,0,0,0,4.33-7.63l-5.63-9.27a.25.25,0,0,0-.44,0l-4.85,9.57a5,5,0,0,0,4.44,7.29"/><path class="cls-29" d="M870,1024.38l2.15,0a5,5,0,0,0,4.33-7.63l-5.63-9.27a.25.25,0,0,0-.44,0l-4.85,9.57a5,5,0,0,0,4.44,7.29"/><path class="cls-29" d="M870,985.55l2.15,0a5,5,0,0,0,4.33-7.63l-5.63-9.27a.25.25,0,0,0-.44,0l-4.85,9.57a5,5,0,0,0,4.44,7.29"/><path class="cls-29" d="M870,970.93l2.15,0a5,5,0,0,0,4.33-7.63l-5.63-9.27a.25.25,0,0,0-.44,0l-4.85,9.57a5,5,0,0,0,4.44,7.29"/><path class="cls-29" d="M869.11,943.52l2.15,0a5,5,0,0,0,4.34-7.63L870,926.64a.25.25,0,0,0-.44,0l-4.84,9.57a5,5,0,0,0,4.43,7.29"/><path class="cls-29" d="M870,956.31l2.15,0a5,5,0,0,0,4.33-7.63l-5.63-9.27a.26.26,0,0,0-.44,0L865.59,949a5,5,0,0,0,4.44,7.29"/><path d="M823.91,877.74a35.93,35.93,0,0,0,1.82,7.1,31.17,31.17,0,0,0,3.31,6.48,32.08,32.08,0,0,0,4.66,5.61,39.64,39.64,0,0,0,5.74,4.56,28.71,28.71,0,0,1-6.1-4.18,29.66,29.66,0,0,1-4.87-5.61,29.32,29.32,0,0,1-3.24-6.69,27,27,0,0,1-1.32-7.27"/><path d="M823,876.82a23.27,23.27,0,0,1-1.5,7.26,24.87,24.87,0,0,1-3.66,6.51,23.33,23.33,0,0,1-5.46,5.08,27.44,27.44,0,0,1-3.26,1.83,22.93,22.93,0,0,1-3.48,1.25A31.77,31.77,0,0,0,812,895.1a27.23,27.23,0,0,0,5.15-5.08,29.34,29.34,0,0,0,3.73-6.21,25.43,25.43,0,0,0,1.26-3.42,30.53,30.53,0,0,0,.89-3.57"/><path d="M822.12,864a9.65,9.65,0,0,1,2.4,3.29,6.26,6.26,0,0,1,.62,2,4.56,4.56,0,0,1-.27,2.07h-.09c-.24-.67-.38-1.3-.54-1.92s-.22-1.26-.41-1.88a11,11,0,0,0-1.78-3.48Z"/><path d="M831.15,868.14a4.65,4.65,0,0,0-3.25.51,4.77,4.77,0,0,0-2.16,2.69,5,5,0,0,1,1.91-3.07,5.34,5.34,0,0,1,3.63-1Z"/><path class="cls-29" d="M849,919.08c0,3.15-2.13,5.71-4.76,5.71s-4.76-2.56-4.76-5.71,2.13-5.71,4.76-5.71,4.76,2.56,4.76,5.71"/><path class="cls-29" d="M806.93,919.08c0,3.15-2.13,5.71-4.76,5.71s-4.76-2.56-4.76-5.71,2.13-5.71,4.76-5.71,4.76,2.56,4.76,5.71"/><path class="cls-29" d="M831.68,930.73a10.18,10.18,0,0,1-2,6.17,8.17,8.17,0,0,1-13.29,0,10.17,10.17,0,0,1-2-6.17Z"/><path class="cls-31" d="M829.64,936.9a8.17,8.17,0,0,1-13.29,0,8.15,8.15,0,0,1,13.29,0"/><path class="cls-6" d="M847.21,916.57a.92.92,0,1,1-.92-.92.92.92,0,0,1,.92.92"/><path class="cls-6" d="M805.18,916.57a.92.92,0,1,1-.91-.92.91.91,0,0,1,.91.92"/><g class="cls-32"><g class="cls-33"><path class="cls-34" d="M797.87,926.16c0,1.26-1.64,2.28-3.65,2.28s-3.66-1-3.66-2.28,1.64-2.28,3.66-2.28,3.65,1,3.65,2.28"/></g></g><g class="cls-32"><g class="cls-35"><path class="cls-34" d="M855.43,926.16c0,1.26-1.64,2.28-3.65,2.28s-3.66-1-3.66-2.28,1.64-2.28,3.66-2.28,3.65,1,3.65,2.28"/></g></g><g class="cls-36"><g class="cls-37"><path class="cls-38" d="M842.18,959.94v2.41c-2.89,6.9-10.13,11.78-18.58,11.78-8.75,0-16.19-5.23-18.88-12.5v-1.45a57.23,57.23,0,0,0,14.16,3,48.31,48.31,0,0,0,23.3-3.22"/></g></g></g><g class="cls-39"><rect class="cls-40" x="773.2" y="890.98" width="5.48" height="7.31"/></g><g class="cls-41"><rect class="cls-42" x="775.03" y="886.42" width="5.48" height="7.31"/></g><g class="cls-43"><rect class="cls-44" x="865.94" y="894.18" width="5.48" height="7.31"/></g><g class="cls-45"><rect class="cls-46" x="770.46" y="887.33" width="5.48" height="7.31"/></g><g class="cls-47"><rect class="cls-48" x="863.13" y="885.96" width="6.3" height="8.41"/></g><g class="cls-49"><rect class="cls-50" x="866.39" y="890.07" width="7.31" height="7.31"/></g><g class="cls-51"><rect class="cls-52" x="860.62" y="888.97" width="6.3" height="8.41"/></g><g class="cls-27"><path class="cls-53" d="M784.26,1166a21.49,21.49,0,0,0,.35-27h74a21.49,21.49,0,0,0,.35,27Z"/><path class="cls-54" d="M912.53,1033.25V1127A12.07,12.07,0,0,1,900.47,1139H745.53A12.08,12.08,0,0,1,733.46,1127v-93.72a12.08,12.08,0,0,1,12.07-12.07H900.47a12.07,12.07,0,0,1,12.06,12.07"/><path class="cls-54" d="M870.51,1165.54H774.57a11,11,0,0,1,11-11h74a11,11,0,0,1,11,11"/><path class="cls-55" d="M823,1069.61a9.24,9.24,0,0,0-7.31-9.14c-4.84-.87-8.89,2.93-10.05,6.39-1.48,4.4,1.57,8.63,4.56,12.8a36.64,36.64,0,0,0,12.8,11"/><path class="cls-55" d="M822.61,1069.61a9.24,9.24,0,0,1,7.31-9.14c4.83-.87,8.89,2.93,10.05,6.39,1.48,4.4-1.57,8.63-4.57,12.8a36.49,36.49,0,0,1-12.79,11"/><path class="cls-53" d="M703.5,1165.66l-30.16-.24c-.32-8.77,6-16,13.33-16.75a12.4,12.4,0,0,1,2-.05c7.74.36,15.11,7.6,14.81,17"/></g></g></g></g></g><g id="illustrations"><g id="Artwork_2" data-name="Artwork 2"><g class="cls-56"><g class="cls-56"><path class="cls-5" d="M135.19,879.35c12-16.31,28.53-18.52,42.81-13,8.91,3.43,14,8.67,16.23,12.65,2.35-2.41,8.06-5.54,16.39-6.25,14.62-1.24,30.54,12,30.26,27.31-.22,12.2-10.6,20-12.18,21.15,2.36.08,10.68.64,17.18,7.1,7.3,7.24,10.34,20,4.24,29.61-6.47,10.22-21.29,13.87-33.23,6.87a28.25,28.25,0,0,1-1.18,10.45c-.25.78-4.73,14.4-17,18.13-10.76,3.29-23.84-2.22-30.87-14a25.48,25.48,0,0,1-8.8,8.7c-11.17,6.44-29.83,4.77-37.45-8-4.85-8.15-4.15-19,1.29-28-2,1.08-8.12,4.1-14.81,2.12-9.84-2.92-14.71-14.85-13.58-24.44,1.43-12.13,12.24-19,13.51-19.69a26,26,0,0,1-5.23-7.95c-1.49-3.72-5.11-12.81-.44-21,3-5.31,10.3-11.62,18.66-9.64,5.71,1.35,12.42,1.65,14.15,7.93"/><path class="cls-6" d="M132.64,875c12-16.31,28.53-18.52,42.81-13,8.9,3.43,14,8.68,16.22,12.65,2.36-2.41,8.07-5.54,16.4-6.25,14.61-1.24,30.54,12,30.26,27.31-.23,12.2-10.6,20-12.18,21.15,2.35.08,10.68.65,17.18,7.1,7.3,7.25,10.34,20,4.24,29.61-6.48,10.22-21.3,13.87-33.24,6.87a28.25,28.25,0,0,1-1.18,10.45c-.24.78-4.73,14.4-16.94,18.13-10.77,3.29-23.85-2.22-30.87-14a25.52,25.52,0,0,1-8.81,8.7c-11.17,6.44-29.83,4.77-37.45-8-4.85-8.15-4.14-19,1.29-27.95-2,1.08-8.12,4.1-14.81,2.12C95.72,946.9,90.85,935,92,925.38c1.44-12.13,12.24-19,13.52-19.69a26.23,26.23,0,0,1-5.24-7.94c-1.48-3.73-5.1-12.82-.43-21,3-5.31,10.29-11.62,18.65-9.64,5.72,1.35,12.42,1.65,14.16,7.93"/><line x1="146.97" y1="939.4" x2="149.76" y2="899.62"/><line class="cls-57" x1="146.97" y1="939.4" x2="149.76" y2="899.62"/><line x1="185.8" y1="940.72" x2="188.17" y2="901.96"/><line class="cls-57" x1="185.8" y1="940.72" x2="188.17" y2="901.96"/><line x1="189.15" y1="903.08" x2="148.67" y2="900.24"/><line class="cls-58" x1="189.15" y1="903.08" x2="148.67" y2="900.24"/><path d="M147.57,939c.75,2-.84,4.43-3.55,5.45s-5.52.24-6.27-1.75.85-4.43,3.56-5.45,5.52-.24,6.26,1.75"/><path class="cls-59" d="M147.57,939c.75,2-.84,4.43-3.55,5.45s-5.52.24-6.27-1.75.85-4.43,3.56-5.45S146.83,937,147.57,939Z"/><path d="M186.66,941.75c.75,2-.85,4.42-3.56,5.44s-5.52.24-6.27-1.75.85-4.43,3.56-5.45,5.52-.23,6.27,1.76"/><path class="cls-59" d="M186.66,941.75c.75,2-.85,4.42-3.56,5.44s-5.52.24-6.27-1.75.85-4.43,3.56-5.45S185.91,939.76,186.66,941.75Z"/></g></g></g><g id="Artwork_4" data-name="Artwork 4"><g class="cls-60"><g class="cls-60"><path class="cls-5" d="M655.49,1326.11c-5.39-17.31,3.61-35,18.2-40.06,11.48-4,25.21.22,33.85,10.72,8.46-15.74,25.22-23.75,40-20.15,14.53,3.53,21.26,16.85,22.29,19,6.53-13.36,21.75-19.85,35.16-15.53,12.09,3.89,20.38,15.81,19.93,29.1,9.84-2.79,19.86-.42,24.49,5.77,6.5,8.71,3.12,26-12.16,34.29.5,4,1.61,17.17-6.81,28.72-10,13.68-29.25,19.46-48.14,14-5.77,18.42-23.55,28.82-39.18,25.37-11.43-2.52-20.69-12.24-24.05-24.7-5.41,10.65-15.84,16.88-25,15.53-12.53-1.85-23.49-18.07-18.12-35.93-9.49,3.26-19.79,2.63-26-3-9.43-8.54-9.65-28.93,5.49-43.2"/><path class="cls-6" d="M650.32,1324.57c-5.4-17.31,3.61-35,18.2-40.06,11.48-4,25.2.22,33.84,10.72,8.47-15.74,25.23-23.74,40-20.15,14.53,3.54,21.26,16.85,22.29,19,6.52-13.36,21.75-19.85,35.16-15.53,12.09,3.89,20.38,15.81,19.93,29.1,9.84-2.79,19.86-.42,24.48,5.78,6.5,8.7,3.12,26-12.15,34.28.49,4,1.61,17.17-6.81,28.72-10,13.68-29.25,19.46-48.15,14-5.77,18.42-23.54,28.82-39.17,25.38-11.43-2.53-20.69-12.25-24.05-24.7-5.41,10.64-15.85,16.87-25,15.52-12.52-1.85-23.49-18.07-18.11-35.93-9.5,3.26-19.79,2.63-26-3-9.43-8.54-9.65-28.93,5.49-43.2"/><path class="cls-61" d="M757,1323.56c-17.11-13.64-38.86-10.35-44.47-9.28-8.61,1.63-24.13,4.56-30.06,17.33-5,10.79-.23,22.26.75,24.61,4.13,9.92,11.73,14.87,15.19,17.06a42.08,42.08,0,0,0,26.14,6.23c7-.74,17.19-3.76,17.84-8.6.35-2.6-2.23-4.47-1.31-8.29A9,9,0,0,1,744,1358c3.08-2.56,6.67-1.71,10.55-2,6.39-.5,14-4.17,16-8.64,3.09-7-6.43-18.12-13.53-23.78m-64.05,21.9c-.54-1.73,1.58-3.9,4.71-4.87s6.1-.35,6.63,1.38-1.58,3.9-4.71,4.86-6.1.35-6.63-1.37m12.35,13.9c-2.82.86-5.5.3-6-1.27s1.41-3.54,4.23-4.41,5.5-.3,6,1.27-1.41,3.54-4.23,4.41m13.31,8.94c-2.82.86-5.53.17-6.07-1.55s1.33-3.82,4.15-4.69,5.53-.18,6.07,1.55-1.33,3.82-4.15,4.69m-10.33-36.57c-3.6,1.11-7,.61-7.48-1.11s2-4,5.56-5.13,6.95-.61,7.48,1.11-2,4-5.56,5.13m25.07-.27c-3.13,1-6.14.22-6.72-1.65s1.49-4.19,4.62-5.15,6.15-.23,6.72,1.65-1.49,4.19-4.62,5.15m22.15,4.36c-2.66.82-5.22.21-5.7-1.35s1.29-3.5,4-4.32,5.21-.22,5.7,1.35-1.29,3.5-3.95,4.32"/><path class="cls-62" d="M755.65,1323.34c-17.1-13.64-38.86-10.35-44.47-9.28-8.61,1.63-24.13,4.57-30.06,17.33-5,10.79-.23,22.26.75,24.61,4.13,9.92,11.73,14.87,15.19,17.06a42.08,42.08,0,0,0,26.14,6.23c7-.74,17.19-3.75,17.84-8.6.35-2.6-2.23-4.47-1.31-8.29a9,9,0,0,1,2.93-4.63c3.08-2.56,6.67-1.7,10.56-2,6.38-.5,14-4.17,16-8.64,3.1-7-6.43-18.12-13.53-23.78m-64,21.9c-.53-1.72,1.58-3.9,4.71-4.86s6.1-.36,6.63,1.37-1.58,3.9-4.71,4.86-6.1.36-6.63-1.37m12.35,13.9c-2.82.86-5.5.3-6-1.27s1.41-3.54,4.23-4.41,5.5-.3,6,1.27-1.41,3.54-4.23,4.41m13.31,8.94c-2.82.87-5.53.18-6.06-1.55s1.32-3.82,4.14-4.69,5.53-.18,6.07,1.55-1.33,3.82-4.15,4.69m-10.33-36.57c-3.6,1.11-6.95.62-7.48-1.11s2-4,5.56-5.13,7-.61,7.48,1.11-2,4-5.56,5.13m25.07-.26c-3.13,1-6.14.22-6.72-1.66s1.49-4.19,4.62-5.15,6.15-.22,6.72,1.65-1.49,4.19-4.62,5.16m22.15,4.35c-2.66.82-5.21.22-5.7-1.35s1.29-3.5,3.95-4.32,5.21-.21,5.7,1.35-1.29,3.5-4,4.32"/><path class="cls-63" d="M722.72,1363.6c.53,1.73-1.33,3.83-4.15,4.7s-5.53.17-6.07-1.55,1.33-3.82,4.15-4.69,5.53-.18,6.07,1.54"/><path class="cls-64" d="M709.49,1355c.48,1.56-1.41,3.54-4.23,4.41s-5.5.3-6-1.27,1.41-3.54,4.23-4.41,5.5-.3,6,1.27"/><path class="cls-65" d="M704.25,1342c.53,1.72-1.58,3.9-4.71,4.86s-6.1.35-6.63-1.37,1.58-3.9,4.71-4.87,6.1-.35,6.63,1.38"/><path class="cls-66" d="M713.8,1326.6c.53,1.73-2,4-5.56,5.13s-7,.61-7.48-1.11,2-4,5.56-5.13,6.95-.61,7.48,1.11"/><path class="cls-67" d="M737.93,1326.31c.58,1.88-1.49,4.19-4.62,5.15s-6.14.22-6.72-1.65,1.49-4.19,4.62-5.15,6.15-.23,6.72,1.65"/><path class="cls-68" d="M759.54,1331.92c.55,1.81-1.35,4-4.25,4.88s-5.69.16-6.25-1.64,1.35-4,4.25-4.88,5.69-.16,6.25,1.64"/><path class="cls-69" d="M793.12,1318l-9,52.16c-.68,4-4.78,6.57-9.16,5.82l-.58-2.48,11.69-47.61c.77-3.73,2.82-7.91,7-7.89"/><path class="cls-70" d="M792.66,1318.18l-12,52.39a7.4,7.4,0,0,1-8.86,5.56l-.36-2.52,14.17-47.7c1-3.75,3.16-7.9,7-7.73"/><path class="cls-71" d="M799.08,1302.59c-1.28-1-2-1.06-2.49-.88s-.67.71-1.61,1.13a7.16,7.16,0,0,1-1.13.35c-.74.21-1.33.4-1.7.53a2.13,2.13,0,0,1-.57.17,2.32,2.32,0,0,1-1.81-.72,24.48,24.48,0,0,0,1.46-4.24,27.34,27.34,0,0,0,.72-5.61,18.17,18.17,0,0,1,4.79,4.78,19.23,19.23,0,0,1,2.34,4.49"/><path class="cls-72" d="M800.37,1308.33c-.49,4.84-4.26,11-8.84,10.67a7.12,7.12,0,0,1-6.11-5.82c-.29-2.81,2.14-4.21,4.35-8.32.2-.36.39-.76.58-1.17a.36.36,0,0,0,0-.09c1.06.59,1.65.52,2,.35.68-.33.61-1.15,1.28-1.37s.94.47,1.84.37,1-.63,1.69-.81a2.93,2.93,0,0,1,2.5.88h0a12.48,12.48,0,0,1,.67,5.3"/><path class="cls-73" d="M799.75,1307.9c-.49,4.84-4.25,11-8.83,10.67a7.12,7.12,0,0,1-6.12-5.82c-.29-2.81,2.14-4.21,4.35-8.32.2-.36.4-.76.58-1.17a.73.73,0,0,1,0-.09c1.05.59,1.65.52,2,.35.67-.33.76-.55,1.27-1.37.35-.57,1,.47,1.84.37s1-.63,1.7-.81a2.92,2.92,0,0,1,2.49.88h0a12.32,12.32,0,0,1,.67,5.3"/><path class="cls-70" d="M779.82,1373a16.78,16.78,0,0,0-1.87.18,18.3,18.3,0,0,0-2.58.63,6.91,6.91,0,0,1-2.58.63,3.53,3.53,0,0,1-1.16-.27"/></g></g></g></g><g id="boxes_to_click" data-name="boxes to click"><rect class="cls-74" x="116.43" y="1763.22" width="357" height="207"/><rect class="cls-75" x="116.43" y="2016.34" width="357" height="207"/><rect class="cls-76" x="535" y="1764.01" width="357" height="207"/><rect class="cls-77" x="532.73" y="2016.34" width="357" height="207"/><text class="cls-78" transform="translate(215.67 1879.5)">P<tspan class="cls-79" x="31.03" y="0">AINT</tspan></text><text class="cls-80" transform="translate(553.27 1859.84)">VEC<tspan class="cls-81" x="65.88" y="0">T</tspan><tspan x="84.95" y="0">OR GRAPHICS</tspan><tspan x="44.89" y="34.99">+ ANIM</tspan><tspan class="cls-82" x="168.71" y="34.99">A</tspan><tspan x="190.55" y="34.99">TION</tspan></text><text class="cls-83" transform="translate(183.23 2113.62)">COMPUTER<tspan x="26.36" y="36">SCIENCE</tspan></text><text class="cls-84" transform="translate(618.47 2113.34)">VIEW ALL<tspan class="cls-85"><tspan x="-29.23" y="36">C</tspan><tspan class="cls-86" x="-4.43" y="36">A</tspan><tspan x="19.91" y="36">TEGORIES</tspan></tspan></text><path class="cls-87" d="M275,2396v34h-2.62v-34Z"/><path class="cls-87" d="M286.2,2430v-22H282v-2.28h4.17v-3.45c0-4.07,1.17-8.54,6.6-8.54a9.23,9.23,0,0,1,2.38.34v2.33a12.3,12.3,0,0,0-2.62-.29c-2.86,0-3.93,2-3.93,6.26v3.35h5.29V2408h-5.29v22Z"/><path class="cls-87" d="M313.33,2405.74c4.9,13.87,7,19.6,7.86,22.22h.05c1-3,2.91-8.59,7.61-22.22h2.53l-9.12,25.67c-2.58,7.18-4.32,8.78-8.69,8.78a15.64,15.64,0,0,1-2.23-.15v-2.42a17.23,17.23,0,0,0,2.18.14c3.5,0,4.61-1.7,6.41-6.69l-9.27-25.33Z"/><path class="cls-87" d="M357.73,2417.82c0,6.74-3.74,12.76-11,12.76-6.55,0-10.63-5.39-10.63-12.71,0-6.94,3.84-12.72,10.87-12.72C353.46,2405.15,357.73,2410.2,357.73,2417.82Zm-19,0c0,5.77,3.11,10.43,8.25,10.43s8.2-4.32,8.2-10.43c0-5.73-2.91-10.44-8.29-10.44C341.32,2407.43,338.7,2412,338.7,2417.87Z"/><path class="cls-87" d="M383.69,2422.91c0,2.38,0,6.17,0,7.09H381.4a41.48,41.48,0,0,1-.14-4.22c-1,2.86-3.49,4.8-7.81,4.8-3.5,0-8-1.36-8-8.78v-16.06h2.38v15.48c0,3.54,1.11,7,5.92,7,5.43,0,7.47-3,7.47-10v-12.47h2.43Z"/><path class="cls-87" d="M390.91,2406a49.81,49.81,0,0,0,2.19-11.74h2.47a48.2,48.2,0,0,1-2.52,11.74Z"/><path class="cls-87" d="M419.25,2394.24V2423c0,2.33,0,4.56.05,7H417c-.1-.58-.14-2.87-.14-4.08-1.22,3-3.93,4.66-8.16,4.66-6.3,0-10.09-5.14-10.09-12.42,0-7.47,4.13-13,10.72-13,4.86,0,6.8,2.09,7.53,3.64v-14.55Zm-18.1,23.82c0,6.65,3.45,10.24,7.62,10.24,6.41,0,8.15-4.42,8.15-11,0-6.26-1.5-9.86-7.71-9.86C404.4,2407.43,401.15,2411.27,401.15,2418.06Z"/><path class="cls-87" d="M443.42,2430v-35.76h2.42V2430Z"/><path class="cls-87" d="M455.59,2394.24H458v4.7h-2.43Zm0,11.5H458V2430h-2.43Z"/><path class="cls-87" d="M470.2,2418.26c2.23-2.38,9-9.27,12.28-12.52h3.1l-9.61,9.65L486.79,2430h-3L474.23,2417l-4,3.88V2430h-2.43v-35.76h2.43Z"/><path class="cls-87" d="M492.52,2418.16c.05,6.26,3.2,10.14,7.86,10.14s6.12-2.57,7-4.56h2.47c-1,3.2-3.59,6.84-9.56,6.84-7.37,0-10.23-6.36-10.23-12.52,0-6.94,3.44-12.91,10.53-12.91,7.47,0,9.85,6.46,9.85,11,0,.68,0,1.36-.05,2ZM507.9,2416c0-4.8-2.67-8.59-7.42-8.59-5,0-7.28,3.5-7.81,8.59Z"/><path class="cls-87" d="M528.91,2405.74h4.52v-7.57h2.42v7.57h5.78V2408h-5.78v15.77c0,2.71.58,4.27,2.91,4.27a9.33,9.33,0,0,0,2.53-.29v2.13a8.53,8.53,0,0,1-3,.44c-3.11,0-4.85-1.55-4.85-5.44V2408h-4.52Z"/><path class="cls-87" d="M567.73,2417.82c0,6.74-3.73,12.76-11,12.76-6.55,0-10.62-5.39-10.62-12.71,0-6.94,3.83-12.72,10.87-12.72C563.46,2405.15,567.73,2410.2,567.73,2417.82Zm-19,0c0,5.77,3.11,10.43,8.25,10.43s8.2-4.32,8.2-10.43c0-5.73-2.91-10.44-8.3-10.44S548.71,2412,548.71,2417.87Z"/><path class="cls-87" d="M592.38,2394.24v15.57a8.48,8.48,0,0,1,8-4.66c3.44,0,8.2,1.75,8.2,9.42V2430h-2.43v-14.95c0-4.8-2.18-7.52-6.21-7.52-4.8,0-7.57,3-7.57,8.93V2430H590v-35.76Z"/><path class="cls-87" d="M618.34,2394.24h2.43v4.7h-2.43Zm0,11.5h2.43V2430h-2.43Z"/><path class="cls-87" d="M630.52,2412.34c0-4.08,0-5.83,0-6.6h2.38c0,.77.1,2.33.1,5.43a9.19,9.19,0,0,1,8.44-6v2.62c-5,.34-8.44,3.84-8.44,9.61V2430h-2.43Z"/><path class="cls-87" d="M648.18,2418.16c.05,6.26,3.2,10.14,7.86,10.14s6.12-2.57,7-4.56h2.47c-1,3.2-3.59,6.84-9.56,6.84-7.37,0-10.23-6.36-10.23-12.52,0-6.94,3.44-12.91,10.53-12.91,7.47,0,9.85,6.46,9.85,11,0,.68,0,1.36-.05,2Zm15.38-2.14c0-4.8-2.67-8.59-7.42-8.59-5,0-7.28,3.5-7.81,8.59Z"/><path class="cls-87" d="M688.21,2412c0-2.09,0-4.37-.05-6.26h2.38c.05.82.15,2.91.1,4.31a7.6,7.6,0,0,1,7.28-4.9c3.39,0,6.06,1.7,7,4.81a8.26,8.26,0,0,1,7.91-4.81c3.74,0,7.62,2.14,7.62,8.88v16h-2.43v-15.67c0-3.26-1.16-6.8-5.67-6.8-4.71,0-6.84,3.79-6.84,8.49v14h-2.38v-15.63c0-3.54-1.07-6.84-5.53-6.84-4.71,0-7,4.18-7,9.12V2430h-2.43Z"/><path class="cls-87" d="M730.77,2418.16c.05,6.26,3.2,10.14,7.86,10.14s6.11-2.57,7-4.56h2.48c-1,3.2-3.59,6.84-9.56,6.84-7.38,0-10.24-6.36-10.24-12.52,0-6.94,3.45-12.91,10.53-12.91,7.47,0,9.85,6.46,9.85,11,0,.68,0,1.36,0,2Zm15.38-2.14c0-4.8-2.67-8.59-7.43-8.59-5,0-7.27,3.5-7.81,8.59Z"/><path class="cls-87" d="M753.48,2435.53a30.9,30.9,0,0,0,3.39-11.74h2.43a30.33,30.33,0,0,1-3.64,11.74Z"/><path class="cls-87" d="M276.67,2497.2c-1.16,4.27-4,7.71-9.41,7.71-6.07,0-10.39-4.51-10.39-12.61,0-6.65,3.54-12.81,10.68-12.81a8.68,8.68,0,0,1,9.12,7.76H274.2c-.73-2.81-2.58-5.48-6.7-5.48-5.14,0-8.06,4.37-8.06,10.43,0,5.78,2.72,10.43,7.82,10.43,3.54,0,5.67-1.79,6.94-5.43Z"/><path class="cls-87" d="M304,2492.15c0,6.75-3.74,12.76-11,12.76-6.55,0-10.62-5.38-10.62-12.71,0-6.94,3.83-12.71,10.86-12.71C299.72,2479.49,304,2484.54,304,2492.15Zm-19,0c0,5.78,3.1,10.43,8.25,10.43s8.2-4.31,8.2-10.43c0-5.72-2.92-10.43-8.3-10.43C287.59,2481.77,285,2486.38,285,2492.2Z"/><path class="cls-87" d="M311.8,2504.33v-35.76h2.43v35.76Z"/><path class="cls-87" d="M324,2504.33v-35.76h2.42v35.76Z"/><path class="cls-87" d="M352.46,2499.72a28.24,28.24,0,0,0,.34,4.61h-2.33a15.88,15.88,0,0,1-.43-3.73c-.83,1.79-3,4.31-8,4.31-5.63,0-8.06-3.63-8.06-7.27,0-5.34,4.13-7.77,11.41-7.77H350v-2.47c0-2.43-.73-5.68-6.26-5.68-4.9,0-5.63,2.57-6.17,4.56h-2.42c.29-2.67,1.94-6.79,8.63-6.79,5.54,0,8.64,2.33,8.64,7.67Zm-2.38-7.76h-4.75c-5.39,0-8.74,1.41-8.74,5.58,0,3.06,2.19,5.14,5.58,5.14,6.94,0,7.91-4.61,7.91-9.85Z"/><path class="cls-87" d="M362.26,2468.57h2.43v15.58c1.16-2.43,3.54-4.66,8.3-4.66,5.72,0,9.94,4.71,9.94,12.18,0,7.66-3.78,13.24-10.57,13.24-4.08,0-6.41-1.65-7.67-4.41,0,1.55-.05,3.15-.1,3.83h-2.38c.05-2.76.05-5.53.05-8.3Zm18.1,23.15c0-6.07-3-9.95-7.62-9.95-6.06,0-8.2,4.12-8.2,10.48,0,5.73,1.9,10.38,7.91,10.38C377.35,2502.63,380.36,2498.56,380.36,2491.72Z"/><path class="cls-87" d="M410.69,2492.15c0,6.75-3.74,12.76-11,12.76-6.55,0-10.62-5.38-10.62-12.71,0-6.94,3.83-12.71,10.87-12.71C406.42,2479.49,410.69,2484.54,410.69,2492.15Zm-19,0c0,5.78,3.1,10.43,8.25,10.43s8.2-4.31,8.2-10.43c0-5.72-2.91-10.43-8.3-10.43S391.67,2486.38,391.67,2492.2Z"/><path class="cls-87" d="M418.5,2486.67c0-4.08-.05-5.82-.05-6.6h2.38c.05.78.1,2.33.1,5.43a9.18,9.18,0,0,1,8.44-6v2.62c-5.05.34-8.44,3.83-8.44,9.61v12.61H418.5Z"/><path class="cls-87" d="M451.84,2499.72a27.13,27.13,0,0,0,.34,4.61h-2.33a15.67,15.67,0,0,1-.44-3.73c-.83,1.79-3,4.31-8,4.31-5.63,0-8.05-3.63-8.05-7.27,0-5.34,4.12-7.77,11.4-7.77h4.61v-2.47c0-2.43-.73-5.68-6.26-5.68-4.9,0-5.63,2.57-6.16,4.56h-2.43c.29-2.67,1.94-6.79,8.64-6.79,5.53,0,8.64,2.33,8.64,7.67Zm-2.38-7.76H444.7c-5.38,0-8.73,1.41-8.73,5.58,0,3.06,2.18,5.14,5.58,5.14,6.94,0,7.91-4.61,7.91-9.85Z"/><path class="cls-87" d="M457.76,2480.07h4.51v-7.57h2.42v7.57h5.78v2.28h-5.78v15.77c0,2.72.59,4.27,2.92,4.27a9.3,9.3,0,0,0,2.52-.29v2.14a8.77,8.77,0,0,1-3,.43c-3.1,0-4.85-1.55-4.85-5.43v-16.89h-4.51Z"/><path class="cls-87" d="M477.46,2492.49c0,6.26,3.2,10.14,7.86,10.14s6.11-2.57,7-4.56h2.48c-1,3.21-3.59,6.84-9.56,6.84-7.38,0-10.24-6.35-10.24-12.51,0-6.94,3.45-12.91,10.53-12.91,7.47,0,9.85,6.45,9.85,11,0,.68,0,1.36-.05,2Zm15.38-2.13c0-4.81-2.67-8.59-7.43-8.59-5,0-7.27,3.49-7.81,8.59Z"/><path class="cls-87" d="M537.14,2492.15c0,6.75-3.74,12.76-11,12.76-6.55,0-10.62-5.38-10.62-12.71,0-6.94,3.83-12.71,10.87-12.71C532.87,2479.49,537.14,2484.54,537.14,2492.15Zm-19,0c0,5.78,3.1,10.43,8.25,10.43s8.2-4.31,8.2-10.43c0-5.72-2.91-10.43-8.3-10.43S518.12,2486.38,518.12,2492.2Z"/><path class="cls-87" d="M545,2486.18c0-2.13,0-4.17-.05-6.11h2.38c.1.78.15,3.93.1,4.61,1.07-2.47,3-5.19,8-5.19,4.32,0,8.15,2.42,8.15,9.12v15.72h-2.42V2489c0-4.32-1.8-7.13-6-7.13-5.77,0-7.76,4.8-7.76,10.09v12.37H545Z"/><path class="cls-87" d="M604.39,2499.72a27.13,27.13,0,0,0,.34,4.61H602.4a16.25,16.25,0,0,1-.44-3.73c-.82,1.79-3,4.31-8,4.31-5.63,0-8.06-3.63-8.06-7.27,0-5.34,4.13-7.77,11.41-7.77H602v-2.47c0-2.43-.72-5.68-6.25-5.68-4.91,0-5.63,2.57-6.17,4.56h-2.42c.29-2.67,1.94-6.79,8.63-6.79,5.54,0,8.64,2.33,8.64,7.67ZM602,2492h-4.75c-5.39,0-8.74,1.41-8.74,5.58,0,3.06,2.19,5.14,5.58,5.14,6.94,0,7.91-4.61,7.91-9.85Z"/><path class="cls-87" d="M631,2500.74V2514H628.6v-28c0-2,0-4.13,0-6h2.37c.1.92.1,2.38.1,4.37,1.5-2.91,4.17-5,8.54-5,5.73,0,9.7,4.8,9.7,12.08,0,8.73-4.65,13.34-10.52,13.34C634.48,2504.91,632.24,2503,631,2500.74Zm15.67-9.07c0-5.63-2.71-9.85-7.52-9.85-5.87,0-8.3,3.68-8.3,10.28s1.9,10.53,8,10.53C643.89,2502.63,646.7,2498.36,646.7,2491.67Z"/><path class="cls-87" d="M657.13,2486.67c0-4.08,0-5.82,0-6.6h2.37c0,.78.1,2.33.1,5.43a9.19,9.19,0,0,1,8.44-6v2.62c-5,.34-8.44,3.83-8.44,9.61v12.61h-2.43Z"/><path class="cls-87" d="M693.92,2492.15c0,6.75-3.74,12.76-11,12.76-6.55,0-10.63-5.38-10.63-12.71,0-6.94,3.84-12.71,10.87-12.71C689.65,2479.49,693.92,2484.54,693.92,2492.15Zm-19,0c0,5.78,3.11,10.43,8.25,10.43s8.2-4.31,8.2-10.43c0-5.72-2.91-10.43-8.29-10.43C677.51,2481.77,674.89,2486.38,674.89,2492.2Z"/><path class="cls-87" d="M704.59,2480.07v26c0,6.55-1.65,8.49-5.92,8.49-.1,0-1.07-.05-1.36-.1v-2.28a9.18,9.18,0,0,0,1.12.05c3.44,0,3.73-1.94,3.73-5.87v-26.25Zm-2.43-6.79v-4.71h2.43v4.71Z"/><path class="cls-87" d="M714.88,2492.49c0,6.26,3.2,10.14,7.86,10.14s6.11-2.57,7-4.56h2.48c-1,3.21-3.59,6.84-9.56,6.84-7.38,0-10.24-6.35-10.24-12.51,0-6.94,3.45-12.91,10.53-12.91,7.47,0,9.85,6.45,9.85,11,0,.68,0,1.36,0,2Zm15.38-2.13c0-4.81-2.67-8.59-7.43-8.59-5,0-7.27,3.49-7.81,8.59Z"/><path class="cls-87" d="M758.59,2497.2c-1.16,4.27-4,7.71-9.41,7.71-6.06,0-10.38-4.51-10.38-12.61,0-6.65,3.54-12.81,10.67-12.81a8.67,8.67,0,0,1,9.12,7.76h-2.47c-.73-2.81-2.57-5.48-6.7-5.48-5.14,0-8,4.37-8,10.43,0,5.78,2.72,10.43,7.81,10.43,3.54,0,5.68-1.79,6.94-5.43Z"/><path class="cls-87" d="M763,2480.07h4.51v-7.57h2.43v7.57h5.77v2.28H769.9v15.77c0,2.72.58,4.27,2.91,4.27a9.21,9.21,0,0,0,2.52-.29v2.14a8.68,8.68,0,0,1-3,.43c-3.11,0-4.86-1.55-4.86-5.43v-16.89H763Z"/><path class="cls-87" d="M780.72,2509.86a30.86,30.86,0,0,0,3.4-11.74h2.42a30.27,30.27,0,0,1-3.64,11.74Z"/><path class="cls-87" d="M240.08,2566.49c0,6.74-3.73,12.76-11,12.76-6.55,0-10.63-5.39-10.63-12.72,0-6.93,3.83-12.71,10.87-12.71C235.81,2553.82,240.08,2558.87,240.08,2566.49Zm-19,0c0,5.78,3.11,10.44,8.25,10.44s8.2-4.32,8.2-10.44c0-5.72-2.91-10.43-8.29-10.43C223.68,2556.1,221.06,2560.71,221.06,2566.53Z"/><path class="cls-87" d="M247.9,2561c0-4.07-.05-5.82-.05-6.6h2.38c0,.78.09,2.33.09,5.44a9.2,9.2,0,0,1,8.45-6v2.62c-5,.34-8.45,3.83-8.45,9.61v12.62H247.9Z"/><path class="cls-87" d="M279.82,2572c.83,3.15,3.06,5.05,6.89,5.05,4.32,0,6.07-2,6.07-4.71s-1.16-4.13-6.6-5.44c-6.26-1.5-7.81-3.39-7.81-6.6s2.52-6.45,8-6.45,8.11,3.35,8.5,6.79h-2.43c-.44-2-2-4.56-6.16-4.56s-5.44,2.09-5.44,4c0,2.23,1.17,3.35,6,4.51,6.84,1.65,8.54,3.89,8.54,7.52,0,4.42-3.59,7.14-8.68,7.14-5.54,0-8.64-2.91-9.32-7.28Z"/><path class="cls-87" d="M303.16,2542.9h2.43v4.71h-2.43Zm0,11.5h2.43v24.27h-2.43Z"/><path class="cls-87" d="M315.34,2560.66c0-2.08,0-4.36,0-6.26h2.38c.05.83.15,2.91.1,4.32a7.6,7.6,0,0,1,7.28-4.9c3.39,0,6.06,1.7,7,4.81a8.25,8.25,0,0,1,7.91-4.81c3.74,0,7.62,2.14,7.62,8.88v16h-2.43V2563c0-3.25-1.16-6.79-5.67-6.79-4.71,0-6.85,3.78-6.85,8.49v14h-2.37V2563c0-3.54-1.07-6.84-5.54-6.84-4.7,0-7,4.17-7,9.12v13.35h-2.43Z"/><path class="cls-87" d="M359.79,2575.07v13.3h-2.43v-28c0-2,0-4.12-.05-6h2.38c.1.93.1,2.38.1,4.37,1.5-2.91,4.17-4.95,8.54-4.95,5.72,0,9.7,4.81,9.7,12.08,0,8.74-4.65,13.35-10.53,13.35C363.23,2579.25,361,2577.35,359.79,2575.07Zm15.67-9.07c0-5.63-2.72-9.85-7.52-9.85-5.87,0-8.3,3.69-8.3,10.29s1.9,10.53,8,10.53C372.65,2577,375.46,2572.7,375.46,2566Z"/><path class="cls-87" d="M385.89,2578.67V2542.9h2.43v35.77Z"/><path class="cls-87" d="M397.93,2554.4c4.9,13.88,7,19.61,7.86,22.23h0c1-3,2.91-8.59,7.61-22.23H416l-9.12,25.67c-2.58,7.18-4.32,8.78-8.69,8.78a15.69,15.69,0,0,1-2.23-.14v-2.43a15.44,15.44,0,0,0,2.18.15c3.49,0,4.61-1.7,6.41-6.7l-9.27-25.33Z"/><path class="cls-87" d="M436.84,2572c.83,3.15,3.06,5.05,6.89,5.05,4.32,0,6.07-2,6.07-4.71s-1.17-4.13-6.6-5.44c-6.26-1.5-7.81-3.39-7.81-6.6s2.52-6.45,8-6.45,8.11,3.35,8.49,6.79h-2.42c-.44-2-2-4.56-6.16-4.56s-5.44,2.09-5.44,4c0,2.23,1.17,3.35,6,4.51,6.84,1.65,8.54,3.89,8.54,7.52,0,4.42-3.59,7.14-8.69,7.14-5.53,0-8.63-2.91-9.31-7.28Z"/><path class="cls-87" d="M477,2574.06a27.33,27.33,0,0,0,.34,4.61H475a15.79,15.79,0,0,1-.44-3.74c-.82,1.79-3,4.32-8,4.32-5.62,0-8.05-3.64-8.05-7.28,0-5.34,4.12-7.76,11.4-7.76h4.61v-2.48c0-2.43-.73-5.68-6.26-5.68-4.9,0-5.63,2.58-6.16,4.56h-2.43c.3-2.66,1.95-6.79,8.64-6.79,5.53,0,8.64,2.33,8.64,7.67Zm-2.38-7.77h-4.75c-5.39,0-8.74,1.41-8.74,5.58,0,3.06,2.18,5.15,5.58,5.15,6.94,0,7.91-4.61,7.91-9.85Z"/><path class="cls-87" d="M486,2554.4c4.9,13.88,7,19.61,7.86,22.23h.05c1-3,2.91-8.59,7.61-22.23H504l-9.12,25.67c-2.58,7.18-4.32,8.78-8.69,8.78a15.69,15.69,0,0,1-2.23-.14v-2.43a15.44,15.44,0,0,0,2.18.15c3.49,0,4.61-1.7,6.41-6.7l-9.27-25.33Z"/><path class="cls-87" d="M527.29,2542.9v15.58a8.46,8.46,0,0,1,8-4.66c3.45,0,8.2,1.75,8.2,9.41v15.44h-2.42v-15c0-4.8-2.19-7.52-6.21-7.52-4.81,0-7.57,3-7.57,8.93v13.54h-2.43V2542.9Z"/><path class="cls-87" d="M553.78,2566.83c.05,6.25,3.2,10.14,7.86,10.14s6.12-2.58,7-4.56h2.47c-1,3.2-3.59,6.84-9.56,6.84-7.37,0-10.23-6.36-10.23-12.52,0-6.94,3.44-12.91,10.53-12.91,7.47,0,9.85,6.45,9.85,11,0,.68,0,1.35-.05,2Zm15.38-2.14c0-4.8-2.67-8.59-7.42-8.59-5,0-7.28,3.5-7.81,8.59Z"/><path class="cls-87" d="M579.59,2578.67V2542.9H582v35.77Z"/><path class="cls-87" d="M591.77,2578.67V2542.9h2.43v35.77Z"/><path class="cls-87" d="M623.61,2566.49c0,6.74-3.74,12.76-11,12.76-6.55,0-10.63-5.39-10.63-12.72,0-6.93,3.84-12.71,10.87-12.71C619.33,2553.82,623.61,2558.87,623.61,2566.49Zm-19,0c0,5.78,3.11,10.44,8.25,10.44s8.2-4.32,8.2-10.44c0-5.72-2.91-10.43-8.29-10.43C607.2,2556.1,604.58,2560.71,604.58,2566.53Z"/><path class="cls-87" d="M627.49,2584.2a30.89,30.89,0,0,0,3.39-11.75h2.43a30.32,30.32,0,0,1-3.64,11.75Z"/><path class="cls-87" d="M656.41,2578.67v-22h-4.18v-2.28h4.18V2551c0-4.08,1.16-8.54,6.6-8.54a8.8,8.8,0,0,1,2.37.34v2.33a11.62,11.62,0,0,0-2.62-.29c-2.86,0-3.93,2-3.93,6.26v3.34h5.29v2.28h-5.29v22Z"/><path class="cls-87" d="M670.28,2566.83c.05,6.25,3.21,10.14,7.86,10.14s6.12-2.58,7-4.56h2.48c-1,3.2-3.59,6.84-9.56,6.84-7.38,0-10.24-6.36-10.24-12.52,0-6.94,3.44-12.91,10.53-12.91,7.47,0,9.85,6.45,9.85,11,0,.68,0,1.35-.05,2Zm15.39-2.14c0-4.8-2.67-8.59-7.43-8.59-5,0-7.28,3.5-7.81,8.59Z"/><path class="cls-87" d="M696.68,2566.83c.05,6.25,3.2,10.14,7.86,10.14s6.11-2.58,7-4.56H714c-1,3.2-3.59,6.84-9.56,6.84-7.37,0-10.23-6.36-10.23-12.52,0-6.94,3.44-12.91,10.52-12.91,7.48,0,9.85,6.45,9.85,11,0,.68,0,1.35,0,2Zm15.38-2.14c0-4.8-2.67-8.59-7.42-8.59-5,0-7.28,3.5-7.81,8.59Z"/><path class="cls-87" d="M722.49,2578.67V2542.9h2.43v35.77Z"/><path class="cls-87" d="M749.71,2578.67v-22h-4.17v-2.28h4.17V2551c0-4.08,1.17-8.54,6.6-8.54a8.82,8.82,0,0,1,2.38.34v2.33a11.69,11.69,0,0,0-2.62-.29c-2.86,0-3.93,2-3.93,6.26v3.34h5.29v2.28h-5.29v22Z"/><path class="cls-87" d="M763.3,2561c0-4.07,0-5.82,0-6.6h2.38c0,.78.1,2.33.1,5.44a9.19,9.19,0,0,1,8.44-6v2.62c-5,.34-8.44,3.83-8.44,9.61v12.62H763.3Z"/><path class="cls-87" d="M781,2566.83c0,6.25,3.21,10.14,7.86,10.14s6.12-2.58,7-4.56h2.48c-1,3.2-3.59,6.84-9.56,6.84-7.38,0-10.24-6.36-10.24-12.52,0-6.94,3.44-12.91,10.53-12.91,7.47,0,9.85,6.45,9.85,11,0,.68,0,1.35,0,2Zm15.38-2.14c0-4.8-2.66-8.59-7.42-8.59-5,0-7.28,3.5-7.81,8.59Z"/><path class="cls-87" d="M807.36,2566.83c0,6.25,3.2,10.14,7.86,10.14s6.11-2.58,7-4.56h2.47c-1,3.2-3.59,6.84-9.56,6.84-7.37,0-10.24-6.36-10.24-12.52,0-6.94,3.45-12.91,10.53-12.91,7.48,0,9.85,6.45,9.85,11,0,.68,0,1.35,0,2Zm15.38-2.14c0-4.8-2.67-8.59-7.42-8.59-5,0-7.28,3.5-7.82,8.59Z"/><path class="cls-87" d="M232.27,2628.74h4.51v-7.57h2.43v7.57H245V2631h-5.77v15.77c0,2.72.58,4.27,2.91,4.27a9.21,9.21,0,0,0,2.52-.29v2.13a8.5,8.5,0,0,1-3,.44c-3.1,0-4.85-1.55-4.85-5.44V2631h-4.51Z"/><path class="cls-87" d="M271.09,2640.82c0,6.74-3.74,12.76-11,12.76-6.55,0-10.62-5.38-10.62-12.71,0-6.94,3.83-12.71,10.86-12.71C266.82,2628.16,271.09,2633.2,271.09,2640.82Zm-19,0c0,5.77,3.1,10.43,8.25,10.43s8.2-4.32,8.2-10.43c0-5.73-2.92-10.43-8.3-10.43C254.69,2630.44,252.07,2635.05,252.07,2640.87Z"/><path class="cls-87" d="M293.31,2635.34c0-4.08-.05-5.83-.05-6.6h2.38c.05.77.1,2.33.1,5.43a9.17,9.17,0,0,1,8.44-6v2.62c-5.05.34-8.44,3.83-8.44,9.6V2653h-2.43Z"/><path class="cls-87" d="M311,2641.16c0,6.26,3.21,10.14,7.86,10.14s6.12-2.57,7-4.56h2.48c-1,3.2-3.59,6.84-9.56,6.84-7.38,0-10.24-6.36-10.24-12.52,0-6.94,3.44-12.9,10.53-12.9,7.47,0,9.85,6.45,9.85,11,0,.68,0,1.36-.05,2Zm15.38-2.14c0-4.8-2.66-8.58-7.42-8.58-5,0-7.28,3.49-7.81,8.58Z"/><path class="cls-87" d="M353.24,2648.39a27.33,27.33,0,0,0,.34,4.61h-2.33a15.7,15.7,0,0,1-.44-3.74c-.82,1.8-3,4.32-8,4.32-5.63,0-8.05-3.64-8.05-7.28,0-5.34,4.12-7.76,11.4-7.76h4.61v-2.48c0-2.42-.73-5.67-6.26-5.67-4.9,0-5.63,2.57-6.16,4.56H336c.29-2.67,1.94-6.79,8.64-6.79,5.53,0,8.64,2.32,8.64,7.66Zm-2.38-7.76H346.1c-5.38,0-8.73,1.4-8.73,5.58,0,3.05,2.18,5.14,5.58,5.14,6.94,0,7.91-4.61,7.91-9.85Z"/><path class="cls-87" d="M380.9,2645.87c-1.17,4.27-4,7.71-9.42,7.71-6.06,0-10.38-4.51-10.38-12.62,0-6.64,3.54-12.8,10.67-12.8,6.17,0,8.69,4.36,9.13,7.76h-2.48c-.73-2.82-2.57-5.48-6.7-5.48-5.14,0-8.05,4.36-8.05,10.43,0,5.77,2.72,10.43,7.81,10.43,3.54,0,5.68-1.79,6.94-5.43Z"/><path class="cls-87" d="M390.75,2617.24v15.57a8.44,8.44,0,0,1,8-4.65c3.45,0,8.2,1.74,8.2,9.41V2653h-2.42v-14.95c0-4.8-2.19-7.52-6.22-7.52-4.8,0-7.56,3-7.56,8.93V2653h-2.43v-35.76Z"/><path class="cls-87" d="M450.77,2640.82c0,6.74-3.74,12.76-11,12.76-6.55,0-10.63-5.38-10.63-12.71,0-6.94,3.84-12.71,10.87-12.71C446.5,2628.16,450.77,2633.2,450.77,2640.82Zm-19,0c0,5.77,3.1,10.43,8.25,10.43s8.2-4.32,8.2-10.43c0-5.73-2.92-10.43-8.3-10.43S431.75,2635.05,431.75,2640.87Z"/><path class="cls-87" d="M476.73,2645.92c0,2.37,0,6.16,0,7.08h-2.33a37.8,37.8,0,0,1-.15-4.22c-1,2.86-3.49,4.8-7.81,4.8-3.49,0-8-1.36-8-8.78v-16.06h2.38v15.48c0,3.54,1.11,7,5.92,7,5.43,0,7.47-3,7.47-10v-12.47h2.43Z"/><path class="cls-87" d="M483.42,2628.74h4.52v-7.57h2.42v7.57h5.78V2631h-5.78v15.77c0,2.72.58,4.27,2.91,4.27a9.33,9.33,0,0,0,2.53-.29v2.13a8.53,8.53,0,0,1-3,.44c-3.11,0-4.85-1.55-4.85-5.44V2631h-4.52Z"/><path class="cls-87" d="M501.18,2658.53a30.91,30.91,0,0,0,3.4-11.74H507a30.27,30.27,0,0,1-3.64,11.74Z"/><path class="cls-87" d="M532.87,2619v34h-2.62v-34Z"/><path class="cls-87" d="M541.41,2629a49.73,49.73,0,0,0,2.18-11.74h2.48a48.65,48.65,0,0,1-2.53,11.74Z"/><path class="cls-87" d="M552.08,2635c0-2.09,0-4.37-.05-6.26h2.38c.05.82.15,2.91.1,4.32a7.58,7.58,0,0,1,7.28-4.9c3.39,0,6.06,1.69,7,4.8a8.27,8.27,0,0,1,7.91-4.8c3.74,0,7.62,2.13,7.62,8.88v16h-2.43v-15.67c0-3.25-1.16-6.8-5.67-6.8-4.71,0-6.85,3.79-6.85,8.49v14H567v-15.62c0-3.55-1.07-6.85-5.53-6.85-4.71,0-7,4.18-7,9.13V2653h-2.43Z"/><path class="cls-87" d="M625.16,2648.39a27.33,27.33,0,0,0,.34,4.61h-2.33a15.7,15.7,0,0,1-.44-3.74c-.82,1.8-3,4.32-8,4.32-5.63,0-8-3.64-8-7.28,0-5.34,4.12-7.76,11.4-7.76h4.61v-2.48c0-2.42-.73-5.67-6.26-5.67-4.9,0-5.63,2.57-6.16,4.56h-2.43c.29-2.67,1.94-6.79,8.64-6.79,5.53,0,8.64,2.32,8.64,7.66Zm-2.38-7.76H618c-5.38,0-8.73,1.4-8.73,5.58,0,3.05,2.18,5.14,5.58,5.14,6.94,0,7.91-4.61,7.91-9.85Z"/><path class="cls-87" d="M633.65,2628.74c3.93,11.11,6.65,18.68,7.57,21.78h0c.53-1.79,3.25-9,8-21.78h2.58L642.63,2653h-2.92l-8.63-24.26Z"/><path class="cls-87" d="M674.55,2648.39a28.46,28.46,0,0,0,.34,4.61h-2.32a15.7,15.7,0,0,1-.44-3.74c-.83,1.8-3,4.32-8,4.32-5.63,0-8-3.64-8-7.28,0-5.34,4.12-7.76,11.4-7.76h4.61v-2.48c0-2.42-.73-5.67-6.26-5.67-4.9,0-5.63,2.57-6.16,4.56h-2.43c.29-2.67,1.94-6.79,8.64-6.79,5.53,0,8.63,2.32,8.63,7.66Zm-2.37-7.76h-4.76c-5.38,0-8.73,1.4-8.73,5.58,0,3.05,2.18,5.14,5.58,5.14,6.94,0,7.91-4.61,7.91-9.85Z"/><path class="cls-87" d="M684.36,2617.24h2.42v4.7h-2.42Zm0,11.5h2.42V2653h-2.42Z"/><path class="cls-87" d="M696.54,2653v-35.76H699V2653Z"/><path class="cls-87" d="M725,2648.39a27.33,27.33,0,0,0,.34,4.61H723a15.7,15.7,0,0,1-.44-3.74c-.82,1.8-3,4.32-8,4.32-5.62,0-8-3.64-8-7.28,0-5.34,4.12-7.76,11.4-7.76h4.61v-2.48c0-2.42-.72-5.67-6.26-5.67-4.9,0-5.63,2.57-6.16,4.56h-2.43c.3-2.67,2-6.79,8.64-6.79,5.53,0,8.64,2.32,8.64,7.66Zm-2.38-7.76h-4.75c-5.39,0-8.74,1.4-8.74,5.58,0,3.05,2.18,5.14,5.58,5.14,6.94,0,7.91-4.61,7.91-9.85Z"/><path class="cls-87" d="M734.82,2617.24h2.43v15.57c1.16-2.42,3.54-4.65,8.29-4.65,5.73,0,10,4.7,10,12.17,0,7.67-3.78,13.25-10.58,13.25-4.07,0-6.4-1.65-7.66-4.41,0,1.55,0,3.15-.1,3.83h-2.38c.05-2.77.05-5.53.05-8.3Zm18.1,23.14c0-6.06-3-9.94-7.62-9.94-6.06,0-8.2,4.12-8.2,10.48,0,5.72,1.89,10.38,7.91,10.38C749.91,2651.3,752.92,2647.22,752.92,2640.38Z"/><path class="cls-87" d="M763.3,2653v-35.76h2.43V2653Z"/><path class="cls-87" d="M776,2641.16c0,6.26,3.2,10.14,7.86,10.14s6.11-2.57,7-4.56h2.48c-1,3.2-3.59,6.84-9.56,6.84-7.38,0-10.24-6.36-10.24-12.52,0-6.94,3.45-12.9,10.53-12.9,7.47,0,9.85,6.45,9.85,11,0,.68,0,1.36,0,2ZM791.4,2639c0-4.8-2.67-8.58-7.43-8.58-5,0-7.27,3.49-7.81,8.58Z"/><path class="cls-87" d="M805,2642.13l-.24-17.08v-6h2.67v6l-.25,17.08Zm-.19,10.92v-5.78h2.47v5.78Z"/><rect class="cls-87" x="236.8" y="2709.75" width="547" height="106"/><text class="cls-88" transform="translate(319.06 2776.55)">C<tspan class="cls-89" x="28.01" y="0">ON</tspan><tspan class="cls-90" x="94.8" y="0">T</tspan><tspan class="cls-91" x="116.37" y="0">A</tspan><tspan class="cls-92" x="146.17" y="0">C</tspan><tspan class="cls-93" x="176.48" y="0">T ME! :)</tspan></text><g id="mail"><g class="cls-94"><g class="cls-94"><polygon class="cls-95" points="749.37 2742.54 722.26 2760.61 719.76 2762.28 717.25 2760.61 690.14 2742.54 749.37 2742.54"/><polyline class="cls-95" points="688.7 2742.01 688.7 2777.81 715.54 2759.91 688.7 2778.34 749.24 2778.34 723.97 2759.39 749.76 2778.34 750.66 2747.29 750.81 2742.01"/></g></g></g></g></g></svg>