<svg xmlns="http://www.w3.org/2000/svg" xmlns:xlink="http://www.w3.org/1999/xlink" viewBox="0 0 364.94 370.08"><defs><style>.cls-1{fill:#e6e6e6;}.cls-2{fill:#fff;}.cls-3{stroke:#000;stroke-width:1.5px;}.cls-21,.cls-3,.cls-31{stroke-miterlimit:10;}.cls-4{fill:#7f4c24;}.cls-5{fill:#cf9c6d;}.cls-6{fill:#75214f;}.cls-7{fill:#2fadd4;}.cls-8{fill:#e7394f;}.cls-9{fill:#7dd94f;}.cls-10{fill:#e76f45;}.cls-11{fill:#e6c129;}.cls-12{fill:#7f3700;}.cls-13{fill:#a75000;}.cls-14{fill:#5fd1b4;}.cls-15{fill:#ffb7b4;}.cls-16{fill:#ffd1b4;}.cls-17{fill:#a9143f;}.cls-18{fill:#fc9;}.cls-19{fill:#2a1600;}.cls-20{fill:#e7b38f;opacity:0.9;}.cls-21,.cls-31{fill:none;}.cls-21{stroke:#2a1600;}.cls-22{fill:#ff9f9b;}.cls-23{fill:#ff7b6d;opacity:0.8;}.cls-24{fill:url(#Summer);}.cls-25{fill:url(#Summer-2);}.cls-26{fill:url(#Summer-3);}.cls-27{fill:url(#Summer-4);}.cls-28{fill:url(#Summer-5);}.cls-29{fill:url(#Summer-6);}.cls-30{fill:url(#Summer-7);}.cls-31{stroke:#999;}.cls-32{fill:#999;}.cls-33{fill:#b3b3b3;}.cls-34{fill:gray;}.cls-35{fill:#a6a7a7;}</style><radialGradient id="Summer" cx="145.06" cy="157.88" r="3.54" gradientTransform="matrix(1, 0, 0, -1, 0, 224.18)" gradientUnits="userSpaceOnUse"><stop offset="0" stop-color="#fff"/><stop offset="0.09" stop-color="#ffedd8"/><stop offset="0.21" stop-color="#ffd5a7"/><stop offset="0.33" stop-color="#ffc17d"/><stop offset="0.46" stop-color="#ffb05b"/><stop offset="0.59" stop-color="#ffa340"/><stop offset="0.72" stop-color="#ff9a2d"/><stop offset="0.86" stop-color="#ff9522"/><stop offset="1" stop-color="#ff931e"/></radialGradient><radialGradient id="Summer-2" cx="147.06" cy="162.88" r="3.54" xlink:href="#Summer"/><radialGradient id="Summer-3" cx="142.06" cy="161.88" r="3.54" xlink:href="#Summer"/><radialGradient id="Summer-4" cx="246.56" cy="154.38" r="3.54" xlink:href="#Summer"/><radialGradient id="Summer-5" cx="235.18" cy="61.4" r="4.07" gradientTransform="matrix(-1, 0, 0, 1, 479.11, 0)" xlink:href="#Summer"/><radialGradient id="Summer-6" cx="246.95" cy="65.69" r="3.19" gradientTransform="translate(-81.52) scale(1.33 1)" xlink:href="#Summer"/><radialGradient id="Summer-7" cx="237.6" cy="65.2" r="3.63" gradientTransform="matrix(-1, 0, 0, 1, 479.11, 0)" xlink:href="#Summer"/></defs><g id="Layer_2" data-name="Layer 2"><g id="Layer_2-2" data-name="Layer 2"><path class="cls-1" d="M294.77,14.17c4.63-9.95,13.15-12.9,21.31-11.51,5.1.86,8.36,3.09,10,5,1-1.53,3.69-3.8,8-5.07,7.62-2.24,17.49,3.06,19,11.23,1.19,6.49-3.47,11.75-4.19,12.53a14.06,14.06,0,0,1,9.88,1.91c4.66,3.06,7.64,9.49,5.44,15.26-2.34,6.12-9.8,9.65-16.89,7.22a15.33,15.33,0,0,1,.49,5.67c0,.44-1,8.15-7,11.44-5.36,2.91-12.89,1.39-17.89-4.12a13.69,13.69,0,0,1-3.74,5.56c-5.23,4.62-15.31,5.74-20.73-.23-3.45-3.8-4.24-9.62-2.32-15a10.83,10.83,0,0,1-7.63,2.72c-5.54-.49-9.4-6.29-9.83-11.5-.55-6.59,4.45-11.39,5.05-11.9A14.11,14.11,0,0,1,280,29.72c-1.18-1.82-4.08-6.25-2.49-11.11,1-3.15,4.21-7.28,8.86-7.13C289.59,11.58,293.18,11,294.77,14.17Z"/><path class="cls-2" d="M293,12.13C297.57,2.19,306.09-.76,314.26.62c5.09.87,8.36,3.1,10,5,1-1.53,3.68-3.81,8-5.08,7.62-2.23,17.49,3.07,19,11.23,1.19,6.5-3.47,11.75-4.19,12.54a14,14,0,0,1,9.88,1.91c4.65,3.06,7.63,9.49,5.43,15.25-2.33,6.12-9.8,9.66-16.89,7.23a15.3,15.3,0,0,1,.5,5.67c-.05.44-1,8.14-7,11.44-5.36,2.9-12.89,1.38-17.89-4.12a13.82,13.82,0,0,1-3.73,5.56C312.09,71.84,302,73,296.59,67c-3.45-3.8-4.24-9.63-2.33-15a10.84,10.84,0,0,1-7.62,2.72c-5.54-.49-9.41-6.3-9.84-11.51-.54-6.58,4.45-11.39,5.05-11.9a14.25,14.25,0,0,1-3.63-3.65c-1.19-1.81-4.09-6.25-2.49-11.11,1-3.14,4.21-7.27,8.86-7.12C287.76,9.55,291.35,9,293,12.13Z"/><line class="cls-3" x1="305.11" y1="42.27" x2="307.88" y2="20.86"/><line class="cls-3" x1="326.05" y1="44.21" x2="328.56" y2="23.34"/><line class="cls-3" x1="329.05" y1="23.98" x2="307.27" y2="21.16"/><ellipse class="cls-3" cx="302.74" cy="42.91" rx="2.84" ry="2.08" transform="translate(0.9 91.76) rotate(-17.26)"/><ellipse class="cls-3" cx="323.77" cy="45.63" rx="2.84" ry="2.08" transform="translate(1.04 98.12) rotate(-17.26)"/><path class="cls-1" d="M12.35,64.86c-.53-9.29,6.28-17,14.33-17.68,6.32-.56,12.74,3.24,15.78,9.53,6.3-6.78,15.81-8.68,22.84-5.06s8.63,11,8.88,12.21A15.64,15.64,0,0,1,94,60.49a14.93,14.93,0,0,1,6.39,17c5.35-.18,10.12,2.25,11.68,5.91,2.18,5.13-1.74,13.33-10.53,15.55-.26,2-1.37,8.74-7.11,13.45-6.8,5.56-17.3,6-26.19,1-5.27,8.45-15.61,11.42-23.09,7.77-5.47-2.67-8.92-8.66-9-15.27-4.1,4.62-10.18,6.42-14.64,4.62-6.11-2.47-9.6-11.9-4.6-20.12-5.22.44-10.36-1.15-12.78-4.7C.37,80.25,2.86,70.08,12.35,64.86Z"/><path class="cls-2" d="M9.92,63.45c-.53-9.29,6.29-17,14.33-17.68C30.58,45.21,37,49,40,55.31c6.29-6.79,15.8-8.69,22.83-5.07s8.63,11,8.88,12.21a15.65,15.65,0,0,1,19.8-3.37,14.94,14.94,0,0,1,6.39,17c5.34-.17,10.12,2.25,11.67,5.91,2.19,5.14-1.73,13.33-10.52,15.55-.26,2-1.38,8.75-7.12,13.45-6.8,5.56-17.3,6-26.19,1-5.27,8.45-15.6,11.43-23.08,7.77-5.47-2.67-8.93-8.66-9-15.27-4.1,4.62-10.18,6.43-14.64,4.62-6.11-2.47-9.6-11.9-4.6-20.12-5.23.44-10.37-1.14-12.79-4.7C-2.06,78.85.43,68.67,9.92,63.45Z"/><path class="cls-4" d="M64.09,76.17c-6.93-8.9-18.37-10-21.35-10.13-4.57-.26-12.81-.72-17.44,4.89-3.92,4.75-3,11-2.76,12.34a18.76,18.76,0,0,0,5.53,10.38A22,22,0,0,0,40.52,100c3.62.5,9.19.26,10.14-2.07.51-1.25-.56-2.5.39-4.28a4.63,4.63,0,0,1,2.07-1.94c1.89-.9,3.6,0,5.61.31,3.3.54,7.62-.34,9.19-2.32C70.38,86.6,67,79.87,64.09,76.17Zm-35.25,3c-.05-.93,1.3-1.75,3-1.84S35,77.87,35,78.8s-1.3,1.74-3,1.83S28.89,80.05,28.84,79.13Zm4.49,8.44c-1.54.09-2.82-.53-2.87-1.37s1.17-1.58,2.71-1.67S36,85.07,36,85.9,34.87,87.49,33.33,87.57Zm5.61,6.1c-1.54.09-2.83-.59-2.88-1.52s1.16-1.74,2.7-1.82,2.83.6,2.88,1.52S40.48,93.59,38.94,93.67ZM38.36,74.2c-2,.1-3.6-.56-3.65-1.48s1.51-1.76,3.47-1.87,3.61.56,3.66,1.49S40.33,74.09,38.36,74.2Zm12.74,3c-1.71.1-3.14-.65-3.19-1.65s1.29-1.9,3-2,3.14.65,3.19,1.65S52.81,77.08,51.1,77.17Zm10.67,4.92c-1.45.08-2.67-.54-2.71-1.38s1.1-1.58,2.55-1.66,2.67.54,2.71,1.38S63.22,82,61.77,82.09Z"/><path class="cls-5" d="M63.46,75.9c-6.93-8.9-18.38-10-21.35-10.13-4.58-.26-12.82-.72-17.45,4.89-3.92,4.75-2.95,11-2.76,12.34a18.88,18.88,0,0,0,5.53,10.38,22,22,0,0,0,12.45,6.34c3.62.49,9.2.26,10.14-2.07.51-1.25-.56-2.5.39-4.28a4.64,4.64,0,0,1,2.08-1.94c1.89-.9,3.59,0,5.6.31,3.3.54,7.62-.34,9.2-2.33C69.74,86.33,66.34,79.6,63.46,75.9Zm-35.25,3c-.05-.93,1.29-1.75,3-1.84s3.14.58,3.19,1.5-1.3,1.75-3,1.84S28.26,79.78,28.21,78.86ZM32.7,87.3c-1.54.08-2.83-.53-2.87-1.37s1.16-1.58,2.7-1.67,2.83.53,2.87,1.37S34.24,87.22,32.7,87.3Zm5.6,6.1c-1.54.09-2.82-.6-2.87-1.52s1.15-1.74,2.69-1.82,2.83.6,2.88,1.52S39.84,93.32,38.3,93.4Zm-.57-19.47c-2,.1-3.6-.56-3.65-1.48s1.5-1.76,3.47-1.87,3.6.56,3.65,1.49S39.69,73.82,37.73,73.93Zm12.74,3c-1.71.09-3.14-.65-3.2-1.65s1.29-1.9,3-2,3.14.65,3.2,1.65S52.18,76.81,50.47,76.9Zm10.67,4.92c-1.46.08-2.67-.54-2.72-1.38s1.1-1.58,2.55-1.66,2.67.54,2.72,1.38S62.59,81.74,61.14,81.82Z"/><ellipse class="cls-6" cx="38.85" cy="92" rx="2.79" ry="1.67" transform="translate(-4.86 2.21) rotate(-3.06)"/><ellipse class="cls-7" cx="33.25" cy="86.05" rx="2.79" ry="1.52" transform="translate(-4.55 1.9) rotate(-3.06)"/><ellipse class="cls-8" cx="31.94" cy="78.96" rx="3.1" ry="1.67" transform="translate(-4.17 1.82) rotate(-3.06)"/><ellipse class="cls-9" cx="38.27" cy="72.53" rx="3.57" ry="1.67" transform="translate(-3.82 2.15) rotate(-3.06)"/><ellipse class="cls-10" cx="51" cy="75.35" rx="3.1" ry="1.83" transform="translate(-3.95 2.83) rotate(-3.06)"/><ellipse class="cls-11" cx="61.47" cy="80.81" rx="2.87" ry="1.75" transform="translate(-4.23 3.4) rotate(-3.06)"/><path class="cls-12" d="M83.13,77.89,71.94,102.73a4.05,4.05,0,0,1-5.38,1.76v-1.3L78.57,81C79.43,79.18,81,77.36,83.13,77.89Z"/><path class="cls-13" d="M82.87,77.93,70.13,102.51a3.91,3.91,0,0,1-5.2,1.67l.14-1.3,13.26-22C79.3,79.16,80.94,77.36,82.87,77.93Z"/><path class="cls-14" d="M88.11,71c-.51-.65-.89-.77-1.15-.74s-.43.27-.95.36a4.64,4.64,0,0,1-.62,0c-.41,0-.73,0-.93,0a.8.8,0,0,1-.31,0,1.19,1.19,0,0,1-.83-.58,12.41,12.41,0,0,0,1.28-1.93,13.67,13.67,0,0,0,1.08-2.7,9.25,9.25,0,0,1,1.82,3A9.86,9.86,0,0,1,88.11,71Z"/><path class="cls-15" d="M88,74c-.87,2.35-3.56,5-5.84,4.22a3.66,3.66,0,0,1-2.36-3.66c.21-1.43,1.62-1.83,3.26-3.6.15-.15.3-.33.45-.51l0,0c.46.42.77.47,1,.42.39-.08.46-.49.82-.52s.42.35.89.41.57-.19,1-.19.67.14,1.15.75h0A6.43,6.43,0,0,1,88,74Z"/><path class="cls-16" d="M87.78,73.69c-.87,2.35-3.56,5-5.84,4.22a3.66,3.66,0,0,1-2.36-3.66c.21-1.44,1.62-1.83,3.27-3.6l.44-.51,0,0c.46.42.77.46,1,.42.39-.08.46-.17.82-.52s.42.35.89.41.57-.19,1-.19.68.14,1.15.74h0A6.15,6.15,0,0,1,87.78,73.69Z"/><path class="cls-13" d="M69.38,103.61a8.36,8.36,0,0,0-1-.14,10.86,10.86,0,0,0-1.39,0,3.51,3.51,0,0,1-1.39,0,2.3,2.3,0,0,1-.55-.28"/></g><g id="Layer_4" data-name="Layer 4"><path id="body" class="cls-17" d="M281.56,236.92V362.59h-173V234.89a3.84,3.84,0,0,1,.09-.83l10.92-48.35a3.65,3.65,0,0,1,3.48-2.77,8.61,8.61,0,0,0,2.83-.61l16.7-6.71a8.24,8.24,0,0,0,2-1.14,4.06,4.06,0,0,1,2.47-.89,40.28,40.28,0,0,0,11.33-1.6,34.81,34.81,0,0,0,9.5-4.4c.28-.19.56-.38.83-.58a32.51,32.51,0,0,0,56.68,0c.27.2.55.39.83.58a37.5,37.5,0,0,0,20.83,6l1.48,0a3.63,3.63,0,0,1,2.71,1A8.5,8.5,0,0,0,253,176l15.58,9a8.53,8.53,0,0,0,4.25,1.14c.09,0,.17.79.26,1l0,.07,8.36,49.18A4.32,4.32,0,0,1,281.56,236.92Z"/><g id="head-neck"><path class="cls-18" d="M245.85,86a52.43,52.43,0,0,0-1.79-8.65,46.36,46.36,0,0,1-12-2c-5.53-1.69-9.18-4-14-7-8.52-5.38-12.81-8-16-13-2.52-3.93-2.87-6.68-5-7-2.76-.42-4.33,3.88-9,9-9.74,10.67-22.49,13.47-25,14a46.7,46.7,0,0,1-10,1,42.92,42.92,0,0,0-3,6,50.19,50.19,0,0,0-3,12.17,51.5,51.5,0,0,0-.4,6.3,48.35,48.35,0,0,0,.38,6.13,42.25,42.25,0,0,0,5,15.4c6.2,11,16,16.76,24.5,19.73a62.86,62.86,0,0,0,15.5,3.27,52.84,52.84,0,0,0,25.5-3.53,44.74,44.74,0,0,0,9.5-5.47c13.65-10.25,17.07-24.77,18-29,.08-.35.15-.7.22-1"/><path class="cls-19" d="M246.56,94.8l-.37-.08a53,53,0,0,0-2.13-17.42,46.36,46.36,0,0,1-12-2c-5.53-1.69-9.18-4-14-7-8.52-5.38-12.81-8-16-13-2.52-3.93-2.87-6.68-5-7-2.76-.42-4.33,3.88-9,9-9.74,10.67-22.49,13.47-25,14a46.7,46.7,0,0,1-10,1,42.92,42.92,0,0,0-3,6,52.15,52.15,0,0,0-3.41,18.47c-4.88-5.72-5.83-10.75-6.09-13-2.12-18.25,21.05-33.18,23.08-34.44l.92-.56c13.27-8,26.77-8.41,34-8a26.49,26.49,0,0,1,10-3c4.67-.42,23.86,3.64,34,21a45.35,45.35,0,0,1,5.57,16.61A46.4,46.4,0,0,1,246.56,94.8Z"/><g id="neck"><path class="cls-18" d="M225.4,167.22a32.51,32.51,0,0,1-56.68,0,25.23,25.23,0,0,0,7.41-8.16,3.73,3.73,0,0,0,.43-1.77V138a62.86,62.86,0,0,0,15.5,3.27,52.84,52.84,0,0,0,25.5-3.53v19.87a2.36,2.36,0,0,0,.27,1.11A24.81,24.81,0,0,0,225.4,167.22Z"/><path class="cls-20" d="M217.56,137.77v2.64c-3.17,7.55-11.09,12.89-20.34,12.89-9.58,0-17.72-5.72-20.66-13.68V138a62.86,62.86,0,0,0,15.5,3.27A52.84,52.84,0,0,0,217.56,137.77Z"/></g></g><g id="braid-left"><path class="cls-19" d="M147,102.9c-1.41,2.59-3.54,4.13-5.59,3.75-3-.54-4.69-5-3.79-9.84s4-8.41,7-7.86a3.93,3.93,0,0,1,2.37,1.52Z"/><path class="cls-19" d="M141.49,182.8l-2.36,0a5.49,5.49,0,0,1-4.74-8.35l6.17-10.14a.28.28,0,0,1,.48,0l5.3,10.48A5.49,5.49,0,0,1,141.49,182.8Z"/><path class="cls-19" d="M141.49,197.8l-2.36,0a5.49,5.49,0,0,1-4.74-8.35l6.17-10.14a.28.28,0,0,1,.48,0l5.3,10.48A5.49,5.49,0,0,1,141.49,197.8Z"/><path class="cls-19" d="M141.49,211.8l-2.36,0a5.49,5.49,0,0,1-4.74-8.35l6.17-10.14a.28.28,0,0,1,.48,0l5.3,10.48A5.49,5.49,0,0,1,141.49,211.8Z"/><path class="cls-19" d="M142.49,168.8l-2.36,0a5.49,5.49,0,0,1-4.74-8.35l6.17-10.14a.28.28,0,0,1,.48,0l5.3,10.48A5.49,5.49,0,0,1,142.49,168.8Z"/><path class="cls-19" d="M142.49,152.8l-2.36,0a5.49,5.49,0,0,1-4.74-8.35l6.17-10.14a.28.28,0,0,1,.48,0l5.3,10.48A5.49,5.49,0,0,1,142.49,152.8Z"/><path class="cls-19" d="M143.49,122.8l-2.36,0a5.49,5.49,0,0,1-4.74-8.35l6.17-10.14a.28.28,0,0,1,.48,0l5.3,10.48A5.49,5.49,0,0,1,143.49,122.8Z"/><path class="cls-19" d="M142.49,136.8l-2.36,0a5.49,5.49,0,0,1-4.74-8.35l6.17-10.14a.28.28,0,0,1,.48,0l5.3,10.48A5.49,5.49,0,0,1,142.49,136.8Z"/></g><g id="braid-right"><path class="cls-19" d="M249.09,103.65a4.44,4.44,0,0,1-3.81-1.4,51.5,51.5,0,0,0,.57-16.3c3-.55,6.13,3,7,7.86S252.08,103.11,249.09,103.65Z"/><path class="cls-19" d="M249,179.8l2.36,0a5.5,5.5,0,0,0,4.74-8.35L250,161.33a.28.28,0,0,0-.48,0l-5.3,10.48A5.49,5.49,0,0,0,249,179.8Z"/><path class="cls-19" d="M248,194.3l2.36,0a5.5,5.5,0,0,0,4.74-8.35L249,175.83a.28.28,0,0,0-.48,0l-5.3,10.48A5.49,5.49,0,0,0,248,194.3Z"/><path class="cls-19" d="M248,208.3l2.36,0a5.5,5.5,0,0,0,4.74-8.35L249,189.83a.28.28,0,0,0-.48,0l-5.3,10.48A5.49,5.49,0,0,0,248,208.3Z"/><path class="cls-19" d="M248,165.8l2.36,0a5.5,5.5,0,0,0,4.74-8.35L249,147.33a.28.28,0,0,0-.48,0l-5.3,10.48A5.49,5.49,0,0,0,248,165.8Z"/><path class="cls-19" d="M248,149.8l2.36,0a5.5,5.5,0,0,0,4.74-8.35L249,131.33a.28.28,0,0,0-.48,0l-5.3,10.48A5.49,5.49,0,0,0,248,149.8Z"/><path class="cls-19" d="M247,119.8l2.36,0a5.5,5.5,0,0,0,4.74-8.35L248,101.33a.28.28,0,0,0-.48,0l-5.3,10.48A5.49,5.49,0,0,0,247,119.8Z"/><path class="cls-19" d="M248,133.8l2.36,0a5.5,5.5,0,0,0,4.74-8.35L249,115.33a.28.28,0,0,0-.48,0l-5.3,10.48A5.49,5.49,0,0,0,248,133.8Z"/></g><g id="bangs-left"><path d="M196.56,46.8a25.56,25.56,0,0,1-1.64,7.94,27.36,27.36,0,0,1-4,7.13,25.53,25.53,0,0,1-6,5.56,27.69,27.69,0,0,1-3.56,2,24.08,24.08,0,0,1-3.81,1.37,33.78,33.78,0,0,0,6.93-4,30.25,30.25,0,0,0,5.64-5.55,32.47,32.47,0,0,0,4.08-6.79,31.18,31.18,0,0,0,1.38-3.75A36,36,0,0,0,196.56,46.8Z"/><path d="M195.59,32.77a10.38,10.38,0,0,1,2.63,3.6,6.62,6.62,0,0,1,.68,2.17,5,5,0,0,1-.29,2.26h-.1c-.26-.73-.42-1.42-.6-2.1s-.23-1.38-.44-2.05a12.19,12.19,0,0,0-1.95-3.81Z"/></g><g id="bangs-right"><path d="M197.56,47.8a39,39,0,0,0,2,7.78,34.59,34.59,0,0,0,3.62,7.09,35.25,35.25,0,0,0,5.1,6.14,43.51,43.51,0,0,0,6.29,5,31.26,31.26,0,0,1-6.68-4.57,32.53,32.53,0,0,1-5.33-6.14A32,32,0,0,1,199,55.77,29.77,29.77,0,0,1,197.56,47.8Z"/><path d="M205.48,37.3a5.19,5.19,0,0,0-3.56.55,5.28,5.28,0,0,0-2.36,2.95,5.48,5.48,0,0,1,2.08-3.36,5.9,5.9,0,0,1,4-1.13Z"/></g><g id="eyes-closed"><path class="cls-18" d="M168.56,95.05a6.31,6.31,0,0,1,1.12-4.48,5.09,5.09,0,0,1,8.47,0,6.32,6.32,0,0,1,1.13,4.48,7.74,7.74,0,0,0-1.74-4,4.63,4.63,0,0,0-7.25,0A7.57,7.57,0,0,0,168.56,95.05Z"/><path class="cls-18" d="M213.84,95.05A6.31,6.31,0,0,1,215,90.57a5.09,5.09,0,0,1,8.47,0,6.32,6.32,0,0,1,1.13,4.48,7.74,7.74,0,0,0-1.74-4,4.63,4.63,0,0,0-7.25,0A7.57,7.57,0,0,0,213.84,95.05Z"/></g><path id="smile-close" class="cls-21" d="M203.56,108.59a7.5,7.5,0,0,1-15,0"/><g id="mouth"><path class="cls-19" d="M206.06,107.3a11.11,11.11,0,0,1-2.23,6.75,8.92,8.92,0,0,1-14.54,0,11.11,11.11,0,0,1-2.23-6.75Z"/><ellipse class="cls-22" cx="196.56" cy="114.05" rx="7.27" ry="3.75"/></g><g id="eye-right"><ellipse class="cls-19" cx="219.76" cy="93.05" rx="5.21" ry="6.25"/><circle class="cls-2" cx="222.06" cy="90.3" r="1"/></g><g id="eye-left"><ellipse class="cls-19" cx="173.76" cy="93.05" rx="5.21" ry="6.25"/><circle class="cls-2" cx="176.06" cy="90.3" r="1"/></g><g id="blush"><ellipse class="cls-23" cx="165.06" cy="100.8" rx="4" ry="2.5"/><ellipse class="cls-23" cx="228.06" cy="100.8" rx="4" ry="2.5"/></g><g id="flower-left"><ellipse class="cls-24" cx="145.06" cy="66.3" rx="3" ry="4"/><ellipse class="cls-25" cx="147.06" cy="61.3" rx="3" ry="4"/><ellipse class="cls-26" cx="142.06" cy="62.3" rx="3" ry="4"/></g><g id="flower-right"><ellipse class="cls-27" cx="246.56" cy="69.8" rx="3" ry="4"/><ellipse class="cls-28" cx="243.93" cy="61.4" rx="3.45" ry="4.6"/><circle class="cls-29" cx="247.75" cy="65.69" r="3.61"/><ellipse class="cls-30" cx="241.51" cy="65.2" rx="3.08" ry="4.11"/></g><path class="cls-31" d="M67.56,360.63a73.79,73.79,0,0,1,20,1.3c9.73,2,14.34,4.93,20,6.5,7.64,2.12,19.08,2.22,35-7.8"/><path class="cls-32" d="M152.66,363.09a23.51,23.51,0,0,0,.39-29.5h81a23.51,23.51,0,0,0,.39,29.5Z"/><rect class="cls-33" x="97.06" y="204.59" width="196" height="129" rx="13.21"/><path class="cls-33" d="M247.06,363.09h-105a12,12,0,0,1,12-12h81A12,12,0,0,1,247.06,363.09Z"/><path class="cls-34" d="M195.06,257.59a10.13,10.13,0,0,0-8-10c-5.29-1-9.73,3.2-11,7-1.62,4.82,1.71,9.45,5,14a40,40,0,0,0,14,12"/><path class="cls-34" d="M194.63,257.59a10.13,10.13,0,0,1,8-10c5.29-1,9.73,3.2,11,7,1.62,4.82-1.71,9.45-5,14a40,40,0,0,1-14,12"/><path class="cls-35" d="M51.06,344.43V363l-16.3-.13c-.35-9.6,6.58-17.46,14.59-18.33A12.23,12.23,0,0,1,51.06,344.43Z"/><path class="cls-33" d="M67.77,363.09,51.06,363V344.43h.5C60,344.84,68.1,352.76,67.77,363.09Z"/><polygon class="cls-32" points="49.8 362.6 50.8 355.08 51.8 362.6 49.8 362.6"/></g></g></svg>