<svg xmlns="http://www.w3.org/2000/svg" xmlns:xlink="http://www.w3.org/1999/xlink" viewBox="0 0 297.28 554.03"><defs><style>.cls-1{fill:none;}.cls-2{clip-path:url(#clip-path);}.cls-3{fill:#fc9;}.cls-4{fill:#2a1600;}.cls-5{fill:#a9143f;}.cls-6{fill:#ff9f9b;}.cls-7{fill:#fff;}.cls-8{opacity:0.8;}.cls-9{clip-path:url(#clip-path-4);}.cls-10{fill:#ff7b6d;}.cls-11{clip-path:url(#clip-path-5);}.cls-12{opacity:0.9;}.cls-13{clip-path:url(#clip-path-6);}.cls-14{fill:#e7b38f;}.cls-15{clip-path:url(#clip-path-7);}.cls-16{fill:url(#radial-gradient);}.cls-17{clip-path:url(#clip-path-8);}.cls-18{fill:url(#radial-gradient-2);}.cls-19{clip-path:url(#clip-path-9);}.cls-20{fill:url(#radial-gradient-3);}.cls-21{clip-path:url(#clip-path-10);}.cls-22{fill:url(#radial-gradient-4);}.cls-23{clip-path:url(#clip-path-11);}.cls-24{fill:url(#radial-gradient-5);}.cls-25{clip-path:url(#clip-path-12);}.cls-26{fill:url(#radial-gradient-6);}.cls-27{clip-path:url(#clip-path-13);}.cls-28{fill:url(#radial-gradient-7);}.cls-29{fill:#999;}.cls-30{fill:#b3b3b3;}.cls-31{fill:gray;}.cls-32{clip-path:url(#clip-path-15);}.cls-33{fill:#e6e6e6;}.cls-34{fill:#7f4c24;}.cls-35{fill:#cf9c6d;}.cls-36{fill:#75214f;}.cls-37{fill:#2fadd4;}.cls-38{fill:#e7394f;}.cls-39{fill:#7dd94f;}.cls-40{fill:#e76f45;}.cls-41{fill:#e6c129;}.cls-42{fill:#7f3700;}.cls-43{fill:#a75000;}.cls-44{fill:#5fd1b4;}.cls-45{fill:#ffb7b4;}.cls-46{fill:#ffd1b4;}</style><clipPath id="clip-path" transform="translate(-17.25 0)"><rect class="cls-1" x="66" width="316.16" height="302"/></clipPath><clipPath id="clip-path-4" transform="translate(-17.25 0)"><rect class="cls-1" x="192.56" y="59.88" width="7.31" height="4.57"/></clipPath><clipPath id="clip-path-5" transform="translate(-17.25 0)"><rect class="cls-1" x="250.12" y="59.88" width="7.31" height="4.57"/></clipPath><clipPath id="clip-path-6" transform="translate(-17.25 0)"><rect class="cls-1" x="206.72" y="95.94" width="37.46" height="14.19"/></clipPath><clipPath id="clip-path-7" transform="translate(-17.25 0)"><path class="cls-1" d="M175.2,30.64c0,2,1.23,3.65,2.74,3.65s2.74-1.63,2.74-3.65S179.46,27,177.94,27s-2.74,1.64-2.74,3.66"/></clipPath><radialGradient id="radial-gradient" cx="-332.15" cy="-466.71" r="0.91" gradientTransform="translate(1335 1680.72) scale(3.54)" gradientUnits="userSpaceOnUse"><stop offset="0" stop-color="#fff"/><stop offset="0.08" stop-color="#ffedd9"/><stop offset="0.21" stop-color="#ffd5a8"/><stop offset="0.33" stop-color="#ffc17d"/><stop offset="0.46" stop-color="#ffb05b"/><stop offset="0.59" stop-color="#ffa340"/><stop offset="0.72" stop-color="#ff9a2d"/><stop offset="0.86" stop-color="#ff9522"/><stop offset="1" stop-color="#ff931e"/></radialGradient><clipPath id="clip-path-8" transform="translate(-17.25 0)"><path class="cls-1" d="M177,26.07c0,2,1.23,3.66,2.74,3.66s2.74-1.64,2.74-3.66-1.23-3.65-2.74-3.65S177,24.05,177,26.07"/></clipPath><radialGradient id="radial-gradient-2" cx="-332.19" cy="-466.59" r="0.91" gradientTransform="translate(1337 1675.72) scale(3.54)" xlink:href="#radial-gradient"/><clipPath id="clip-path-9" transform="translate(-17.25 0)"><path class="cls-1" d="M267.94,33.84c0,2,1.22,3.65,2.74,3.65s2.74-1.64,2.74-3.65-1.23-3.66-2.74-3.66-2.74,1.64-2.74,3.66"/></clipPath><radialGradient id="radial-gradient-3" cx="-334.62" cy="-466.8" r="0.91" gradientTransform="translate(1436.5 1684.22) scale(3.54)" xlink:href="#radial-gradient"/><clipPath id="clip-path-10" transform="translate(-17.25 0)"><path class="cls-1" d="M172.46,27c0,2,1.23,3.66,2.74,3.66S177.94,29,177.94,27s-1.23-3.65-2.74-3.65S172.46,25,172.46,27"/></clipPath><radialGradient id="radial-gradient-4" cx="-332.07" cy="-466.61" r="0.91" gradientTransform="translate(1332 1676.72) scale(3.54)" xlink:href="#radial-gradient"/><clipPath id="clip-path-11" transform="translate(-17.25 0)"><path class="cls-1" d="M265.13,26.16c0,2.32,1.41,4.2,3.15,4.2s3.15-1.88,3.15-4.2S270,22,268.28,22s-3.15,1.88-3.15,4.2"/></clipPath><radialGradient id="radial-gradient-5" cx="-615.82" cy="-1052.53" r="0.91" gradientTransform="translate(-2252.8 -4253.27) rotate(180) scale(4.07)" xlink:href="#radial-gradient"/><clipPath id="clip-path-12" transform="translate(-17.25 0)"><path class="cls-1" d="M268.39,29.73a3.66,3.66,0,1,0,3.66-3.66,3.66,3.66,0,0,0-3.66,3.66"/></clipPath><radialGradient id="radial-gradient-6" cx="-372.25" cy="-1093.31" r="0.91" gradientTransform="matrix(4.71, 0, 0, -3.54, 2009.58, -3835.72)" xlink:href="#radial-gradient"/><clipPath id="clip-path-13" transform="translate(-17.25 0)"><path class="cls-1" d="M262.62,29.18c0,2.32,1.41,4.2,3.15,4.2s3.15-1.88,3.15-4.2S267.51,25,265.77,25s-3.15,1.89-3.15,4.21"/></clipPath><radialGradient id="radial-gradient-7" cx="-615.88" cy="-1052.46" r="0.91" gradientTransform="translate(-2255.55 -4249.97) rotate(180) scale(4.07)" xlink:href="#radial-gradient"/><clipPath id="clip-path-15" transform="translate(-17.25 0)"><rect class="cls-1" x="17.72" y="400.18" width="214.47" height="152.71" transform="translate(-134.73 57.89) rotate(-17.12)"/></clipPath></defs><g id="Layer_2" data-name="Layer 2"><g id="text"><g id="bang_pan" data-name="bang pan"><g class="cls-2"><g class="cls-2"><g class="cls-2"><path class="cls-3" d="M270,48.59a47.36,47.36,0,0,0-1.64-7.9,42.48,42.48,0,0,1-11-1.83c-5.05-1.54-8.39-3.62-12.79-6.39-7.78-4.92-11.7-7.34-14.62-11.88-2.3-3.59-2.62-6.1-4.57-6.4-2.52-.38-3.95,3.55-8.22,8.23-8.9,9.74-20.55,12.3-22.84,12.79a42.94,42.94,0,0,1-9.14.91,38.83,38.83,0,0,0-2.74,5.48,45.8,45.8,0,0,0-2.75,11.12,46.88,46.88,0,0,0-.37,5.76,45.49,45.49,0,0,0,.35,5.6,38.69,38.69,0,0,0,4.6,14.07c5.66,10.1,14.65,15.31,22.38,18a57.23,57.23,0,0,0,14.16,3,48.18,48.18,0,0,0,23.3-3.22,40.92,40.92,0,0,0,8.68-5c12.47-9.36,15.6-22.63,16.45-26.5.07-.32.14-.64.2-1" transform="translate(-17.25 0)"/><path class="cls-4" d="M270.68,56.68a2.05,2.05,0,0,0-.34-.07,48.38,48.38,0,0,0-1.95-15.92,42.48,42.48,0,0,1-11-1.83c-5.05-1.54-8.39-3.62-12.79-6.39-7.78-4.92-11.7-7.34-14.62-11.88-2.3-3.59-2.62-6.1-4.57-6.4-2.52-.38-3.95,3.55-8.22,8.23-8.9,9.74-20.55,12.3-22.84,12.79a42.94,42.94,0,0,1-9.14.91,38.83,38.83,0,0,0-2.74,5.48,47.62,47.62,0,0,0-3.12,16.88c-4.45-5.23-5.32-9.82-5.56-11.85C171.89,30,193.06,16.31,194.92,15.16c.36-.23.65-.39.84-.51C207.88,7.32,220.22,7,226.82,7.34A24.16,24.16,0,0,1,236,4.6c4.27-.38,21.8,3.33,31.06,19.19A41.27,41.27,0,0,1,272.11,39a42.3,42.3,0,0,1-1.43,17.72" transform="translate(-17.25 0)"/><path class="cls-5" d="M302.66,186.72V301.54H144.59V184.87a3.16,3.16,0,0,1,.09-.76l10-44.18a3.34,3.34,0,0,1,3.18-2.53,7.92,7.92,0,0,0,2.59-.56l15.26-6.13a7.48,7.48,0,0,0,1.83-1,3.74,3.74,0,0,1,2.26-.81,36.87,36.87,0,0,0,10.35-1.46,31.73,31.73,0,0,0,8.68-4l.76-.53a29.72,29.72,0,0,0,51.79,0c.24.18.5.35.75.53a34.35,34.35,0,0,0,19,5.48l1.35,0a3.27,3.27,0,0,1,2.47.93,7.57,7.57,0,0,0,1.62,1.24l14.24,8.23a7.79,7.79,0,0,0,3.88,1c.08,0,.15.72.24.88l0,.06,7.64,44.93a3.77,3.77,0,0,1,.05.57" transform="translate(-17.25 0)"/><path class="cls-3" d="M251.35,122.85a29.72,29.72,0,0,1-51.79,0,23.1,23.1,0,0,0,6.77-7.46,3.34,3.34,0,0,0,.39-1.62V96.18a57.23,57.23,0,0,0,14.16,3,48.18,48.18,0,0,0,23.3-3.22v18.15a2.11,2.11,0,0,0,.25,1,22.66,22.66,0,0,0,6.92,7.74" transform="translate(-17.25 0)"/><path class="cls-4" d="M179.74,64.08c-1.29,2.37-3.23,3.77-5.11,3.43-2.73-.5-4.28-4.53-3.46-9s3.69-7.68,6.42-7.18a3.61,3.61,0,0,1,2.17,1.39Z" transform="translate(-17.25 0)"/><path class="cls-4" d="M174.68,137.08l-2.15,0a5,5,0,0,1-4.34-7.63l5.64-9.27a.26.26,0,0,1,.44,0l4.85,9.57a5,5,0,0,1-4.44,7.29" transform="translate(-17.25 0)"/><path class="cls-4" d="M174.68,150.79h-2.15a5,5,0,0,1-4.34-7.62l5.64-9.27a.25.25,0,0,1,.44,0l4.85,9.57a5,5,0,0,1-4.44,7.29" transform="translate(-17.25 0)"/><path class="cls-4" d="M174.68,163.58l-2.15,0a5,5,0,0,1-4.34-7.63l5.64-9.27a.25.25,0,0,1,.44,0l4.85,9.57a5,5,0,0,1-4.44,7.29" transform="translate(-17.25 0)"/><path class="cls-4" d="M175.6,124.29l-2.16,0a5,5,0,0,1-4.33-7.63l5.64-9.27a.25.25,0,0,1,.44,0L180,117a5,5,0,0,1-4.43,7.29" transform="translate(-17.25 0)"/><path class="cls-4" d="M175.6,109.67l-2.16,0a5,5,0,0,1-4.33-7.63l5.64-9.27a.26.26,0,0,1,.44,0l4.84,9.57a5,5,0,0,1-4.43,7.29" transform="translate(-17.25 0)"/><path class="cls-4" d="M176.51,82.26l-2.15,0A5,5,0,0,1,170,74.65l5.64-9.27a.26.26,0,0,1,.44,0L180.94,75a5,5,0,0,1-4.43,7.29" transform="translate(-17.25 0)"/><path class="cls-4" d="M175.6,95.05l-2.16,0a5,5,0,0,1-4.33-7.63l5.64-9.26a.25.25,0,0,1,.44,0L180,87.76a5,5,0,0,1-4.43,7.29" transform="translate(-17.25 0)"/><path class="cls-4" d="M273,64.76a4.05,4.05,0,0,1-3.48-1.27,47.46,47.46,0,0,0,.83-6.88,46.56,46.56,0,0,0-.31-8c2.72-.5,5.6,2.72,6.42,7.18s-.73,8.5-3.46,9" transform="translate(-17.25 0)"/><path class="cls-4" d="M272.94,134.34l2.15,0a5,5,0,0,0,4.34-7.63l-5.64-9.27a.25.25,0,0,0-.44,0l-4.84,9.57a5,5,0,0,0,4.43,7.29" transform="translate(-17.25 0)"/><path class="cls-4" d="M272,147.59l2.15,0a5,5,0,0,0,4.33-7.63l-5.63-9.27a.25.25,0,0,0-.44,0l-4.85,9.57a5,5,0,0,0,4.44,7.29" transform="translate(-17.25 0)"/><path class="cls-4" d="M272,160.38l2.15,0a5,5,0,0,0,4.33-7.63l-5.63-9.27a.25.25,0,0,0-.44,0l-4.85,9.57a5,5,0,0,0,4.44,7.29" transform="translate(-17.25 0)"/><path class="cls-4" d="M272,121.55l2.15,0a5,5,0,0,0,4.33-7.63l-5.63-9.27a.25.25,0,0,0-.44,0l-4.85,9.57a5,5,0,0,0,4.44,7.29" transform="translate(-17.25 0)"/><path class="cls-4" d="M272,106.93l2.15,0a5,5,0,0,0,4.33-7.63l-5.63-9.27a.25.25,0,0,0-.44,0l-4.85,9.57a5,5,0,0,0,4.44,7.29" transform="translate(-17.25 0)"/><path class="cls-4" d="M271.11,79.52l2.15,0a5,5,0,0,0,4.34-7.63L272,62.64a.25.25,0,0,0-.44,0l-4.84,9.57a5,5,0,0,0,4.43,7.29" transform="translate(-17.25 0)"/><path class="cls-4" d="M272,92.31l2.15,0a5,5,0,0,0,4.33-7.63l-5.63-9.27a.26.26,0,0,0-.44,0L267.59,85A5,5,0,0,0,272,92.31" transform="translate(-17.25 0)"/><path d="M225.91,13.74a35.93,35.93,0,0,0,1.82,7.1A31.17,31.17,0,0,0,231,27.32a32.08,32.08,0,0,0,4.66,5.61,39.64,39.64,0,0,0,5.74,4.56,28.71,28.71,0,0,1-6.1-4.18,29.66,29.66,0,0,1-4.87-5.61A29.32,29.32,0,0,1,227.23,21a27,27,0,0,1-1.32-7.27" transform="translate(-17.25 0)"/><path d="M225,12.82a23.27,23.27,0,0,1-1.5,7.26,24.87,24.87,0,0,1-3.66,6.51,23.33,23.33,0,0,1-5.46,5.08,27.44,27.44,0,0,1-3.26,1.83,22.93,22.93,0,0,1-3.48,1.25A31.77,31.77,0,0,0,214,31.1,27.23,27.23,0,0,0,219.12,26a29.34,29.34,0,0,0,3.73-6.21,25.43,25.43,0,0,0,1.26-3.42,30.53,30.53,0,0,0,.89-3.57" transform="translate(-17.25 0)"/><path d="M224.12,0a9.65,9.65,0,0,1,2.4,3.29,6.26,6.26,0,0,1,.62,2,4.56,4.56,0,0,1-.27,2.07h-.09c-.24-.67-.38-1.3-.54-1.92s-.22-1.26-.41-1.88A11,11,0,0,0,224.05.06Z" transform="translate(-17.25 0)"/><path d="M233.15,4.14a4.65,4.65,0,0,0-3.25.51,4.77,4.77,0,0,0-2.16,2.69,5,5,0,0,1,1.91-3.07,5.34,5.34,0,0,1,3.63-1Z" transform="translate(-17.25 0)"/><path class="cls-4" d="M251,55.08c0,3.15-2.13,5.71-4.76,5.71s-4.76-2.56-4.76-5.71,2.13-5.71,4.76-5.71S251,51.93,251,55.08" transform="translate(-17.25 0)"/><path class="cls-4" d="M208.93,55.08c0,3.15-2.13,5.71-4.76,5.71s-4.76-2.56-4.76-5.71,2.13-5.71,4.76-5.71,4.76,2.56,4.76,5.71" transform="translate(-17.25 0)"/><path class="cls-4" d="M233.68,66.73a10.18,10.18,0,0,1-2,6.17,8.17,8.17,0,0,1-13.29,0,10.17,10.17,0,0,1-2-6.17Z" transform="translate(-17.25 0)"/><path class="cls-6" d="M231.64,72.9a8.17,8.17,0,0,1-13.29,0,8.15,8.15,0,0,1,13.29,0" transform="translate(-17.25 0)"/><path class="cls-7" d="M249.21,52.57a.92.92,0,1,1-.92-.92.92.92,0,0,1,.92.92" transform="translate(-17.25 0)"/><path class="cls-7" d="M207.18,52.57a.92.92,0,1,1-.91-.92.91.91,0,0,1,.91.92" transform="translate(-17.25 0)"/><g class="cls-8"><g class="cls-9"><path class="cls-10" d="M199.87,62.16c0,1.26-1.64,2.28-3.65,2.28s-3.66-1-3.66-2.28,1.64-2.28,3.66-2.28,3.65,1,3.65,2.28" transform="translate(-17.25 0)"/></g></g><g class="cls-8"><g class="cls-11"><path class="cls-10" d="M257.43,62.16c0,1.26-1.64,2.28-3.65,2.28s-3.66-1-3.66-2.28,1.64-2.28,3.66-2.28,3.65,1,3.65,2.28" transform="translate(-17.25 0)"/></g></g><g class="cls-12"><g class="cls-13"><path class="cls-14" d="M244.18,95.94v2.41c-2.89,6.9-10.13,11.78-18.58,11.78-8.75,0-16.19-5.23-18.88-12.5V96.18a57.23,57.23,0,0,0,14.16,3,48.31,48.31,0,0,0,23.3-3.22" transform="translate(-17.25 0)"/></g></g></g><g class="cls-15"><rect class="cls-16" x="157.95" y="26.98" width="5.48" height="7.31"/></g><g class="cls-17"><rect class="cls-18" x="159.78" y="22.42" width="5.48" height="7.31"/></g><g class="cls-19"><rect class="cls-20" x="250.69" y="30.18" width="5.48" height="7.31"/></g><g class="cls-21"><rect class="cls-22" x="155.21" y="23.33" width="5.48" height="7.31"/></g><g class="cls-23"><rect class="cls-24" x="247.88" y="21.96" width="6.3" height="8.41"/></g><g class="cls-25"><rect class="cls-26" x="251.14" y="26.07" width="7.31" height="7.31"/></g><g class="cls-27"><rect class="cls-28" x="245.36" y="24.97" width="6.3" height="8.41"/></g><g class="cls-2"><path class="cls-29" d="M186.26,302a21.49,21.49,0,0,0,.35-27h74a21.49,21.49,0,0,0,.35,27Z" transform="translate(-17.25 0)"/><path class="cls-30" d="M314.53,169.25V263A12.07,12.07,0,0,1,302.47,275H147.53A12.08,12.08,0,0,1,135.46,263V169.25a12.08,12.08,0,0,1,12.07-12.07H302.47a12.07,12.07,0,0,1,12.06,12.07" transform="translate(-17.25 0)"/><path class="cls-30" d="M272.51,301.54H176.57a11,11,0,0,1,11-11h74a11,11,0,0,1,11,11" transform="translate(-17.25 0)"/><path class="cls-31" d="M225,205.61a9.24,9.24,0,0,0-7.31-9.14c-4.84-.87-8.89,2.93-10.05,6.39-1.48,4.4,1.57,8.63,4.56,12.8a36.64,36.64,0,0,0,12.8,11" transform="translate(-17.25 0)"/><path class="cls-31" d="M224.61,205.61a9.24,9.24,0,0,1,7.31-9.14c4.83-.87,8.89,2.93,10.05,6.39,1.48,4.4-1.57,8.63-4.57,12.8a36.49,36.49,0,0,1-12.79,11" transform="translate(-17.25 0)"/><path class="cls-29" d="M105.5,301.66l-30.16-.24c-.32-8.77,6-15.95,13.33-16.75a12.4,12.4,0,0,1,2-.05c7.74.36,15.11,7.6,14.81,17" transform="translate(-17.25 0)"/></g></g></g></g></g><g id="illustrations"><g id="Artwork_4" data-name="Artwork 4"><g class="cls-32"><g class="cls-32"><path class="cls-33" d="M34.49,462.11c-5.39-17.31,3.61-35,18.2-40.06,11.48-4,25.21.22,33.85,10.72C95,417,111.76,409,126.53,412.62c14.53,3.53,21.26,16.85,22.29,19,6.53-13.36,21.75-19.85,35.16-15.53,12.09,3.89,20.38,15.81,19.93,29.1,9.84-2.79,19.86-.42,24.49,5.77,6.5,8.71,3.12,26-12.16,34.29.5,4,1.61,17.17-6.81,28.72-10,13.68-29.25,19.46-48.14,14-5.77,18.42-23.55,28.82-39.18,25.37-11.43-2.52-20.69-12.24-24-24.7-5.41,10.65-15.84,16.88-25,15.53C60.56,542.35,49.6,526.13,55,508.27c-9.49,3.26-19.79,2.63-26-3-9.43-8.54-9.65-28.93,5.49-43.2" transform="translate(-17.25 0)"/><path class="cls-7" d="M29.32,460.57c-5.4-17.31,3.61-35,18.2-40.06,11.48-4,25.2.22,33.84,10.72,8.47-15.74,25.23-23.74,40-20.15,14.53,3.54,21.26,16.85,22.29,19,6.52-13.36,21.75-19.85,35.16-15.53,12.09,3.89,20.38,15.81,19.93,29.1,9.84-2.79,19.86-.42,24.48,5.78,6.5,8.7,3.12,26-12.15,34.28.49,4,1.61,17.17-6.81,28.72-10,13.68-29.25,19.46-48.15,14.05-5.77,18.42-23.54,28.82-39.17,25.38-11.43-2.53-20.69-12.25-24-24.7C87.48,537.78,77,544,67.91,542.66c-12.52-1.85-23.49-18.07-18.11-35.93-9.5,3.26-19.79,2.63-26-3-9.43-8.54-9.65-28.93,5.49-43.2" transform="translate(-17.25 0)"/><path class="cls-34" d="M136,459.56c-17.11-13.64-38.86-10.35-44.47-9.28-8.61,1.63-24.13,4.56-30.06,17.33-5,10.79-.23,22.26.75,24.61,4.13,9.92,11.73,14.87,15.19,17.06a42.08,42.08,0,0,0,26.14,6.23c7-.74,17.19-3.76,17.84-8.6.35-2.6-2.23-4.47-1.31-8.29A9,9,0,0,1,123,494c3.08-2.56,6.67-1.71,10.55-2,6.39-.5,14-4.17,16-8.64,3.09-7-6.43-18.12-13.53-23.78m-64.05,21.9c-.54-1.73,1.58-3.9,4.71-4.87s6.1-.35,6.63,1.38-1.58,3.9-4.71,4.86-6.1.35-6.63-1.37m12.35,13.9c-2.82.86-5.5.3-6-1.27s1.41-3.54,4.23-4.41,5.5-.3,6,1.27-1.41,3.54-4.23,4.41m13.31,8.94c-2.82.86-5.53.17-6.07-1.55s1.33-3.82,4.15-4.69,5.53-.18,6.07,1.55-1.33,3.82-4.15,4.69M87.24,467.73c-3.6,1.11-6.95.61-7.48-1.11s2-4,5.56-5.13,7-.61,7.48,1.11-2,4-5.56,5.13m25.07-.27c-3.13,1-6.14.22-6.72-1.65s1.49-4.19,4.62-5.15,6.15-.23,6.72,1.65-1.49,4.19-4.62,5.15m22.15,4.36c-2.66.82-5.22.21-5.7-1.35s1.29-3.5,4-4.32,5.21-.22,5.7,1.35-1.29,3.5-3.95,4.32" transform="translate(-17.25 0)"/><path class="cls-35" d="M134.65,459.34c-17.1-13.64-38.86-10.35-44.47-9.28-8.61,1.63-24.13,4.57-30.06,17.33-5,10.79-.23,22.26.75,24.61,4.13,9.92,11.73,14.87,15.19,17.06a42.08,42.08,0,0,0,26.14,6.23c7-.74,17.19-3.75,17.84-8.6.35-2.6-2.23-4.47-1.31-8.29a9,9,0,0,1,2.93-4.63c3.08-2.56,6.67-1.7,10.56-2,6.38-.5,14-4.17,16-8.64,3.1-7-6.43-18.12-13.53-23.78M70.6,481.24c-.53-1.72,1.58-3.9,4.71-4.86s6.1-.36,6.63,1.37-1.58,3.9-4.71,4.86-6.1.36-6.63-1.37M83,495.14c-2.82.86-5.5.3-6-1.27s1.41-3.54,4.23-4.41,5.5-.3,6,1.27-1.41,3.54-4.23,4.41m13.31,8.94c-2.82.87-5.53.18-6.06-1.55s1.32-3.82,4.14-4.69,5.53-.18,6.07,1.55-1.33,3.82-4.15,4.69M85.93,467.51c-3.6,1.11-7,.62-7.48-1.11s2-4,5.56-5.13,6.95-.61,7.48,1.11-2,4-5.56,5.13m25.07-.26c-3.13,1-6.14.22-6.72-1.66s1.49-4.19,4.62-5.15,6.15-.22,6.72,1.65-1.49,4.19-4.62,5.16m22.15,4.35c-2.66.82-5.21.22-5.7-1.35s1.29-3.5,4-4.32,5.21-.21,5.7,1.35-1.29,3.5-3.95,4.32" transform="translate(-17.25 0)"/><path class="cls-36" d="M101.72,499.6c.53,1.73-1.33,3.83-4.15,4.7s-5.53.17-6.07-1.55,1.33-3.82,4.15-4.69,5.53-.18,6.07,1.54" transform="translate(-17.25 0)"/><path class="cls-37" d="M88.49,491c.48,1.56-1.41,3.54-4.23,4.41s-5.5.3-6-1.27,1.41-3.54,4.23-4.41,5.5-.3,6,1.27" transform="translate(-17.25 0)"/><path class="cls-38" d="M83.25,478c.53,1.72-1.58,3.9-4.71,4.86s-6.1.35-6.63-1.37,1.58-3.9,4.71-4.87,6.1-.35,6.63,1.38" transform="translate(-17.25 0)"/><path class="cls-39" d="M92.8,462.6c.53,1.73-2,4-5.56,5.13s-6.95.61-7.48-1.11,2-4,5.56-5.13,7-.61,7.48,1.11" transform="translate(-17.25 0)"/><path class="cls-40" d="M116.93,462.31c.58,1.88-1.49,4.19-4.62,5.15s-6.14.22-6.72-1.65,1.49-4.19,4.62-5.15,6.15-.23,6.72,1.65" transform="translate(-17.25 0)"/><path class="cls-41" d="M138.54,467.92c.55,1.81-1.35,4-4.25,4.88s-5.69.16-6.25-1.64,1.35-4,4.25-4.88,5.69-.16,6.25,1.64" transform="translate(-17.25 0)"/><path class="cls-42" d="M172.12,454l-9,52.16c-.68,4-4.78,6.57-9.16,5.82l-.58-2.48,11.69-47.61c.77-3.73,2.82-7.91,7-7.89" transform="translate(-17.25 0)"/><path class="cls-43" d="M171.66,454.18l-12,52.39a7.4,7.4,0,0,1-8.86,5.56l-.36-2.52,14.17-47.7c1-3.75,3.16-7.9,7-7.73" transform="translate(-17.25 0)"/><path class="cls-44" d="M178.08,438.59c-1.28-1-2-1.06-2.49-.88s-.67.71-1.61,1.13a7.16,7.16,0,0,1-1.13.35c-.74.21-1.33.4-1.7.53a2.13,2.13,0,0,1-.57.17,2.32,2.32,0,0,1-1.81-.72,24.48,24.48,0,0,0,1.46-4.24,27.34,27.34,0,0,0,.72-5.61,18.17,18.17,0,0,1,4.79,4.78,19.23,19.23,0,0,1,2.34,4.49" transform="translate(-17.25 0)"/><path class="cls-45" d="M179.37,444.33c-.49,4.84-4.26,11-8.84,10.67a7.12,7.12,0,0,1-6.11-5.82c-.29-2.81,2.14-4.21,4.35-8.32.2-.36.39-.76.58-1.17a.36.36,0,0,0,0-.09c1.06.59,1.65.52,2,.35.68-.33.61-1.15,1.28-1.37s.94.47,1.84.37,1-.63,1.69-.81a2.93,2.93,0,0,1,2.5.88h0a12.48,12.48,0,0,1,.67,5.3" transform="translate(-17.25 0)"/><path class="cls-46" d="M178.75,443.9c-.49,4.84-4.25,11-8.83,10.67a7.12,7.12,0,0,1-6.12-5.82c-.29-2.81,2.14-4.21,4.35-8.32.2-.36.4-.76.58-1.17a.73.73,0,0,1,.05-.09c1.05.59,1.65.52,2,.35.67-.33.76-.55,1.27-1.37.35-.57.95.47,1.84.37s1-.63,1.7-.81a2.92,2.92,0,0,1,2.49.88h0a12.32,12.32,0,0,1,.67,5.3" transform="translate(-17.25 0)"/><path class="cls-43" d="M158.82,509a16.78,16.78,0,0,0-1.87.18,18.3,18.3,0,0,0-2.58.63,6.91,6.91,0,0,1-2.58.63,3.53,3.53,0,0,1-1.16-.27" transform="translate(-17.25 0)"/></g></g></g></g></g></svg>