<svg xmlns="http://www.w3.org/2000/svg" xmlns:xlink="http://www.w3.org/1999/xlink" viewBox="0 0 161.57 135.02"><defs><style>.cls-1,.cls-5,.cls-6,.cls-7{fill:none;}.cls-2{clip-path:url(#clip-path);}.cls-3{fill:#e6e6e6;}.cls-4{fill:#fff;}.cls-5,.cls-6,.cls-7{stroke:#000;stroke-miterlimit:10;}.cls-5{stroke-width:2.1px;}.cls-6{stroke-width:3.49px;}.cls-7{stroke-width:1.4px;}</style><clipPath id="clip-path" transform="translate(-3.48 -3.79)"><rect class="cls-1" x="18.22" y="-10.07" width="133.28" height="162.42" transform="matrix(0.06, -1, 1, 0.06, 9.01, 151.83)"/></clipPath></defs><g id="Layer_2" data-name="Layer 2"><g id="illustrations"><g id="Artwork_2" data-name="Artwork 2"><g class="cls-2"><g class="cls-2"><path class="cls-3" d="M46.85,23.85c12-16.31,28.53-18.51,42.8-13,8.91,3.44,14,8.68,16.23,12.66,2.36-2.41,8.06-5.54,16.4-6.25,14.61-1.24,30.54,12,30.25,27.31-.22,12.2-10.59,20-12.18,21.15,2.36.07,10.69.64,17.19,7.09,7.3,7.25,10.33,20,4.24,29.61-6.48,10.22-21.3,13.88-33.24,6.87a28.32,28.32,0,0,1-1.18,10.46c-.24.78-4.73,14.39-16.94,18.12-10.77,3.3-23.85-2.22-30.87-14a25.52,25.52,0,0,1-8.81,8.7c-11.17,6.44-29.83,4.77-37.45-8-4.85-8.15-4.15-19,1.29-28-2,1.08-8.12,4.1-14.81,2.12C9.93,95.75,5.06,83.82,6.19,74.23c1.43-12.12,12.24-19,13.52-19.69a26.1,26.1,0,0,1-5.24-7.94C13,42.88,9.36,33.78,14,25.57c3-5.32,10.29-11.62,18.65-9.65,5.71,1.35,12.42,1.66,14.16,7.93" transform="translate(-3.48 -3.79)"/><path class="cls-4" d="M44.29,19.5C56.31,3.19,72.82,1,87.1,6.49c8.91,3.44,14,8.68,16.22,12.66,2.36-2.41,8.07-5.54,16.4-6.25,14.62-1.24,30.54,12,30.26,27.31-.22,12.2-10.6,20-12.18,21.15,2.36.07,10.68.64,17.18,7.09,7.3,7.25,10.34,20,4.24,29.61-6.47,10.22-21.29,13.88-33.23,6.88a28.12,28.12,0,0,1-1.19,10.45c-.24.78-4.73,14.39-16.94,18.13-10.77,3.29-23.85-2.23-30.87-14a25.57,25.57,0,0,1-8.8,8.7c-11.17,6.44-29.83,4.77-37.45-8-4.86-8.15-4.15-19,1.28-28-2,1.08-8.11,4.1-14.8,2.12C7.38,91.4,2.5,79.47,3.64,69.88c1.43-12.12,12.24-19,13.51-19.69a26.1,26.1,0,0,1-5.24-7.94c-1.48-3.72-5.1-12.82-.43-21,3-5.32,10.29-11.62,18.65-9.65,5.72,1.35,12.43,1.66,14.16,7.93" transform="translate(-3.48 -3.79)"/><line x1="55.15" y1="80.12" x2="57.94" y2="40.34"/><line class="cls-5" x1="55.15" y1="80.12" x2="57.94" y2="40.34"/><line x1="93.98" y1="81.44" x2="96.35" y2="42.68"/><line class="cls-5" x1="93.98" y1="81.44" x2="96.35" y2="42.68"/><line x1="97.32" y1="43.8" x2="56.85" y2="40.96"/><line class="cls-6" x1="97.32" y1="43.8" x2="56.85" y2="40.96"/><path d="M59.23,83.51c.75,2-.85,4.43-3.56,5.45s-5.52.23-6.26-1.76.84-4.43,3.55-5.45,5.52-.23,6.27,1.76" transform="translate(-3.48 -3.79)"/><path class="cls-7" d="M59.23,83.51c.75,2-.85,4.43-3.56,5.45s-5.52.23-6.26-1.76.84-4.43,3.55-5.45S58.48,81.52,59.23,83.51Z" transform="translate(-3.48 -3.79)"/><path d="M98.31,86.25c.75,2-.84,4.43-3.56,5.45s-5.51.23-6.26-1.76.84-4.42,3.55-5.45,5.52-.23,6.27,1.76" transform="translate(-3.48 -3.79)"/><path class="cls-7" d="M98.31,86.25c.75,2-.84,4.43-3.56,5.45s-5.51.23-6.26-1.76.84-4.42,3.55-5.45S97.56,84.26,98.31,86.25Z" transform="translate(-3.48 -3.79)"/></g></g></g></g></g></svg>