<svg xmlns="http://www.w3.org/2000/svg" xmlns:xlink="http://www.w3.org/1999/xlink" viewBox="0 0 378.13 608.91"><defs><style>.cls-1{fill:#e6e6e6;}.cls-2{fill:#fff;}.cls-3{fill:#7f4c24;}.cls-4{fill:#cf9c6d;}.cls-5{fill:#75214f;}.cls-6{fill:#2fadd4;}.cls-7{fill:#e7394f;}.cls-8{fill:#7dd94f;}.cls-9{fill:#e76f45;}.cls-10{fill:#e6c129;}.cls-11{fill:#7f3700;}.cls-12{fill:#a75000;}.cls-13{fill:#5fd1b4;}.cls-14{fill:#ffb7b4;}.cls-15{fill:#ffd1b4;}.cls-16{fill:#a9143f;}.cls-17{fill:#fc9;}.cls-18{fill:#2a1600;}.cls-19{fill:#e7b38f;opacity:0.9;}.cls-20,.cls-30{fill:none;stroke-miterlimit:10;}.cls-20{stroke:#2a1600;}.cls-21{fill:#ff9f9b;}.cls-22{fill:#ff7b6d;opacity:0.8;}.cls-23{fill:url(#Summer);}.cls-24{fill:url(#Summer-2);}.cls-25{fill:url(#Summer-3);}.cls-26{fill:url(#Summer-4);}.cls-27{fill:url(#Summer-5);}.cls-28{fill:url(#Summer-6);}.cls-29{fill:url(#Summer-7);}.cls-30{stroke:#999;}.cls-31{fill:#999;}.cls-32{fill:#b3b3b3;}.cls-33{fill:gray;}.cls-34{fill:#a6a7a7;}</style><radialGradient id="Summer" cx="230.13" cy="125.11" r="3.54" gradientTransform="matrix(1, 0, 0, -1, 0, 158.64)" gradientUnits="userSpaceOnUse"><stop offset="0" stop-color="#fff"/><stop offset="0.09" stop-color="#ffedd8"/><stop offset="0.21" stop-color="#ffd5a7"/><stop offset="0.33" stop-color="#ffc17d"/><stop offset="0.46" stop-color="#ffb05b"/><stop offset="0.59" stop-color="#ffa340"/><stop offset="0.72" stop-color="#ff9a2d"/><stop offset="0.86" stop-color="#ff9522"/><stop offset="1" stop-color="#ff931e"/></radialGradient><radialGradient id="Summer-2" cx="232.13" cy="130.11" r="3.54" xlink:href="#Summer"/><radialGradient id="Summer-3" cx="227.13" cy="129.11" r="3.54" xlink:href="#Summer"/><radialGradient id="Summer-4" cx="331.63" cy="121.61" r="3.54" xlink:href="#Summer"/><radialGradient id="Summer-5" cx="320.26" cy="28.63" r="4.07" gradientTransform="matrix(-1, 0, 0, 1, 649.26, 0)" xlink:href="#Summer"/><radialGradient id="Summer-6" cx="332.03" cy="32.92" r="3.19" gradientTransform="translate(-109.88) scale(1.33 1)" xlink:href="#Summer"/><radialGradient id="Summer-7" cx="322.68" cy="32.43" r="3.63" gradientTransform="matrix(-1, 0, 0, 1, 649.26, 0)" xlink:href="#Summer"/></defs><g id="Layer_2" data-name="Layer 2"><g id="Layer_2-2" data-name="Layer 2"><path class="cls-1" d="M27.2,481.52C26,461.07,41.05,444.16,58.77,442.58c13.94-1.25,28.08,7.13,34.78,21,13.87-14.94,34.83-19.14,50.31-11.16,15.24,7.85,19,24.29,19.56,26.9,11-12.86,29.85-15.81,43.62-7.41a32.88,32.88,0,0,1,14.08,37.35c11.78-.38,22.3,5,25.72,13,4.81,11.32-3.82,29.37-23.19,34.26-.57,4.5-3,19.27-15.68,29.63-15,12.26-38.12,13.34-57.7,2.24-11.61,18.61-34.38,25.16-50.86,17.11-12-5.89-19.66-19.07-19.92-33.65-9,10.19-22.43,14.17-32.24,10.19-13.47-5.45-21.16-26.23-10.14-44.33-11.52,1-22.83-2.53-28.17-10.35C.81,515.45,6.29,493,27.2,481.52Z"/><path class="cls-2" d="M21.86,478.42C20.69,458,35.71,441.06,53.43,439.48c13.94-1.25,28.08,7.12,34.77,21,13.88-15,34.83-19.14,50.32-11.16,15.23,7.85,19,24.29,19.56,26.9,11-12.86,29.85-15.81,43.61-7.41a32.86,32.86,0,0,1,14.08,37.35c11.78-.38,22.3,5,25.72,13,4.82,11.32-3.82,29.37-23.19,34.26-.57,4.5-3,19.27-15.67,29.63-15,12.26-38.12,13.34-57.7,2.24-11.61,18.61-34.38,25.16-50.86,17.11C82,596.53,74.4,583.35,74.15,568.77,65.12,579,51.72,582.93,41.9,579c-13.46-5.45-21.15-26.23-10.14-44.33-11.51,1-22.83-2.53-28.16-10.35C-4.54,512.35,1,489.93,21.86,478.42Z"/><path class="cls-3" d="M141.21,506.46c-15.27-19.63-40.48-22-47-22.33-10.07-.57-28.23-1.59-38.44,10.78-8.63,10.46-6.5,24.34-6.07,27.19,1.83,12,8.93,19.51,12.17,22.85a48.53,48.53,0,0,0,27.44,14c8,1.09,20.25.58,22.34-4.55,1.12-2.76-1.24-5.51.86-9.45a10.28,10.28,0,0,1,4.56-4.28c4.17-2,7.93,0,12.36.69,7.27,1.19,16.78-.75,20.26-5.12C155.05,529.43,147.55,514.61,141.21,506.46ZM63.54,513c-.11-2,2.86-3.85,6.63-4.05s6.91,1.29,7,3.32-2.86,3.85-6.63,4S63.65,515,63.54,513Zm9.89,18.61c-3.39.18-6.22-1.17-6.32-3s2.57-3.49,6-3.68,6.22,1.18,6.32,3S76.83,531.39,73.43,531.57ZM85.79,545c-3.39.18-6.23-1.32-6.34-3.35s2.55-3.83,5.94-4S91.62,539,91.73,541,89.18,544.83,85.79,545ZM84.52,502.1c-4.33.23-7.94-1.23-8-3.26s3.32-3.87,7.66-4.1,7.93,1.22,8,3.26S88.85,501.87,84.52,502.1Zm28.07,6.56c-3.77.2-6.92-1.44-7-3.65s2.84-4.18,6.61-4.39,6.92,1.44,7,3.66S116.35,508.46,112.59,508.66Zm23.5,10.83c-3.2.17-5.88-1.19-6-3s2.42-3.49,5.62-3.66,5.88,1.19,6,3S139.29,519.32,136.09,519.49Z"/><path class="cls-4" d="M139.81,505.86c-15.27-19.62-40.48-22-47-22.33-10.06-.56-28.22-1.59-38.43,10.79-8.63,10.46-6.5,24.34-6.07,27.18,1.83,12,8.93,19.51,12.17,22.85a48.47,48.47,0,0,0,27.44,14c8,1.09,20.25.58,22.34-4.55,1.12-2.75-1.24-5.51.86-9.45a10.3,10.3,0,0,1,4.56-4.27c4.17-2,7.93,0,12.36.68,7.27,1.2,16.78-.75,20.26-5.11C153.65,528.84,146.15,514,139.81,505.86Zm-77.67,6.5c-.11-2,2.86-3.84,6.63-4s6.91,1.28,7,3.31-2.86,3.85-6.63,4S62.25,514.4,62.14,512.36ZM72,531c-3.39.19-6.22-1.17-6.32-3s2.57-3.49,6-3.67,6.22,1.17,6.32,3S75.43,530.79,72,531Zm12.36,13.45c-3.39.18-6.23-1.32-6.34-3.36s2.55-3.83,5.94-4,6.23,1.32,6.34,3.35S87.78,544.23,84.39,544.42Zm-1.27-42.91c-4.33.23-7.94-1.23-8.05-3.27s3.32-3.87,7.65-4.1,7.94,1.23,8,3.26S87.45,501.27,83.12,501.51Zm28.07,6.55c-3.77.2-6.92-1.43-7-3.65s2.84-4.18,6.61-4.38,6.92,1.43,7,3.65S115,507.86,111.19,508.06Zm23.5,10.83c-3.2.17-5.88-1.19-6-3s2.42-3.49,5.62-3.66,5.88,1.19,6,3S137.89,518.72,134.69,518.89Z"/><ellipse class="cls-5" cx="85.59" cy="541.33" rx="6.15" ry="3.69" transform="translate(-28.79 5.34) rotate(-3.06)"/><ellipse class="cls-6" cx="73.26" cy="528.22" rx="6.15" ry="3.35" transform="translate(-28.11 4.67) rotate(-3.06)"/><ellipse class="cls-7" cx="70.37" cy="512.6" rx="6.83" ry="3.69" transform="translate(-27.28 4.49) rotate(-3.06)"/><ellipse class="cls-8" cx="84.32" cy="498.42" rx="7.86" ry="3.69" transform="translate(-26.5 5.21) rotate(-3.06)"/><ellipse class="cls-9" cx="112.37" cy="504.64" rx="6.83" ry="4.02" transform="matrix(1, -0.05, 0.05, 1, -26.79, 6.72)"/><ellipse class="cls-10" cx="135.43" cy="516.67" rx="6.32" ry="3.86" transform="translate(-27.4 7.97) rotate(-3.06)"/><path class="cls-11" d="M183.14,510.24,158.49,565c-1.87,4.16-7.18,5.89-11.86,3.87l0-2.87,26.42-49C175,513.09,178.47,509.06,183.14,510.24Z"/><path class="cls-12" d="M182.58,510.32,154.5,564.47a8.61,8.61,0,0,1-11.45,3.68l.3-2.86,29.21-48.42C174.7,513,178.31,509.07,182.58,510.32Z"/><path class="cls-13" d="M194.13,495c-1.14-1.45-2-1.72-2.54-1.65s-1,.6-2.11.81a9.91,9.91,0,0,1-1.36.07c-.89,0-1.6.08-2.05.11a2.13,2.13,0,0,1-.68,0,2.6,2.6,0,0,1-1.81-1.29,27.69,27.69,0,0,0,2.81-4.25,31.48,31.48,0,0,0,2.38-5.95,20.22,20.22,0,0,1,4,6.55A21.24,21.24,0,0,1,194.13,495Z"/><path class="cls-14" d="M194,501.62c-1.91,5.18-7.85,10.9-12.87,9.29-3.15-1-5.66-4.83-5.19-8.05s3.57-4,7.19-7.93c.33-.35.66-.73,1-1.13l.07-.09c1,.94,1.7,1,2.14.94.85-.18,1-1.1,1.81-1.16s.92.77,1.95.91,1.26-.43,2.12-.42c.62,0,1.48.3,2.54,1.64h0A13.78,13.78,0,0,1,194,501.62Z"/><path class="cls-15" d="M193.39,501c-1.91,5.18-7.84,10.9-12.86,9.29-3.16-1-5.67-4.83-5.2-8s3.57-4,7.19-7.93c.33-.35.66-.73,1-1.13l.08-.09c1,.94,1.69,1,2.13.93.85-.17,1-.39,1.81-1.15.55-.52.92.77,1.95.91s1.26-.43,2.12-.43c.62,0,1.49.31,2.54,1.65h0A13.78,13.78,0,0,1,193.39,501Z"/><path class="cls-12" d="M152.85,566.91a19.24,19.24,0,0,0-2.14-.31,19.45,19.45,0,0,0-3.05,0c-1.62.09-2.15.27-3.06,0a4.44,4.44,0,0,1-1.22-.6"/></g><g id="Layer_4" data-name="Layer 4"><path id="body" class="cls-16" d="M366.63,204.15V329.82h-173V202.12a3.84,3.84,0,0,1,.09-.83l10.92-48.35a3.65,3.65,0,0,1,3.48-2.77,8.61,8.61,0,0,0,2.83-.61l16.7-6.71a8.24,8.24,0,0,0,2-1.14,4.06,4.06,0,0,1,2.47-.89,40.28,40.28,0,0,0,11.33-1.6,34.81,34.81,0,0,0,9.5-4.4c.28-.19.56-.38.83-.58a32.51,32.51,0,0,0,56.68,0c.27.2.55.39.83.58a37.5,37.5,0,0,0,20.83,6l1.48,0a3.63,3.63,0,0,1,2.71,1,8.5,8.5,0,0,0,1.77,1.36l15.58,9a8.53,8.53,0,0,0,4.25,1.14c.09,0,.17.79.26,1l0,.07,8.36,49.18A4.32,4.32,0,0,1,366.63,204.15Z"/><g id="head-neck"><path class="cls-17" d="M330.92,53.18a52.43,52.43,0,0,0-1.79-8.65,46.36,46.36,0,0,1-12-2c-5.53-1.69-9.18-4-14-7-8.52-5.38-12.81-8-16-13-2.52-3.93-2.87-6.68-5-7-2.76-.42-4.33,3.88-9,9-9.74,10.67-22.49,13.47-25,14a46.7,46.7,0,0,1-10,1,42.92,42.92,0,0,0-3,6,50.19,50.19,0,0,0-3,12.17,51.5,51.5,0,0,0-.4,6.3,48.35,48.35,0,0,0,.38,6.13,42.25,42.25,0,0,0,5,15.4c6.2,11,16,16.76,24.5,19.73a62.86,62.86,0,0,0,15.5,3.27,52.84,52.84,0,0,0,25.5-3.53,44.74,44.74,0,0,0,9.5-5.47c13.65-10.25,17.07-24.77,18-29,.08-.35.15-.7.22-1"/><path class="cls-18" d="M331.63,62l-.37-.08a53,53,0,0,0-2.13-17.42,46.36,46.36,0,0,1-12-2c-5.53-1.69-9.18-4-14-7-8.52-5.38-12.81-8-16-13-2.52-3.93-2.87-6.68-5-7-2.76-.42-4.33,3.88-9,9-9.74,10.67-22.49,13.47-25,14a46.7,46.7,0,0,1-10,1,42.92,42.92,0,0,0-3,6A52.15,52.15,0,0,0,231.72,64c-4.88-5.72-5.83-10.75-6.09-13-2.12-18.25,21.05-33.18,23.08-34.44l.92-.56c13.27-8,26.77-8.41,34-8a26.49,26.49,0,0,1,10-3c4.67-.42,23.86,3.64,34,21a45.35,45.35,0,0,1,5.57,16.61A46.4,46.4,0,0,1,331.63,62Z"/><g id="neck"><path class="cls-17" d="M310.47,134.45a32.51,32.51,0,0,1-56.68,0,25.23,25.23,0,0,0,7.41-8.16,3.73,3.73,0,0,0,.43-1.77V105.26a62.86,62.86,0,0,0,15.5,3.27,52.84,52.84,0,0,0,25.5-3.53v19.87a2.36,2.36,0,0,0,.27,1.11A24.81,24.81,0,0,0,310.47,134.45Z"/><path class="cls-19" d="M302.63,105v2.64c-3.17,7.55-11.09,12.89-20.34,12.89-9.58,0-17.72-5.72-20.66-13.68v-1.59a62.86,62.86,0,0,0,15.5,3.27A52.84,52.84,0,0,0,302.63,105Z"/></g></g><g id="braid-left"><path class="cls-18" d="M232.1,70.13c-1.41,2.59-3.54,4.13-5.59,3.75-3-.54-4.69-4.95-3.79-9.84s4-8.41,7-7.86a3.93,3.93,0,0,1,2.37,1.52Z"/><path class="cls-18" d="M226.57,150l-2.36,0a5.5,5.5,0,0,1-4.75-8.36l6.17-10.14a.29.29,0,0,1,.49,0l5.3,10.48A5.49,5.49,0,0,1,226.57,150Z"/><path class="cls-18" d="M226.57,165l-2.36,0a5.5,5.5,0,0,1-4.75-8.36l6.17-10.14a.29.29,0,0,1,.49,0l5.3,10.48A5.49,5.49,0,0,1,226.57,165Z"/><path class="cls-18" d="M226.57,179l-2.36,0a5.5,5.5,0,0,1-4.75-8.36l6.17-10.14a.29.29,0,0,1,.49,0l5.3,10.48A5.49,5.49,0,0,1,226.57,179Z"/><path class="cls-18" d="M227.57,136l-2.36,0a5.5,5.5,0,0,1-4.75-8.36l6.17-10.14a.29.29,0,0,1,.49,0l5.3,10.48A5.49,5.49,0,0,1,227.57,136Z"/><path class="cls-18" d="M227.57,120l-2.36,0a5.5,5.5,0,0,1-4.75-8.36l6.17-10.14a.29.29,0,0,1,.49,0l5.3,10.48A5.49,5.49,0,0,1,227.57,120Z"/><path class="cls-18" d="M228.57,90l-2.36,0a5.5,5.5,0,0,1-4.75-8.36l6.17-10.14a.29.29,0,0,1,.49,0l5.3,10.48A5.49,5.49,0,0,1,228.57,90Z"/><path class="cls-18" d="M227.57,104l-2.36,0a5.5,5.5,0,0,1-4.75-8.36l6.17-10.14a.29.29,0,0,1,.49,0l5.3,10.48A5.49,5.49,0,0,1,227.57,104Z"/></g><g id="braid-right"><path class="cls-18" d="M334.16,70.88a4.44,4.44,0,0,1-3.81-1.4,51.5,51.5,0,0,0,.57-16.3c3-.55,6.13,3,7,7.86S337.15,70.34,334.16,70.88Z"/><path class="cls-18" d="M334.11,147l2.35,0a5.5,5.5,0,0,0,4.75-8.36L335,128.56a.28.28,0,0,0-.48,0l-5.31,10.48A5.49,5.49,0,0,0,334.11,147Z"/><path class="cls-18" d="M333.11,161.53l2.35,0a5.5,5.5,0,0,0,4.75-8.36L334,143.06a.28.28,0,0,0-.48,0l-5.31,10.48A5.49,5.49,0,0,0,333.11,161.53Z"/><path class="cls-18" d="M333.11,175.53l2.35,0a5.5,5.5,0,0,0,4.75-8.36L334,157.06a.28.28,0,0,0-.48,0l-5.31,10.48A5.49,5.49,0,0,0,333.11,175.53Z"/><path class="cls-18" d="M333.11,133l2.35,0a5.5,5.5,0,0,0,4.75-8.36L334,114.56a.28.28,0,0,0-.48,0l-5.31,10.48A5.49,5.49,0,0,0,333.11,133Z"/><path class="cls-18" d="M333.11,117l2.35,0a5.5,5.5,0,0,0,4.75-8.36L334,98.56a.28.28,0,0,0-.48,0l-5.31,10.48A5.49,5.49,0,0,0,333.11,117Z"/><path class="cls-18" d="M332.11,87l2.35,0a5.5,5.5,0,0,0,4.75-8.36L333,68.56a.28.28,0,0,0-.48,0l-5.31,10.48A5.49,5.49,0,0,0,332.11,87Z"/><path class="cls-18" d="M333.11,101l2.35,0a5.5,5.5,0,0,0,4.75-8.36L334,82.56a.28.28,0,0,0-.48,0l-5.31,10.48A5.49,5.49,0,0,0,333.11,101Z"/></g><g id="bangs-left"><path d="M281.63,14A25.38,25.38,0,0,1,280,22a27.18,27.18,0,0,1-4,7.12,25.29,25.29,0,0,1-6,5.56,27.69,27.69,0,0,1-3.56,2A23.84,23.84,0,0,1,262.63,38a34.21,34.21,0,0,0,6.93-4,30.36,30.36,0,0,0,5.65-5.56,32.91,32.91,0,0,0,4.08-6.79,31.18,31.18,0,0,0,1.38-3.75A33.8,33.8,0,0,0,281.63,14Z"/><path d="M280.67,0a10.64,10.64,0,0,1,2.63,3.6A6.62,6.62,0,0,1,284,5.77a5,5,0,0,1-.3,2.27h-.1c-.25-.73-.41-1.42-.59-2.1s-.24-1.37-.44-2A12.19,12.19,0,0,0,280.6.07Z"/></g><g id="bangs-right"><path d="M282.63,15a39.48,39.48,0,0,0,2,7.78,34.46,34.46,0,0,0,3.63,7.1,35.11,35.11,0,0,0,5.1,6.13,42.23,42.23,0,0,0,6.28,5A31.51,31.51,0,0,1,293,36.46a32.89,32.89,0,0,1-5.33-6.14A32.33,32.33,0,0,1,284.08,23,29.78,29.78,0,0,1,282.63,15Z"/><path d="M290.56,4.53a5.12,5.12,0,0,0-3.56.56A5.24,5.24,0,0,0,284.63,8a5.54,5.54,0,0,1,2.09-3.36,5.87,5.87,0,0,1,4-1.13Z"/></g><g id="eyes-closed"><path class="cls-17" d="M253.63,62.28a6.33,6.33,0,0,1,1.13-4.48A5.32,5.32,0,0,1,259,55.53a5.26,5.26,0,0,1,4.23,2.27,6.28,6.28,0,0,1,1.13,4.48,7.58,7.58,0,0,0-1.74-4,4.62,4.62,0,0,0-7.24,0A7.58,7.58,0,0,0,253.63,62.28Z"/><path class="cls-17" d="M298.91,62.28A6.33,6.33,0,0,1,300,57.8a5.32,5.32,0,0,1,4.23-2.27,5.26,5.26,0,0,1,4.23,2.27,6.28,6.28,0,0,1,1.13,4.48,7.58,7.58,0,0,0-1.74-4,4.62,4.62,0,0,0-7.24,0A7.58,7.58,0,0,0,298.91,62.28Z"/></g><path id="smile-close" class="cls-20" d="M288.63,75.82a7.5,7.5,0,0,1-15,0"/><g id="mouth"><path class="cls-18" d="M291.13,74.53a11.11,11.11,0,0,1-2.23,6.75,8.92,8.92,0,0,1-14.54,0,11.11,11.11,0,0,1-2.23-6.75Z"/><ellipse class="cls-21" cx="281.63" cy="81.28" rx="7.27" ry="3.75"/></g><g id="eye-right"><ellipse class="cls-18" cx="304.84" cy="60.28" rx="5.21" ry="6.25"/><circle class="cls-2" cx="307.13" cy="57.53" r="1"/></g><g id="eye-left"><ellipse class="cls-18" cx="258.84" cy="60.28" rx="5.21" ry="6.25"/><circle class="cls-2" cx="261.13" cy="57.53" r="1"/></g><g id="blush"><ellipse class="cls-22" cx="250.13" cy="68.03" rx="4" ry="2.5"/><ellipse class="cls-22" cx="313.13" cy="68.03" rx="4" ry="2.5"/></g><g id="flower-left"><ellipse class="cls-23" cx="230.13" cy="33.53" rx="3" ry="4"/><ellipse class="cls-24" cx="232.13" cy="28.53" rx="3" ry="4"/><ellipse class="cls-25" cx="227.13" cy="29.53" rx="3" ry="4"/></g><g id="flower-right"><ellipse class="cls-26" cx="331.63" cy="37.03" rx="3" ry="4"/><ellipse class="cls-27" cx="329.01" cy="28.63" rx="3.45" ry="4.6"/><circle class="cls-28" cx="332.82" cy="32.92" r="3.61"/><ellipse class="cls-29" cx="326.59" cy="32.43" rx="3.08" ry="4.11"/></g><path class="cls-30" d="M152.63,327.86a73.76,73.76,0,0,1,20,1.3c9.73,2,14.34,4.94,20,6.5,7.64,2.12,19.09,2.23,35-7.8"/><path class="cls-31" d="M237.73,330.32a23.51,23.51,0,0,0,.39-29.5h81a23.51,23.51,0,0,0,.39,29.5Z"/><rect class="cls-32" x="182.13" y="171.82" width="196" height="129" rx="13.21"/><path class="cls-32" d="M332.13,330.32h-105a12,12,0,0,1,12-12h81A12,12,0,0,1,332.13,330.32Z"/><path class="cls-33" d="M280.13,224.82a10.11,10.11,0,0,0-8-10c-5.29-.95-9.72,3.21-11,7-1.61,4.82,1.72,9.45,5,14a40.05,40.05,0,0,0,14,12"/><path class="cls-33" d="M279.71,224.82a10.11,10.11,0,0,1,8-10c5.29-.95,9.73,3.21,11,7,1.62,4.82-1.72,9.45-5,14a40,40,0,0,1-14,12"/><path class="cls-34" d="M136.13,311.66v18.53l-16.3-.13c-.35-9.6,6.58-17.46,14.59-18.33A12.23,12.23,0,0,1,136.13,311.66Z"/><path class="cls-32" d="M152.84,330.32l-16.71-.13V311.66h.5C145.1,312.07,153.17,320,152.84,330.32Z"/><polygon class="cls-31" points="134.88 329.83 135.88 322.31 136.88 329.83 134.88 329.83"/></g></g></svg>