<?xml version="1.0" encoding="utf-8"?>
<!-- Generator: Adobe Illustrator 24.2.1, SVG Export Plug-In . SVG Version: 6.00 Build 0)  -->
<svg version="1.1" xmlns="http://www.w3.org/2000/svg" xmlns:xlink="http://www.w3.org/1999/xlink" x="0px" y="0px"
	 viewBox="0 0 1024 768" style="enable-background:new 0 0 1024 768;" xml:space="preserve">
<style type="text/css">
	.st0{fill:#DBEDF3;}
	.st1{fill:#E6E6E6;}
	.st2{fill:#FFFFFF;}
	.st3{fill:#4BAF3F;stroke:#8CC63F;stroke-miterlimit:10;}
	.st4{fill:#8CC63F;stroke:#8CC63F;stroke-miterlimit:10;}
	.st5{fill:#8C6239;}
	.st6{fill:#F43B3D;stroke:#8CC63F;stroke-miterlimit:10;}
	.st7{fill:#4BBF39;}
	.st8{fill:#4BA139;}
	.st9{fill:#25B939;}
	.st10{fill:none;}
	.st11{clip-path:url(#SVGID_2_);}
	.st12{clip-path:url(#SVGID_4_);fill:#E6E6E6;}
	.st13{clip-path:url(#SVGID_4_);fill:#FFFFFF;}
	.st14{fill:#39B54A;}
	.st15{fill:none;stroke:#477D1D;stroke-width:3;stroke-linecap:round;stroke-miterlimit:10;}
	.st16{fill:#F7931E;stroke:#DB7D1D;stroke-width:3;stroke-linecap:round;stroke-miterlimit:10;}
	.st17{fill:#9E005D;stroke:#9E005D;stroke-width:3;stroke-linecap:round;stroke-miterlimit:10;}
	.st18{fill:#9E005D;stroke:#DD005D;stroke-width:3;stroke-linecap:round;stroke-miterlimit:10;}
	.st19{fill:#FFCC99;}
	.st20{fill:#2A1600;}
	.st21{fill:#A9143F;}
	.st22{fill:#FF9F9B;}
	.st23{opacity:0.8;fill:#FF7B6D;}
	.st24{opacity:0.9;fill:#E7B38F;}
	.st25{fill:url(#SVGID_5_);}
	.st26{fill:url(#SVGID_6_);}
	.st27{fill:url(#SVGID_7_);}
	.st28{fill:url(#SVGID_8_);}
	.st29{fill:url(#SVGID_9_);}
	.st30{fill:url(#SVGID_10_);}
	.st31{fill:url(#SVGID_11_);}
	.st32{fill:#194F69;}
	.st33{fill:#051500;}
</style>
<g id="Background">
	<g>
		<rect class="st0" width="1024" height="768"/>
	</g>
</g>
<g id="tree_green">
	<path class="st1" d="M622,262.9c-0.7,0.7-15.3,15.9-36.2,13.3c-18.6-2.2-26.4-16.6-27.1-18.1c-14.2,12-31.9,14.9-42.3,8.6
		c-7.9-4.8-9.2-13.6-9.3-14.4c-1.2-9.1,4-18.8,13.5-25.1c-2.3-2.3-8.4-9-7-17.2c2-11.6,18.3-22.9,39.7-22.4
		c1.1-2.4,5.7-11.4,15.8-15.2c12.4-4.6,28.3,0.6,36.7,13.9c11.9-6.3,26.2-5.7,35.8,1.5c10.7,8,13.5,22.5,6.4,35
		c0.7,0.1,16.2,3.2,19.4,14.9c3.3,12.3-9.3,26.3-23,29.4C633,269.5,624,264.1,622,262.9z"/>
	<path class="st2" d="M618.9,255.3c-0.7,0.7-15.1,15.6-35.7,13.2c-18.4-2.2-25.9-16.2-26.7-17.7c-14,11.8-31.5,14.7-41.7,8.5
		c-7.8-4.7-9.1-13.3-9.2-14.1c-1.2-8.9,4-18.4,13.3-24.6c-2.3-2.3-8.2-8.8-6.8-16.8c2-11.3,18.1-22.4,39.2-22
		c1.1-2.3,5.7-11.2,15.6-14.9c12.2-4.6,27.9,0.5,36.1,13.5c11.7-6.2,25.8-5.6,35.3,1.4c10.5,7.8,13.3,22,6.3,34.2
		c0.7,0.1,16,3.1,19.1,14.5c3.3,12.1-9.2,25.7-22.8,28.8C629.8,261.7,620.9,256.5,618.9,255.3z"/>
	<path class="st3" d="M243.5,448.9c1.6,1.9,20.8,24.4,51.5,21.5c32-3,46.6-30.7,47.5-32.5c3.6,2.5,8.8,5.9,15.5,9.5
		c18.4,9.8,54.2,28.9,81.5,15.5c29.1-14.3,32.3-57.4,32.5-61.5c7.1,2.6,22.6,7.2,41,3c20.9-4.8,45.4-20.9,50-45
		c5.5-28.3-17.4-62.6-57-72c5.5-1.3,14.5-4.3,22-12c16.1-16.4,14.5-43,7-60c-12.2-27.8-43.9-34.4-56-37c-27.3-5.9-49.9,1.6-59.5,5.5
		c1.4-5.9,2.5-14.8-1-24c-10.8-28.1-54.5-30.7-59-31c-45.5-2.7-77.7,33.8-83,40c-5.5-4.9-13.8-11.1-25-15c-30-10.5-74.2-2.9-95,31
		c-14.5,23.6-14.2,54.3,0,80c-5.6-2.8-20-9-35-4c-24,8-35.9,40.1-29,66c7.4,27.6,35,43.7,59,43c10.9-0.3,19.5-4,25-7
		c-4.9,5.9-12.8,17.1-16,33c-1.2,5.7-6.9,33.8,9,51C184.7,463.4,216,465.6,243.5,448.9z"/>
	<path class="st4" d="M247.4,455.4c1.7,1.7,22.8,21.7,50.9,14.8c29.3-7.2,38.9-36.9,39.5-38.8c3.7,2,9.1,4.8,15.8,7.5
		c18.5,7.4,54.4,21.9,77.9,4.8c25-18.2,21.8-61.8,21.4-65.9c6.9,1.7,22,4.3,38.5-2.4c18.7-7.6,39.2-27,40-51.7
		c1-29.1-25.1-60.5-63.2-64.6c4.9-2,12.8-6.2,18.7-14.9c12.6-18.6,7.4-45-2-61.1c-15.3-26.3-45.7-28.7-57.3-29.7
		c-26.2-2.3-46.1,8.2-54.5,13.4c0.5-6.1,0.2-15.2-4.3-23.9c-14-26.8-55-23.6-59.2-23.3c-42.7,3.3-67.4,44.1-71.4,51
		c-5.8-4.2-14.4-9.3-25.4-11.7c-29.4-6.6-69.3,6.9-83.8,43.6c-10.1,25.6-5.4,56.3,11.4,80.2c-5.6-2.1-19.9-6.4-33.1,0.6
		c-21.1,11.2-27.7,44.9-17.6,70c10.8,26.7,38.7,39.2,60.9,35.3c10-1.7,17.6-6.6,22.2-10.3c-3.7,6.5-9.4,18.8-10.2,35.2
		c-0.3,5.8-1.6,34.8,15.6,49.9C194.8,477.7,224.1,475.8,247.4,455.4z"/>
</g>
<g id="tree">
	<polygon class="st5" points="358,768 279,768 308,405 342,405 	"/>
	<polygon class="st5" points="438.4,264.5 338.2,462.3 311,444.5 	"/>
	<polygon class="st5" points="293.5,210.6 347.2,444.5 304.8,450.3 	"/>
	<polygon class="st5" points="192.6,305.2 329.7,420.8 308.2,442.3 	"/>
</g>
<g id="berries">
	<path class="st6" d="M202.8,323.5c3-4.4,5-2.7,7.8-1.2c3.7,2,3.5,9.2,0.8,13.6c-3.2,5.3-9.4,5.4-10.6,5.4c-6,0-13-4.4-13.2-11.6
		c-0.2-5.9,4-13.2,7.5-13C197.6,316.8,202.3,317.6,202.8,323.5z"/>
	<path class="st6" d="M248.8,373.2c2.3-4.8,4.6-3.4,7.6-2.3c4,1.4,4.8,8.6,2.8,13.3c-2.4,5.7-8.5,6.7-9.7,6.9
		c-5.9,0.9-13.5-2.4-14.8-9.5c-1.1-5.8,2-13.6,5.5-14C242.7,367.3,247.5,367.4,248.8,373.2z"/>
	<path class="st6" d="M395.2,354c1.2-5.2,3.7-4.3,6.8-4c4.2,0.5,6.6,7.3,5.8,12.3c-1,6.1-6.8,8.5-7.9,8.9
		c-5.6,2.3-13.7,0.7-16.6-5.9c-2.4-5.4-1.1-13.7,2.2-14.8C387.9,349.6,392.6,348.6,395.2,354z"/>
	<path class="st6" d="M222,257c1.7-5,4.1-3.9,7.2-3.2c4.1,0.9,5.8,8,4.4,12.8c-1.7,6-7.7,7.7-8.8,8c-5.8,1.6-13.7-0.8-15.8-7.7
		c-1.8-5.6,0.4-13.7,3.8-14.5C215.2,251.9,220,251.4,222,257z"/>
	<path class="st6" d="M325.2,289c1.2-5.2,3.7-4.3,6.8-4c4.2,0.5,6.6,7.3,5.8,12.3c-1,6.1-6.8,8.5-7.9,8.9
		c-5.6,2.3-13.7,0.7-16.6-5.9c-2.4-5.4-1.1-13.7,2.2-14.8C317.9,284.6,322.6,283.6,325.2,289z"/>
	<path class="st6" d="M428.8,293.1c0.1-5.3,2.7-5,5.9-5.3c4.2-0.4,8,5.8,8.1,10.9c0.2,6.2-5,9.7-6,10.3c-5,3.3-13.3,3.4-17.4-2.4
		c-3.4-4.8-3.9-13.2-0.9-15C420.8,290.3,425.2,288.4,428.8,293.1z"/>
	<path class="st6" d="M377.9,232.1c0.2-5.3,2.8-5,6-5.2c4.2-0.3,7.9,5.9,8,10.9c0.2,6.2-5,9.6-6.1,10.3c-5,3.3-13.3,3.3-17.4-2.6
		c-3.4-4.8-3.7-13.2-0.7-15C369.9,229.2,374.3,227.3,377.9,232.1z"/>
	<path class="st6" d="M292.2,238.3c2.6-4.6,4.8-3.1,7.7-1.8c3.9,1.7,4.2,8.9,1.9,13.4c-2.8,5.6-9,6.1-10.2,6.2
		c-6,0.5-13.3-3.4-14.1-10.5c-0.7-5.8,2.9-13.4,6.4-13.6C286.6,232,291.3,232.5,292.2,238.3z"/>
</g>
<g id="grass_field">
	<path class="st7" d="M0,768c40.7-16.9,88.2-32.5,142-43c188-36.6,347.1,9.4,434,43C384,768,192,768,0,768z"/>
	<path class="st8" d="M358,768c40.7-16.9,88.2-32.5,142-43c188-36.6,347.1,9.4,434,43C742,768,550,768,358,768z"/>
	<path class="st9" d="M1024,726.5v41H621.1c36.3-18.5,78.6-35.4,126.6-46.8C853.2,695.5,948.5,706.1,1024,726.5z"/>
	<line class="st10" x1="1024" y1="767.4" x2="1024" y2="726.5"/>
</g>
<g id="clouds">
	<path class="st1" d="M774.1,109.9c5.9-22.6,25.2-38.5,47.1-38.9c20.6-0.4,39.5,13.1,47.1,33.6c3.3-2.8,9.1-6.8,17-8.4
		c12.6-2.6,30.7,0.8,38.1,14.7c1.4,2.7,4,8.7,3,17.9c2.6-1.4,8.5-3.9,16-3.2c3.5,0.4,13.5,2.1,19,10.5c6.9,10.4,3.1,25.1-3,33.6
		c-12.5,17.4-37.4,11.9-39.1,11.6c-6.3-1.5-11-4.2-14-6.3c-9.5,7.5-18.4,10.9-24,12.6c-7.2,2.1-21.9,6.5-38.1,0
		c-9.4-3.8-15.7-9.9-19-13.7c-1.1,1-18.7,16.5-40.1,9.5c-14.3-4.8-21.3-16.8-23-20c-20.6,5.5-36.8-6-38.1-16.8
		c-1-8.4,6.9-18.8,19-24.2c-3-11.4,3.9-22.4,13-24.2C762.4,96.9,770.5,101.5,774.1,109.9z"/>
	<path class="st2" d="M771,108c5.8-21.5,25.2-36.6,47-37c20.6-0.3,39.4,12.5,47,32c3.3-2.6,9.1-6.4,17-8c12.6-2.5,30.6,0.8,38,14
		c1.4,2.5,4,8.2,3,17c2.6-1.3,8.5-3.7,16-3c3.5,0.3,13.4,2,19,10c6.9,9.9,3.1,23.9-3,32c-12.5,16.6-37.3,11.4-39,11
		c-6.2-1.4-11-4-14-6c-9.5,7.1-18.4,10.4-24,12c-7.2,2-21.9,6.2-38,0c-9.4-3.6-15.7-9.4-19-13c-1.1,0.9-18.7,15.7-40,9
		c-14.3-4.5-21.3-16-23-19c-20.5,5.3-36.7-5.7-38-16c-1-8,6.9-17.9,19-23c-3-10.8,3.9-21.3,13-23C759.3,95.6,767.5,100,771,108z"/>
	<g id="Artwork_5_1_">
		<g>
			<defs>
				
					<rect id="SVGID_1_" x="49.2" y="73.7" transform="matrix(0.984 -0.1783 0.1783 0.984 -17.5782 21.7681)" width="126.2" height="70"/>
			</defs>
			<clipPath id="SVGID_2_">
				<use xlink:href="#SVGID_1_"  style="overflow:visible;"/>
			</clipPath>
			<g class="st11">
				<defs>
					
						<rect id="SVGID_3_" x="49.2" y="73.7" transform="matrix(0.984 -0.1783 0.1783 0.984 -17.5782 21.7681)" width="126.2" height="70"/>
				</defs>
				<clipPath id="SVGID_4_">
					<use xlink:href="#SVGID_3_"  style="overflow:visible;"/>
				</clipPath>
				<path class="st12" d="M62.8,97.6c1.6-8.8,8.3-15.7,16.7-17.1c10.5-1.8,18,5.9,18.6,6.5c10-10.2,23.6-13.4,33.3-8.4
					c5.6,2.9,8.5,7.8,10,10.9c9.1-7.3,22-4.6,27,3.6c4.2,6.8,2.5,16.9-4.8,23c0.6,1.2,4.3,9.2,0.8,14.9c-4,6.5-17,8.8-29.1,0.6
					c-1,1.7-2.7,4.2-5.5,6.2c-7.6,5.5-20.2,5.8-26-0.9c-1.1-1.2-2.4-3.3-3.1-6.5c-5.4,2.5-8.2,3.8-8.2,3.8S82.3,137,76,133.8
					c-2.4-1.2-5.1-3.8-6.9-9.6c-8.5,2.8-16.9-1.3-19.2-7.3C47.2,110,52.4,99.6,62.8,97.6"/>
				<path class="st13" d="M66.7,95.5c1.6-8.8,8.3-15.7,16.7-17.1c10.5-1.8,18,5.9,18.6,6.5c10-10.2,23.6-13.4,33.3-8.4
					c5.6,2.9,8.5,7.8,10,10.9c9.1-7.3,22-4.6,27,3.6c4.2,6.8,2.5,16.9-4.8,23c0.6,1.2,4.3,9.2,0.8,14.9c-4,6.5-17,8.8-29.1,0.6
					c-1,1.7-2.7,4.2-5.5,6.2c-7.6,5.5-20.2,5.8-26-0.9c-1.1-1.2-2.4-3.3-3.1-6.5c-5.4,2.5-8.2,3.8-8.2,3.8s-10.2,2.9-16.5-0.3
					c-2.4-1.2-5.1-3.8-6.9-9.6c-8.5,2.8-16.9-1.3-19.2-7.3C51.1,107.9,56.2,97.5,66.7,95.5"/>
			</g>
		</g>
	</g>
</g>
<g id="flowers_and_fun_stuff">
	<g>
		<path class="st14" d="M868.4,707.1l-0.5-0.1c-2.9-0.8-4.1-4.5-2.1-6.4l7-6.1l-0.3,8.6C873.3,705.8,871,707.9,868.4,707.1z"/>
		<g>
			<line class="st15" x1="795" y1="677.1" x2="795" y2="711.1"/>
			<line class="st15" x1="946.5" y1="672.5" x2="946" y2="711.1"/>
			<line class="st15" x1="865.7" y1="680.5" x2="865.5" y2="721.5"/>
			<g>
				<line class="st16" x1="795.5" y1="670.5" x2="797.5" y2="662.4"/>
				<line class="st16" x1="797.8" y1="683.6" x2="795.5" y2="675.6"/>
				<line class="st16" x1="794.1" y1="670.5" x2="791.8" y2="662.5"/>
				<line class="st16" x1="797" y1="671.3" x2="802.8" y2="665.3"/>
				<line class="st16" x1="802.8" y1="681.1" x2="796.9" y2="675.3"/>
				<line class="st16" x1="786.9" y1="665.4" x2="792.9" y2="671.2"/>
				<line class="st16" x1="794.3" y1="676.1" x2="792.2" y2="684.1"/>
				<line class="st16" x1="793.1" y1="675.4" x2="787.3" y2="681.4"/>
				<line class="st16" x1="805.5" y1="670.3" x2="797.5" y2="672.5"/>
				<line class="st16" x1="792.4" y1="674.3" x2="784.4" y2="676.5"/>
				<line class="st16" x1="805.5" y1="676.3" x2="797.5" y2="674.2"/>
				<line class="st16" x1="784.2" y1="670.3" x2="792.3" y2="672.4"/>
			</g>
			<g>
				<line class="st17" x1="866.6" y1="674.4" x2="868.3" y2="666.3"/>
				<line class="st17" x1="869.4" y1="687.4" x2="866.8" y2="679.6"/>
				<line class="st17" x1="865.2" y1="674.4" x2="862.6" y2="666.6"/>
				<line class="st17" x1="868.1" y1="675.2" x2="873.7" y2="669"/>
				<line class="st17" x1="874.3" y1="684.7" x2="868.1" y2="679.2"/>
				<line class="st17" x1="857.8" y1="669.7" x2="864" y2="675.3"/>
				<line class="st17" x1="865.6" y1="680" x2="863.9" y2="688.2"/>
				<line class="st17" x1="864.4" y1="679.5" x2="858.9" y2="685.7"/>
				<line class="st17" x1="876.5" y1="673.8" x2="868.6" y2="676.4"/>
				<line class="st17" x1="863.6" y1="678.3" x2="855.7" y2="680.9"/>
				<line class="st17" x1="876.9" y1="679.8" x2="868.7" y2="678.1"/>
				<line class="st17" x1="855.3" y1="674.7" x2="863.4" y2="676.4"/>
			</g>
			<g>
				<line class="st18" x1="946.7" y1="663.5" x2="948.8" y2="655.4"/>
				<line class="st18" x1="949" y1="676.6" x2="946.7" y2="668.6"/>
				<line class="st18" x1="945.3" y1="663.4" x2="943" y2="655.4"/>
				<line class="st18" x1="948.2" y1="664.3" x2="954" y2="658.3"/>
				<line class="st18" x1="954" y1="674.1" x2="948" y2="668.3"/>
				<line class="st18" x1="938.2" y1="658.4" x2="944.1" y2="664.2"/>
				<line class="st18" x1="945.4" y1="669" x2="943.4" y2="677.1"/>
				<line class="st18" x1="944.3" y1="668.4" x2="938.5" y2="674.3"/>
				<line class="st18" x1="956.7" y1="663.3" x2="948.7" y2="665.5"/>
				<line class="st18" x1="943.5" y1="667.2" x2="935.5" y2="669.4"/>
				<line class="st18" x1="956.7" y1="669.3" x2="948.7" y2="667.2"/>
				<line class="st18" x1="935.4" y1="663.3" x2="943.5" y2="665.3"/>
			</g>
			<path class="st14" d="M792.3,700.3l0.4-0.1c2.7-0.4,3.4-3.8,1.1-5.9l-7.8-6.9l1.5,8.4C787.4,698.3,789.9,700.6,792.3,700.3z"/>
			<path class="st14" d="M797.9,699.9l-0.5-0.2c-3-1.5-3.1-5.6-0.2-7.3l9.7-5.1l-3,9.1C803.7,699.4,800.6,701.2,797.9,699.9z"/>
			<path class="st14" d="M862.4,705.1l0.5-0.1c2.9-0.8,4.1-4.5,2.1-6.4l-7-6.1l0.3,8.6C857.5,703.8,859.7,705.9,862.4,705.1z"/>
			<path class="st14" d="M948.1,694l-0.3-0.2c-2.2-1.5-1.2-4.7,1.8-5.5l10-2.4l-5.2,6.5C953.4,694.5,950.1,695.4,948.1,694z"/>
			<path class="st14" d="M946.1,694l0.3-0.2c2.2-1.5,1.2-4.7-1.8-5.5l-10-2.4l5.2,6.5C940.8,694.5,944.1,695.4,946.1,694z"/>
		</g>
	</g>
</g>
<g id="pan">
	<path class="st19" d="M568.1,452.6c-0.3-2.2-0.8-4-1.2-5.3c-1.8,0-4.4-0.2-7.4-1.1c-3.4-1-5.6-2.3-8.6-4.1
		c-5.3-3.2-7.9-4.8-9.9-7.8c-1.6-2.4-1.8-4-3.1-4.2c-1.7-0.2-2.6,2.4-5.4,5.6c-5.8,6.6-13.6,8.5-15.1,8.8c-2.5,0.6-4.6,0.7-6.1,0.7
		c-0.5,0.9-1.2,2.1-1.8,3.7c-0.2,0.6-1.3,3.4-1.7,7.5c-0.1,1.2-0.2,2.5-0.2,3.9c0,1.2,0.1,2.5,0.3,3.7c0.4,3,1.4,6.2,3.2,9.4
		c3.9,6.7,10,10.1,15.2,11.8c4.4,1.5,8.2,1.7,9.5,1.8c2.5,0.2,8.8,0.5,15.5-2.4c1.9-0.8,3.9-2,5.7-3.4c8.2-6.4,10.2-15.3,10.7-17.9
		c0-0.2,0.1-0.4,0.1-0.6"/>
	<path class="st20" d="M568.6,458c-0.1,0-0.2,0-0.2,0c0.1-4.7-0.8-8.5-1.5-10.6c-1.8,0-4.4-0.2-7.4-1.1c-3.4-1-5.6-2.3-8.6-4.1
		c-5.3-3.2-7.9-4.8-9.9-7.8c-1.6-2.4-1.8-4-3.1-4.2c-1.7-0.2-2.6,2.4-5.4,5.6c-5.8,6.6-13.6,8.5-15.1,8.8c-2.5,0.6-4.6,0.7-6.1,0.7
		c-0.5,0.9-1.2,2.1-1.8,3.7c-0.3,0.7-2,5.3-1.9,11.3c-3-3.4-3.7-6.5-3.9-7.9c-1.5-11.1,12.5-20.5,13.7-21.3c0.2-0.2,0.4-0.3,0.6-0.4
		c8-5,16.3-5.4,20.7-5.3c2.3-1.3,4.4-1.8,6.1-1.9c2.8-0.3,14.6,2,21,12.5c0.6,1,2.8,4.7,3.6,10.1C570.1,451.4,569.3,455.6,568.6,458
		z"/>
	<path class="st21" d="M575.7,537.2l1.2,66.4L501,605l-1.2-67.5c0-0.1,0-0.3,0-0.4l4.3-25.6c0.1-0.9,0.8-1.4,1.5-1.5
		c0.4,0,0.8-0.1,1.2-0.3l7.3-3.7c0.3-0.2,0.6-0.4,0.9-0.6c0.3-0.3,0.7-0.5,1.1-0.5c1.8,0,3.4-0.4,5-0.9c1.5-0.6,2.9-1.4,4.1-2.4
		c0.1-0.1,0.2-0.2,0.4-0.3c2.5,5.2,7.2,8.6,12.6,8.5c5.3-0.1,9.9-3.7,12.3-9c0.1,0.1,0.2,0.2,0.4,0.3c2.5,1.9,5.7,3.1,9.2,3
		c0.2,0,0.4,0,0.6,0c0.4,0,0.9,0.1,1.2,0.5c0.2,0.3,0.5,0.5,0.8,0.7l6.9,4.6c0.6,0.4,1.2,0.6,1.9,0.6c0,0,0.1,0.4,0.1,0.5
		c0,0,0,0,0,0l4.1,25.9C575.7,537,575.7,537.1,575.7,537.2z"/>
	<path class="st19" d="M556.4,502.5c-3.3,6.1-9.7,10.3-17.1,10.4c-7.4,0.1-14-3.8-17.5-9.8c1.9-1.4,3.4-3.1,4.4-5.1
		c0.2-0.3,0.3-0.7,0.2-1.1l-0.2-11.8c4.4,1.5,8.2,1.7,9.5,1.8c2.5,0.2,8.8,0.5,15.5-2.4l0.2,12.1c0,0.2,0.1,0.5,0.2,0.7
		C552.8,499.3,554.4,501.1,556.4,502.5z"/>
	<path class="st20" d="M507.9,464c-0.8,1.6-2.1,2.6-3.4,2.4c-1.8-0.3-2.9-3-2.4-6c0.5-3,2.4-5.2,4.2-4.9c0.6,0.1,1.1,0.4,1.5,0.9
		L507.9,464z"/>
	<path class="st20" d="M504.7,512.9L504.7,512.9c-3,0.1-4.9-3.1-3.4-5.7l3.3-5.6c0.1-0.1,0.3-0.1,0.3,0l3,5.7
		C509.2,509.8,507.5,512.8,504.7,512.9z"/>
	<path class="st20" d="M504.8,522.1L504.8,522.1c-3,0.1-4.9-3.1-3.4-5.7l3.3-5.6c0.1-0.1,0.3-0.1,0.3,0l3,5.7
		C509.4,519,507.6,522,504.8,522.1z"/>
	<path class="st20" d="M505,530.6L505,530.6c-3,0.1-4.9-3.1-3.4-5.7l3.3-5.6c0.1-0.1,0.3-0.1,0.3,0l3,5.7
		C509.5,527.6,507.8,530.6,505,530.6z"/>
	<path class="st20" d="M505.1,504.4L505.1,504.4c-3,0.1-4.9-3.1-3.4-5.7l3.3-5.6c0.1-0.1,0.3-0.1,0.3,0l3,5.7
		C509.7,501.3,507.9,504.3,505.1,504.4z"/>
	<path class="st20" d="M505,494.6L505,494.6c-3,0.1-4.9-3.1-3.4-5.7l3.3-5.6c0.1-0.1,0.3-0.1,0.3,0l3,5.7
		C509.5,491.5,507.8,494.5,505,494.6z"/>
	<path class="st20" d="M505.3,476.2L505.3,476.2c-3,0.1-4.9-3.1-3.4-5.7l3.3-5.6c0.1-0.1,0.3-0.1,0.3,0l3,5.7
		C509.8,473.2,508.1,476.2,505.3,476.2z"/>
	<path class="st20" d="M504.8,484.8L504.8,484.8c-3,0.1-4.9-3.1-3.4-5.7l3.3-5.6c0.1-0.1,0.3-0.1,0.3,0l3,5.7
		C509.3,481.7,507.6,484.7,504.8,484.8z"/>
	<g>
		<path d="M538.2,429.8c0.3,1.6,0.8,3.2,1.4,4.7c0.6,1.5,1.4,2.9,2.3,4.3c0.9,1.3,2,2.6,3.1,3.7c1.2,1.1,2.5,2.1,3.8,3.1
			c-1.5-0.7-2.9-1.6-4.2-2.6c-1.3-1.1-2.4-2.3-3.4-3.7c-0.9-1.4-1.7-2.9-2.2-4.5C538.5,433.1,538.2,431.5,538.2,429.8z"/>
	</g>
	<g>
		<path d="M537.5,429.2c0,1.7-0.2,3.3-0.8,4.9c-0.5,1.6-1.3,3.1-2.4,4.5c-1,1.3-2.3,2.5-3.7,3.5c-1.4,0.9-3,1.6-4.6,2
			c2.9-1.5,5.5-3.5,7.4-6.1C535.6,435.5,536.8,432.5,537.5,429.2z"/>
	</g>
	<g>
		<path d="M536.8,420.7c0.7,0.5,1.3,1.3,1.8,2.1c0.2,0.4,0.5,0.9,0.5,1.3c0,0.5,0,1-0.3,1.4l-0.1,0c-0.3-0.4-0.4-0.8-0.6-1.2
			c-0.1-0.4-0.1-0.8-0.2-1.2C537.6,422.3,537.2,421.5,536.8,420.7L536.8,420.7z"/>
	</g>
	<g>
		<path d="M542.9,423.5c-0.7-0.2-1.4-0.1-2.1,0.3c-0.7,0.3-1.2,1-1.5,1.7c0.1-0.8,0.5-1.6,1.2-2.2c0.7-0.6,1.6-0.9,2.5-0.8
			L542.9,423.5z"/>
	</g>
	
		<ellipse transform="matrix(0.9998 -1.751887e-02 1.751887e-02 0.9998 -7.9255 9.7442)" class="st20" cx="552.2" cy="457.2" rx="3.2" ry="3.8"/>
	
		<ellipse transform="matrix(0.9998 -1.751887e-02 1.751887e-02 0.9998 -7.9384 9.252)" class="st20" cx="524.1" cy="457.7" rx="3.2" ry="3.8"/>
	<path class="st20" d="M544,466.1c0,1.6-0.5,3-1.3,4.1c-1,1.4-2.6,2.3-4.4,2.4c-1.8,0-3.4-0.8-4.5-2.2c-0.9-1.1-1.4-2.5-1.4-4.1
		L544,466.1z"/>
	
		<ellipse transform="matrix(0.9998 -1.751887e-02 1.751887e-02 0.9998 -8.1567 9.5018)" class="st22" cx="538.3" cy="470.3" rx="4.4" ry="2.3"/>
	<circle class="st2" cx="553.6" cy="455.5" r="0.6"/>
	<circle class="st2" cx="525.5" cy="456" r="0.6"/>
	
		<ellipse transform="matrix(0.9998 -1.751887e-02 1.751887e-02 0.9998 -8.0238 9.161)" class="st23" cx="518.9" cy="462.6" rx="2.4" ry="1.5"/>
	
		<ellipse transform="matrix(0.9998 -1.751887e-02 1.751887e-02 0.9998 -8.0061 9.8351)" class="st23" cx="557.4" cy="461.9" rx="2.4" ry="1.5"/>
	<path class="st24" d="M551.3,484.6l0,1.6c-1.9,4.6-6.6,8-12.3,8.1c-5.9,0.1-10.9-3.3-12.8-8.1l0-1c4.4,1.5,8.2,1.7,9.5,1.8
		C538.3,487.2,544.6,487.5,551.3,484.6z"/>
	
		<radialGradient id="SVGID_5_" cx="501.1549" cy="-141.1317" r="2.16" gradientTransform="matrix(0.9998 -1.751887e-02 -1.751887e-02 -0.9998 2.7354 309.3634)" gradientUnits="userSpaceOnUse">
		<stop  offset="0" style="stop-color:#FFFFFF"/>
		<stop  offset="8.510864e-02" style="stop-color:#FFEDD8"/>
		<stop  offset="0.2082" style="stop-color:#FFD5A7"/>
		<stop  offset="0.3345" style="stop-color:#FFC17D"/>
		<stop  offset="0.462" style="stop-color:#FFB05B"/>
		<stop  offset="0.591" style="stop-color:#FFA340"/>
		<stop  offset="0.7222" style="stop-color:#FF9A2D"/>
		<stop  offset="0.8568" style="stop-color:#FF9522"/>
		<stop  offset="1" style="stop-color:#FF931E"/>
	</radialGradient>
	<path class="st25" d="M508.1,441.7c0-1.3-0.9-2.4-1.9-2.4c-1,0-1.8,1.1-1.8,2.5c0,1.3,0.9,2.4,1.9,2.4
		C507.3,444.1,508.1,443,508.1,441.7z"/>
	
		<radialGradient id="SVGID_6_" cx="502.3768" cy="-138.0771" r="2.16" gradientTransform="matrix(0.9998 -1.751887e-02 -1.751887e-02 -0.9998 2.7354 309.3634)" gradientUnits="userSpaceOnUse">
		<stop  offset="0" style="stop-color:#FFFFFF"/>
		<stop  offset="8.510864e-02" style="stop-color:#FFEDD8"/>
		<stop  offset="0.2082" style="stop-color:#FFD5A7"/>
		<stop  offset="0.3345" style="stop-color:#FFC17D"/>
		<stop  offset="0.462" style="stop-color:#FFB05B"/>
		<stop  offset="0.591" style="stop-color:#FFA340"/>
		<stop  offset="0.7222" style="stop-color:#FF9A2D"/>
		<stop  offset="0.8568" style="stop-color:#FF9522"/>
		<stop  offset="1" style="stop-color:#FF931E"/>
	</radialGradient>
	<path class="st26" d="M509.3,438.6c0-1.3-0.9-2.4-1.9-2.4c-1,0-1.8,1.1-1.8,2.5s0.9,2.4,1.9,2.4S509.3,439.9,509.3,438.6z"/>
	
		<radialGradient id="SVGID_7_" cx="563.1647" cy="-143.27" r="2.16" gradientTransform="matrix(0.9998 -1.751887e-02 -1.751887e-02 -0.9998 2.7354 309.3634)" gradientUnits="userSpaceOnUse">
		<stop  offset="0" style="stop-color:#FFFFFF"/>
		<stop  offset="8.510864e-02" style="stop-color:#FFEDD8"/>
		<stop  offset="0.2082" style="stop-color:#FFD5A7"/>
		<stop  offset="0.3345" style="stop-color:#FFC17D"/>
		<stop  offset="0.462" style="stop-color:#FFB05B"/>
		<stop  offset="0.591" style="stop-color:#FFA340"/>
		<stop  offset="0.7222" style="stop-color:#FF9A2D"/>
		<stop  offset="0.8568" style="stop-color:#FF9522"/>
		<stop  offset="1" style="stop-color:#FF931E"/>
	</radialGradient>
	<path class="st27" d="M570.2,442.7c0-1.3-0.9-2.4-1.9-2.4c-1,0-1.8,1.1-1.8,2.5s0.9,2.4,1.9,2.4
		C569.4,445.2,570.2,444.1,570.2,442.7z"/>
	
		<radialGradient id="SVGID_8_" cx="499.3221" cy="-138.688" r="2.16" gradientTransform="matrix(0.9998 -1.751887e-02 -1.751887e-02 -0.9998 2.7354 309.3634)" gradientUnits="userSpaceOnUse">
		<stop  offset="0" style="stop-color:#FFFFFF"/>
		<stop  offset="8.510864e-02" style="stop-color:#FFEDD8"/>
		<stop  offset="0.2082" style="stop-color:#FFD5A7"/>
		<stop  offset="0.3345" style="stop-color:#FFC17D"/>
		<stop  offset="0.462" style="stop-color:#FFB05B"/>
		<stop  offset="0.591" style="stop-color:#FFA340"/>
		<stop  offset="0.7222" style="stop-color:#FF9A2D"/>
		<stop  offset="0.8568" style="stop-color:#FF9522"/>
		<stop  offset="1" style="stop-color:#FF931E"/>
	</radialGradient>
	<path class="st28" d="M506.2,439.3c0-1.3-0.9-2.4-1.9-2.4c-1,0-1.8,1.1-1.8,2.5s0.9,2.4,1.9,2.4
		C505.5,441.7,506.3,440.6,506.2,439.3z"/>
	
		<radialGradient id="SVGID_9_" cx="1080.4391" cy="434.1382" r="2.484" gradientTransform="matrix(-0.9998 1.751887e-02 1.751887e-02 0.9998 1639.2979 -15.3571)" gradientUnits="userSpaceOnUse">
		<stop  offset="0" style="stop-color:#FFFFFF"/>
		<stop  offset="8.510864e-02" style="stop-color:#FFEDD8"/>
		<stop  offset="0.2082" style="stop-color:#FFD5A7"/>
		<stop  offset="0.3345" style="stop-color:#FFC17D"/>
		<stop  offset="0.462" style="stop-color:#FFB05B"/>
		<stop  offset="0.591" style="stop-color:#FFA340"/>
		<stop  offset="0.7222" style="stop-color:#FF9A2D"/>
		<stop  offset="0.8568" style="stop-color:#FF9522"/>
		<stop  offset="1" style="stop-color:#FF931E"/>
	</radialGradient>
	<path class="st29" d="M564.5,437.7c0,1.6,1,2.8,2.2,2.8c1.2,0,2.1-1.3,2.1-2.8c0-1.6-1-2.8-2.2-2.8S564.5,436.1,564.5,437.7z"/>
	
		<radialGradient id="SVGID_10_" cx="629.5608" cy="436.5208" r="2.16" gradientTransform="matrix(1.3331 -2.335850e-02 1.751887e-02 0.9998 -277.7413 18.2324)" gradientUnits="userSpaceOnUse">
		<stop  offset="0" style="stop-color:#FFFFFF"/>
		<stop  offset="8.510864e-02" style="stop-color:#FFEDD8"/>
		<stop  offset="0.2082" style="stop-color:#FFD5A7"/>
		<stop  offset="0.3345" style="stop-color:#FFC17D"/>
		<stop  offset="0.462" style="stop-color:#FFB05B"/>
		<stop  offset="0.591" style="stop-color:#FFA340"/>
		<stop  offset="0.7222" style="stop-color:#FF9A2D"/>
		<stop  offset="0.8568" style="stop-color:#FF9522"/>
		<stop  offset="1" style="stop-color:#FF931E"/>
	</radialGradient>
	<circle class="st30" cx="569.2" cy="440" r="2.4"/>
	
		<radialGradient id="SVGID_11_" cx="1082.1191" cy="436.1542" r="2.484" gradientTransform="matrix(-0.9998 1.751887e-02 1.751887e-02 0.9998 1639.2979 -15.3571)" gradientUnits="userSpaceOnUse">
		<stop  offset="0" style="stop-color:#FFFFFF"/>
		<stop  offset="8.510864e-02" style="stop-color:#FFEDD8"/>
		<stop  offset="0.2082" style="stop-color:#FFD5A7"/>
		<stop  offset="0.3345" style="stop-color:#FFC17D"/>
		<stop  offset="0.462" style="stop-color:#FFB05B"/>
		<stop  offset="0.591" style="stop-color:#FFA340"/>
		<stop  offset="0.7222" style="stop-color:#FF9A2D"/>
		<stop  offset="0.8568" style="stop-color:#FF9522"/>
		<stop  offset="1" style="stop-color:#FF931E"/>
	</radialGradient>
	<path class="st31" d="M562.9,439.7c0,1.6,1,2.8,2.2,2.8s2.1-1.3,2.1-2.8c0-1.6-1-2.8-2.2-2.8S562.9,438.2,562.9,439.7z"/>
	<line class="st10" x1="507.5" y1="457.9" x2="505.8" y2="465.2"/>
	<g>
		<polygon class="st21" points="631.9,444.2 643.9,460.1 570.8,516.1 560.7,505.1 		"/>
		<circle class="st24" cx="644.6" cy="451.6" r="8.5"/>
		<circle class="st19" cx="642.3" cy="449.2" r="8.5"/>
	</g>
	<g>
		<path class="st21" d="M460.3,582.4l18.3,10.3l41-82.5l-5.3-3c-3.8-2.2-8.7-0.9-10.9,2.9L460.3,582.4z"/>
		<circle class="st24" cx="469.6" cy="594.6" r="8.5"/>
		<circle class="st19" cx="466.5" cy="592.5" r="8.5"/>
	</g>
	<polygon class="st32" points="534,726 514,726 502,603 540,603 	"/>
	<polygon class="st32" points="544,726 565,726 575,603 537,603 	"/>
	<g>
		<path class="st20" d="M570.2,463.4c-0.8,0.2-1.6-0.2-2.3-0.8c0.3-1.6,0.4-3.2,0.5-4.6c0.1-2-0.1-3.8-0.3-5.4
			c1.8-0.4,3.8,1.7,4.4,4.7C573,460.3,572.1,463,570.2,463.4z"/>
		<path class="st20" d="M571.7,509.9L571.7,509.9c3,0,4.7-3.3,3.2-5.8l-3.5-5.5c-0.1-0.1-0.3-0.1-0.3,0l-2.8,5.8
			C567,507,568.9,509.9,571.7,509.9z"/>
		<path class="st20" d="M571.2,518.8L571.2,518.8c3,0,4.7-3.3,3.2-5.8l-3.5-5.5c-0.1-0.1-0.3-0.1-0.3,0l-2.8,5.8
			C566.6,515.9,568.4,518.8,571.2,518.8z"/>
		<path class="st20" d="M571.4,527.3L571.4,527.3c3,0,4.7-3.3,3.2-5.8l-3.5-5.5c-0.1-0.1-0.3-0.1-0.3,0l-2.8,5.8
			C566.7,524.4,568.6,527.3,571.4,527.3z"/>
		<path class="st20" d="M570.9,501.4L570.9,501.4c3,0,4.7-3.3,3.2-5.8l-3.5-5.5c-0.1-0.1-0.3-0.1-0.3,0l-2.8,5.8
			C566.3,498.5,568.1,501.4,570.9,501.4z"/>
		<path class="st20" d="M570.8,491.6L570.8,491.6c3,0,4.7-3.3,3.2-5.8l-3.5-5.5c-0.1-0.1-0.3-0.1-0.3,0l-2.8,5.8
			C566.1,488.7,568,491.6,570.8,491.6z"/>
		<path class="st20" d="M569.8,473.3L569.8,473.3c3,0,4.7-3.3,3.2-5.8l-3.5-5.5c-0.1-0.1-0.3-0.1-0.3,0l-2.8,5.8
			C565.2,470.4,567,473.3,569.8,473.3z"/>
		<path class="st20" d="M570.6,481.8L570.6,481.8c3,0,4.7-3.3,3.2-5.8l-3.5-5.5c-0.1-0.1-0.3-0.1-0.3,0l-2.8,5.8
			C565.9,478.9,567.8,481.8,570.6,481.8z"/>
	</g>
	<path class="st33" d="M562.5,734h-16c-3,0-5.5-2.5-5.5-5.5l0,0c0-3,2.5-5.5,5.5-5.5h16c3,0,5.5,2.5,5.5,5.5l0,0
		C568,731.5,565.5,734,562.5,734z"/>
	<path class="st33" d="M531.5,735h-16c-3,0-5.5-2.5-5.5-5.5l0,0c0-3,2.5-5.5,5.5-5.5h16c3,0,5.5,2.5,5.5,5.5l0,0
		C537,732.5,534.5,735,531.5,735z"/>
</g>
</svg>
